{"glyphs":{"0":{"ha":908,"x_min":93,"x_max":814,"o":"m 783 699 q 798 650 783 699 q 814 482 814 601 q 783 266 814 363 q 701 106 752 168 q 586 11 650 44 q 454 -22 522 -22 q 347 -2 399 -22 q 249 61 295 19 q 168 162 203 103 q 113 304 134 222 q 93 482 93 387 q 124 699 93 601 q 206 858 155 796 q 321 953 258 920 q 454 986 385 986 q 586 953 522 986 q 701 858 650 920 q 783 699 752 796 m 253 692 q 243 645 253 692 q 234 482 234 597 q 253 272 234 367 q 303 118 272 178 q 373 26 334 58 q 454 -6 412 -6 q 607 125 542 -6 q 673 482 673 256 q 654 692 673 597 q 604 846 635 787 q 534 938 573 905 q 454 970 495 970 q 373 938 412 970 q 303 846 334 905 q 253 692 272 787 z "},"1":{"ha":526,"x_min":83,"x_max":448,"o":"m 336 0 l 83 0 l 83 16 q 169 27 142 16 q 195 65 195 39 l 195 709 q 189 764 195 741 q 174 799 182 787 q 148 817 165 811 q 119 825 132 823 q 83 826 106 826 l 83 841 q 207 870 144 841 q 302 964 271 899 l 336 964 l 336 65 q 363 27 336 39 q 448 16 390 16 l 448 0 l 336 0 z "},"2":{"ha":904,"x_min":89,"x_max":805,"o":"m 805 141 l 805 0 l 89 0 q 109 110 89 60 q 161 195 128 160 q 238 260 195 231 q 329 316 281 290 q 424 368 376 342 q 515 425 472 393 q 591 495 558 457 q 644 586 625 532 q 664 706 664 640 q 607 897 664 824 q 447 970 549 970 q 298 904 355 970 q 242 745 242 839 q 262 667 242 705 q 317 629 283 629 q 395 677 361 629 l 410 669 q 355 618 391 637 q 275 600 318 600 q 194 613 229 600 q 139 649 159 626 q 111 697 120 671 q 101 752 101 724 q 190 925 101 864 q 447 986 278 986 q 615 964 544 986 q 727 902 686 941 q 786 813 767 862 q 805 706 805 765 q 777 577 805 635 q 702 479 749 519 q 597 405 655 439 q 473 342 538 372 q 349 285 408 313 q 236 220 290 257 q 151 141 182 183 l 628 141 q 746 188 705 141 q 788 296 788 234 l 805 296 l 805 141 z "},"3":{"ha":945,"x_min":90,"x_max":853,"o":"m 853 260 q 750 52 853 125 q 457 -22 648 -22 q 188 39 286 -22 q 90 212 90 101 q 100 266 90 240 q 129 315 109 292 q 183 351 148 338 q 264 364 218 364 q 343 345 307 364 q 398 295 380 326 l 384 286 q 307 335 349 335 q 252 297 272 335 q 231 219 231 259 q 297 60 231 127 q 457 -6 363 -6 q 649 66 585 -6 q 712 254 712 138 q 652 439 712 378 q 486 479 593 500 q 355 468 420 468 l 355 484 q 451 494 407 484 q 525 521 494 505 q 579 561 555 538 q 617 608 603 584 q 641 660 632 633 q 654 711 650 688 q 657 756 657 734 q 464 970 657 970 q 321 905 373 970 q 269 745 269 841 q 290 667 269 705 q 345 629 310 629 q 422 677 387 629 l 436 669 q 381 618 418 637 q 302 600 345 600 q 234 608 264 600 q 185 632 204 617 q 152 667 165 647 q 134 708 139 687 q 128 752 128 729 q 212 925 128 865 q 464 986 296 986 q 798 756 798 986 q 742 608 798 673 q 586 505 686 542 q 779 441 705 504 q 853 260 853 378 z "},"4":{"ha":888,"x_min":61,"x_max":797,"o":"m 797 155 l 685 155 l 685 65 q 712 27 685 39 q 797 16 739 16 l 797 0 l 432 0 l 432 16 q 517 27 490 16 q 544 65 544 39 l 544 155 l 288 155 q 85 265 110 155 q 191 570 61 374 q 234 635 220 614 q 277 699 248 657 q 324 763 306 741 q 370 821 342 786 q 420 876 399 856 q 470 920 441 896 q 522 956 498 944 q 574 977 547 968 q 629 986 602 986 q 736 945 690 986 q 781 823 781 904 q 762 744 781 781 q 712 690 743 708 l 704 704 q 753 781 753 739 q 715 836 753 816 q 637 857 677 857 q 503 838 564 857 q 390 780 441 819 q 295 692 338 742 q 208 570 252 642 q 141 437 158 492 q 139 352 124 382 q 191 309 155 322 q 288 296 227 296 l 544 296 l 544 694 l 685 640 l 685 296 l 730 296 l 797 155 z "},"5":{"ha":936,"x_min":86,"x_max":847,"o":"m 847 325 q 748 74 847 170 q 483 -22 648 -22 q 318 -9 389 -22 q 203 27 246 5 q 133 80 160 49 q 96 143 106 112 q 86 212 86 175 q 96 266 86 240 q 124 315 105 292 q 179 351 144 338 q 260 364 214 364 q 339 345 303 364 q 394 295 376 326 l 380 286 q 302 335 345 335 q 248 297 268 335 q 227 219 227 259 q 283 57 227 120 q 453 -6 338 -6 q 554 14 509 -6 q 628 65 600 34 q 674 138 656 96 q 701 220 693 180 q 708 301 708 260 q 683 445 708 381 q 612 547 659 508 q 504 603 566 587 q 361 607 441 620 q 193 553 281 595 l 193 553 l 182 547 q 179 546 180 547 q 176 545 178 545 l 176 545 l 226 964 l 720 964 l 720 667 l 704 667 q 662 776 704 730 q 544 823 621 823 l 225 823 l 196 571 q 370 634 283 616 q 526 643 456 652 q 657 606 596 634 q 759 534 718 577 q 824 436 800 490 q 847 325 847 382 z "},"6":{"ha":912,"x_min":96,"x_max":817,"o":"m 786 455 q 801 422 786 455 q 817 311 817 390 q 786 168 817 233 q 704 62 755 103 q 589 0 652 22 q 456 -22 525 -22 q 324 0 388 -22 q 209 62 260 22 q 126 168 157 103 q 96 311 96 233 q 103 539 96 442 q 128 713 111 636 q 174 841 146 791 q 244 924 201 891 q 342 972 287 958 q 472 986 397 986 q 594 973 538 986 q 687 938 650 960 q 750 889 724 916 q 788 833 777 861 q 800 777 800 804 q 764 682 800 714 q 685 649 729 649 q 576 674 625 649 q 510 724 528 699 l 523 736 q 562 711 538 721 q 608 702 586 702 q 658 723 640 702 q 676 779 676 744 q 628 913 676 857 q 492 970 580 970 q 420 962 453 970 q 363 942 387 954 q 320 909 339 929 q 288 867 300 888 q 265 817 275 846 q 251 762 256 787 q 242 702 245 736 q 238 642 239 668 q 237 581 237 616 q 456 646 334 646 q 589 624 525 646 q 704 561 652 602 q 786 455 755 519 m 376 15 q 396 4 376 15 q 456 -6 415 -6 q 537 15 498 -6 q 607 75 576 36 q 657 175 638 113 q 675 311 675 237 q 657 448 675 386 q 607 548 638 509 q 537 608 576 587 q 456 629 498 629 q 376 608 415 629 q 306 548 337 587 q 256 448 275 509 q 237 311 237 386 q 256 175 237 237 q 306 75 275 113 q 376 15 337 36 z "},"7":{"ha":718,"x_min":90,"x_max":645,"o":"m 277 64 q 303 27 277 38 q 388 16 330 16 l 388 0 l 135 0 q 155 178 135 94 q 208 325 174 261 q 281 443 241 388 q 369 547 322 498 q 456 638 415 595 q 536 729 498 681 q 596 823 574 777 l 267 823 q 148 776 190 823 q 106 667 106 730 l 90 667 l 90 964 l 645 964 q 626 832 645 892 q 576 727 607 772 q 508 638 545 682 q 432 542 471 594 q 361 427 394 489 q 305 272 328 366 q 277 64 282 178 z "},"8":{"ha":941,"x_min":93,"x_max":848,"o":"m 848 238 q 752 48 848 119 q 466 -22 656 -22 q 186 53 279 -22 q 93 267 93 129 q 109 366 93 320 q 154 443 125 411 q 215 497 183 475 q 286 535 248 519 q 135 745 135 629 q 217 922 135 857 q 466 986 300 986 q 727 932 638 986 q 815 753 815 878 q 765 608 815 673 q 642 505 714 542 q 798 374 748 443 q 848 238 848 306 m 624 914 q 598 942 624 914 q 466 970 573 970 q 317 929 359 970 q 276 808 276 889 q 319 679 276 730 q 466 587 362 627 q 604 526 542 559 q 656 620 638 557 q 674 767 674 683 q 624 914 674 859 m 466 -6 q 707 176 707 -6 q 697 257 707 222 q 660 325 686 292 q 586 387 633 358 q 466 446 538 416 q 328 511 387 478 q 259 393 283 473 q 234 205 234 314 q 466 -6 234 -6 z "},"9":{"ha":912,"x_min":94,"x_max":815,"o":"m 125 509 q 110 541 125 509 q 94 652 94 574 q 125 796 94 731 q 208 901 156 861 q 323 964 259 942 q 455 986 387 986 q 587 964 524 986 q 702 901 651 942 q 784 796 753 861 q 815 652 815 731 q 808 425 815 522 q 783 250 800 328 q 737 123 765 173 q 667 39 709 73 q 569 -8 625 6 q 439 -22 514 -22 q 291 -2 357 -22 q 188 50 226 18 q 131 117 150 81 q 111 186 111 152 q 146 282 111 250 q 227 315 182 315 q 335 290 286 315 q 401 239 383 265 l 389 229 q 350 253 374 243 q 303 262 326 262 q 253 241 271 262 q 235 185 235 220 q 283 50 235 106 q 419 -6 331 -6 q 508 6 469 -6 q 574 39 548 19 q 619 91 600 59 q 649 154 638 123 q 665 228 659 184 q 672 304 671 271 q 674 382 674 337 q 455 319 579 319 q 323 341 387 319 q 208 404 259 363 q 125 509 156 444 m 535 949 q 516 959 535 949 q 455 970 496 970 q 375 949 414 970 q 304 889 336 928 q 254 789 273 850 q 235 652 235 727 q 254 516 235 578 q 304 416 273 454 q 375 356 336 377 q 455 335 414 335 q 535 356 496 335 q 606 416 574 377 q 655 516 637 454 q 674 652 674 578 q 655 789 674 727 q 606 889 637 850 q 535 949 574 928 z "},"\u0000":{"ha":0,"x_min":0,"x_max":0,"o":""},"\n":{"ha":0,"x_min":0,"x_max":0,"o":""},"\r":{"ha":0,"x_min":0,"x_max":0,"o":""}," ":{"ha":643,"x_min":0,"x_max":0,"o":""},"!":{"ha":338,"x_min":98,"x_max":240,"o":"m 240 48 q 240 34 240 48 q 219 -1 240 20 q 169 -22 198 -22 q 119 -1 140 -22 q 98 48 98 20 q 119 98 98 77 q 169 119 140 119 q 219 98 198 119 q 240 48 240 77 m 178 153 l 161 153 q 155 299 161 240 q 140 400 149 358 q 123 492 132 441 q 107 644 114 543 q 99 893 100 745 q 119 943 99 922 q 170 964 140 964 q 219 943 199 964 q 239 893 239 923 q 231 642 238 744 q 216 489 224 539 q 198 397 207 438 q 183 298 189 357 q 178 153 178 239 z "},"\"":{"ha":465,"x_min":68,"x_max":395,"o":"m 138 986 q 186 969 163 986 q 210 916 210 951 q 190 837 210 880 q 151 769 170 794 l 130 744 l 117 754 q 144 800 137 780 q 147 832 152 821 q 127 846 142 843 q 84 870 101 850 q 68 916 68 890 q 86 965 68 943 q 138 986 104 986 m 325 986 q 372 969 349 986 q 395 916 395 951 q 375 837 395 880 q 336 769 355 794 l 316 744 l 302 754 q 330 800 323 780 q 333 832 338 821 q 313 846 328 843 q 270 870 287 850 q 254 916 254 890 q 272 965 254 943 q 325 986 291 986 z "},"“":{"ha":465,"x_min":68,"x_max":395,"o":"m 138 986 q 186 969 163 986 q 210 916 210 951 q 190 837 210 880 q 151 769 170 794 l 130 744 l 117 754 q 144 800 137 780 q 147 832 152 821 q 127 846 142 843 q 84 870 101 850 q 68 916 68 890 q 86 965 68 943 q 138 986 104 986 m 325 986 q 372 969 349 986 q 395 916 395 951 q 375 837 395 880 q 336 769 355 794 l 316 744 l 302 754 q 330 800 323 780 q 333 832 338 821 q 313 846 328 843 q 270 870 287 850 q 254 916 254 890 q 272 965 254 943 q 325 986 291 986 z "},"”":{"ha":465,"x_min":68,"x_max":395,"o":"m 138 986 q 186 969 163 986 q 210 916 210 951 q 190 837 210 880 q 151 769 170 794 l 130 744 l 117 754 q 144 800 137 780 q 147 832 152 821 q 127 846 142 843 q 84 870 101 850 q 68 916 68 890 q 86 965 68 943 q 138 986 104 986 m 325 986 q 372 969 349 986 q 395 916 395 951 q 375 837 395 880 q 336 769 355 794 l 316 744 l 302 754 q 330 800 323 780 q 333 832 338 821 q 313 846 328 843 q 270 870 287 850 q 254 916 254 890 q 272 965 254 943 q 325 986 291 986 z "},"#":{"ha":764,"x_min":78,"x_max":686,"o":"m 686 610 l 585 610 l 555 396 l 648 396 l 648 379 l 553 379 l 526 182 l 385 182 l 412 379 l 326 379 l 298 182 l 157 182 l 184 379 l 78 379 l 78 396 l 186 396 l 216 610 l 124 610 l 124 627 l 219 627 l 240 782 l 381 782 l 360 627 l 446 627 l 467 782 l 608 782 l 587 627 l 686 627 l 686 610 m 414 396 l 444 610 l 357 610 l 328 396 l 414 396 z "},"$":{"ha":1018,"x_min":89,"x_max":929,"o":"m 546 572 q 667 523 615 546 q 770 467 718 499 q 855 403 822 435 q 908 328 888 370 q 929 238 929 286 q 818 44 929 111 q 507 -22 707 -22 q 203 40 318 -22 q 89 208 89 102 q 138 308 89 271 q 255 345 187 345 q 359 296 321 345 l 347 286 q 270 324 310 324 q 220 296 240 324 q 200 235 200 268 q 275 71 200 137 q 472 -5 350 4 l 472 460 q 361 509 408 487 q 268 559 314 532 q 194 612 222 586 q 148 670 165 639 q 131 736 131 702 q 232 921 131 856 q 507 986 332 986 q 642 977 580 986 q 754 948 704 967 q 833 895 804 928 q 861 818 861 862 q 818 742 861 771 q 711 713 774 713 q 589 777 626 713 l 603 785 q 673 736 637 736 q 726 751 709 736 q 743 801 743 765 q 695 914 743 868 q 546 968 648 960 l 546 572 m 472 601 l 472 968 q 325 915 377 961 q 272 798 272 869 q 322 687 272 733 q 472 601 373 641 m 530 -5 l 530 437 q 518 441 526 438 q 507 446 510 444 q 498 450 504 448 q 488 454 492 452 l 488 -5 q 497 -6 491 -5 q 507 -6 503 -6 q 518 -6 511 -6 q 530 -5 526 -5 m 530 578 l 530 969 q 518 969 526 969 q 507 970 511 970 q 497 969 503 970 q 488 969 491 969 l 488 594 q 497 591 491 593 q 507 587 503 589 q 518 583 511 586 q 530 578 526 580 m 546 -5 q 725 54 661 3 q 788 176 788 104 q 771 259 788 221 q 719 327 753 296 q 644 382 685 358 q 546 430 603 406 l 546 -5 z "},"%":{"ha":980,"x_min":79,"x_max":901,"o":"m 707 964 l 724 964 l 314 0 l 297 0 l 707 964 m 666 964 l 683 964 l 273 0 l 256 0 l 666 964 m 438 924 q 469 893 438 924 q 500 776 500 863 q 438 627 500 689 q 290 566 376 566 q 141 627 203 566 q 79 776 79 689 q 141 924 79 863 q 290 986 203 986 q 438 924 376 986 m 241 913 q 231 884 241 913 q 220 776 220 856 q 241 639 220 696 q 290 582 261 582 q 338 639 318 582 q 359 776 359 696 q 338 913 359 856 q 290 970 318 970 q 241 913 261 970 m 542 336 q 573 367 542 336 q 690 398 604 398 q 839 336 777 398 q 901 188 901 275 q 839 39 901 101 q 690 -22 777 -22 q 542 39 604 -22 q 480 188 480 101 q 542 336 480 275 m 642 51 q 652 22 642 51 q 690 -6 662 -6 q 739 51 719 -6 q 760 188 760 108 q 739 325 760 268 q 690 382 719 382 q 642 325 662 382 q 621 188 621 268 q 642 51 621 108 z "},"&":{"ha":1114,"x_min":89,"x_max":1039,"o":"m 1033 577 q 1034 521 1039 545 q 1010 479 1029 497 q 968 449 991 460 q 916 430 945 437 q 797 426 882 422 q 646 434 713 429 q 519 427 579 438 q 439 381 469 414 q 422 298 410 347 q 475 236 432 258 q 568 214 517 214 q 701 269 660 214 q 718 342 729 306 q 672 376 705 374 q 634 367 648 376 q 602 331 621 357 l 587 340 q 610 371 599 359 l 613 374 q 633 389 619 380 q 640 393 637 392 q 643 395 641 394 q 647 397 646 396 q 703 408 672 408 q 829 362 785 408 q 872 256 872 317 q 847 150 872 201 q 775 61 821 100 q 659 0 729 23 q 507 -22 589 -22 q 297 20 393 -22 q 145 141 202 63 q 89 315 89 218 q 111 435 89 380 q 170 524 133 489 q 249 581 207 559 q 336 612 290 603 q 226 683 264 637 q 187 788 187 728 q 269 935 187 883 q 490 986 351 986 q 593 976 548 986 q 666 949 639 966 q 712 912 694 933 q 737 870 730 890 q 744 827 744 849 q 707 747 744 778 q 611 717 670 717 q 532 736 568 717 q 477 786 496 755 l 492 795 q 569 746 526 746 q 611 774 597 746 q 625 840 625 803 q 618 883 625 861 q 596 924 611 904 q 554 957 581 945 q 490 970 526 970 q 420 953 452 970 q 369 909 389 936 q 339 851 349 882 q 328 788 328 819 q 494 606 328 606 l 494 589 q 380 600 429 589 q 273 507 317 589 q 230 309 230 424 q 263 152 230 223 q 360 37 296 81 q 507 -6 425 -6 q 598 11 555 -6 q 677 61 642 28 q 733 146 713 94 q 754 264 754 199 q 749 300 754 278 q 684 228 730 258 q 571 198 637 198 q 488 211 528 198 q 412 256 448 224 q 366 337 377 289 q 387 448 350 400 q 498 514 424 496 q 599 524 543 525 q 701 517 656 524 q 800 509 745 510 q 895 517 854 507 q 960 555 935 527 q 977 616 985 583 q 939 660 968 648 q 872 666 910 671 l 868 682 q 971 663 922 695 q 1033 577 1020 630 z "},"'":{"ha":279,"x_min":68,"x_max":210,"o":"m 138 986 q 186 969 163 986 q 210 916 210 951 q 190 837 210 880 q 151 769 170 794 l 130 744 l 117 754 q 144 800 137 780 q 147 832 152 821 q 127 846 142 843 q 84 870 101 850 q 68 916 68 890 q 86 965 68 943 q 138 986 104 986 z "},"‘":{"ha":279,"x_min":68,"x_max":210,"o":"m 138 986 q 186 969 163 986 q 210 916 210 951 q 190 837 210 880 q 151 769 170 794 l 130 744 l 117 754 q 144 800 137 780 q 147 832 152 821 q 127 846 142 843 q 84 870 101 850 q 68 916 68 890 q 86 965 68 943 q 138 986 104 986 z "},"’":{"ha":279,"x_min":68,"x_max":210,"o":"m 138 986 q 186 969 163 986 q 210 916 210 951 q 190 837 210 880 q 151 769 170 794 l 130 744 l 117 754 q 144 800 137 780 q 147 832 152 821 q 127 846 142 843 q 84 870 101 850 q 68 916 68 890 q 86 965 68 943 q 138 986 104 986 z "},"(":{"ha":349,"x_min":100,"x_max":296,"o":"m 296 970 q 258 962 275 970 q 229 938 241 955 q 207 900 216 921 q 191 845 197 878 q 180 777 184 811 q 174 692 176 742 q 172 595 172 642 q 171 482 171 548 q 171 369 171 412 q 173 273 172 327 q 179 187 175 218 q 188 120 182 156 q 203 64 194 83 q 225 26 212 44 q 256 1 239 8 q 296 -6 274 -6 l 296 -22 q 223 -8 255 -22 q 171 36 192 5 q 135 106 149 66 q 113 206 121 146 q 103 330 106 266 q 100 482 100 395 q 105 661 100 585 q 124 801 111 737 q 159 904 137 864 q 216 965 182 943 q 296 986 250 986 l 296 970 z "},")":{"ha":350,"x_min":53,"x_max":249,"o":"m 53 986 q 125 972 94 986 q 178 928 157 958 q 214 858 200 897 q 236 758 228 818 q 246 634 243 698 q 249 482 249 570 q 240 264 249 353 q 210 108 231 175 q 149 9 188 41 q 53 -22 111 -22 l 53 -6 q 91 1 74 -6 q 121 26 108 9 q 143 64 134 43 q 158 119 152 85 q 169 188 165 153 q 175 272 173 222 q 178 369 177 322 q 178 482 178 416 q 178 595 178 553 q 176 692 178 637 q 171 777 174 746 q 161 845 167 808 q 146 900 155 881 q 124 938 137 920 q 93 963 111 956 q 53 970 75 970 l 53 986 z "},"*":{"ha":629,"x_min":78,"x_max":550,"o":"m 550 801 q 497 754 550 766 q 334 742 445 743 q 385 695 364 713 q 422 668 406 677 q 451 659 439 659 q 472 669 463 660 q 454 724 491 688 l 464 737 q 490 710 479 722 q 511 684 501 698 q 524 660 520 671 q 527 638 528 649 q 517 619 526 627 q 447 624 493 595 q 322 730 400 652 q 333 614 323 648 q 369 581 343 581 q 389 592 382 581 q 395 632 395 604 l 411 635 q 410 588 411 608 q 404 550 408 568 q 389 523 399 532 q 365 513 379 513 q 318 566 330 513 q 306 730 307 619 q 259 679 277 700 q 232 642 241 659 q 223 613 222 625 q 233 592 224 602 q 288 610 252 573 l 301 600 q 274 574 286 585 q 248 553 262 563 q 224 540 235 544 q 202 537 213 536 q 183 547 191 538 q 188 617 159 571 q 294 741 216 663 q 178 731 212 741 q 145 695 145 721 q 156 675 145 682 q 196 669 168 669 l 199 653 q 152 654 172 653 q 114 661 132 656 q 87 675 96 665 q 78 699 78 684 q 131 745 78 733 q 294 758 184 758 q 243 805 264 787 q 205 832 222 823 q 177 841 189 842 q 156 831 165 840 q 174 777 137 812 l 164 762 q 138 789 149 777 q 117 815 127 802 q 104 840 108 829 q 101 862 100 851 q 111 881 102 873 q 181 877 135 905 q 306 770 227 848 q 295 885 305 852 q 259 919 285 919 q 239 908 245 919 q 233 868 233 897 l 217 865 q 218 911 217 892 q 224 949 220 931 q 239 977 229 967 q 263 986 249 986 q 310 933 298 986 q 322 770 321 880 q 396 858 380 829 q 395 908 412 888 q 340 890 376 927 l 327 900 q 354 926 342 915 q 380 947 366 937 q 404 960 393 956 q 426 962 415 964 q 445 953 437 961 q 441 882 469 928 q 334 758 412 836 q 450 769 417 759 q 483 804 483 779 q 472 825 483 819 q 432 831 460 831 l 429 847 q 490 845 466 848 q 532 831 515 842 q 550 801 550 820 z "},"+":{"ha":500,"x_min":75,"x_max":424,"o":"m 320 553 l 424 553 l 424 412 l 320 412 l 320 307 l 179 307 l 179 412 l 75 412 l 75 553 l 179 553 l 179 656 l 320 656 l 320 553 z "},",":{"ha":264,"x_min":61,"x_max":202,"o":"m 132 119 q 179 101 156 119 q 202 48 202 84 q 182 -31 202 12 q 142 -98 163 -73 l 123 -123 l 110 -113 q 138 -67 130 -87 q 140 -36 145 -47 q 120 -22 135 -24 q 78 3 94 -17 q 61 49 61 23 q 79 97 61 76 q 132 119 98 119 z "},"-":{"ha":477,"x_min":64,"x_max":413,"o":"m 413 412 l 64 412 l 64 553 l 413 553 l 413 412 z "},".":{"ha":261,"x_min":54,"x_max":206,"o":"m 152 -20 q 98 -15 124 -28 q 63 26 73 -2 q 67 79 54 54 q 109 115 81 105 q 162 110 136 123 q 197 69 188 97 q 193 16 206 41 q 152 -20 180 -10 z "},"/":{"ha":579,"x_min":66,"x_max":511,"o":"m 441 964 l 511 964 l 137 0 l 66 0 l 441 964 z "},":":{"ha":292,"x_min":69,"x_max":222,"o":"m 171 229 q 117 230 143 218 q 80 269 90 242 q 82 323 70 297 q 121 360 94 350 q 175 358 149 370 q 212 319 201 347 q 210 265 222 292 q 171 229 198 239 m 212 628 q 207 614 212 628 q 175 588 201 600 q 121 586 149 576 q 81 623 94 597 q 80 677 69 650 q 117 717 90 705 q 170 719 143 729 q 210 682 197 708 q 212 628 222 655 z "},";":{"ha":301,"x_min":74,"x_max":226,"o":"m 175 587 q 121 589 147 577 q 84 628 94 601 q 86 682 74 656 q 125 719 98 709 q 179 717 153 729 q 216 678 205 705 q 214 624 226 650 q 175 587 202 597 m 151 365 q 199 347 176 365 q 222 294 222 330 q 202 215 222 258 q 162 148 182 172 l 142 123 l 129 132 q 157 178 149 158 q 160 210 165 199 q 140 224 155 222 q 97 249 114 229 q 81 294 81 269 q 99 343 81 322 q 151 365 117 365 z "},"<":{"ha":598,"x_min":69,"x_max":519,"o":"m 519 766 l 519 625 l 184 420 l 518 214 l 518 197 l 69 473 l 69 490 l 519 766 z "},"=":{"ha":643,"x_min":77,"x_max":566,"o":"m 566 304 l 77 304 l 77 446 l 566 446 l 566 304 m 566 518 l 77 518 l 77 660 l 566 660 l 566 518 z "},">":{"ha":598,"x_min":79,"x_max":528,"o":"m 79 766 l 528 490 l 528 473 l 79 197 l 79 214 l 414 420 l 79 625 l 79 766 z "},"?":{"ha":866,"x_min":78,"x_max":781,"o":"m 423 986 q 591 964 520 986 q 703 902 663 941 q 762 813 743 862 q 781 706 781 765 q 768 591 781 640 q 731 512 754 542 q 678 461 708 482 q 615 425 648 439 q 550 397 583 411 q 487 366 517 384 q 434 322 457 347 q 397 254 411 296 q 384 153 384 211 l 368 153 q 377 258 368 214 q 402 329 387 303 q 438 374 418 355 q 481 406 458 393 q 527 432 504 418 q 570 465 549 445 q 606 514 590 486 q 631 592 621 543 q 640 706 640 640 q 583 897 640 824 q 423 970 526 970 q 275 905 331 970 q 219 745 219 840 q 239 667 219 705 q 294 629 260 629 q 372 677 337 629 l 386 669 q 331 618 368 637 q 252 600 294 600 q 184 608 214 600 q 135 632 154 617 q 102 667 115 647 q 83 708 89 687 q 78 752 78 729 q 166 925 78 864 q 423 986 254 986 m 388 -21 q 335 -10 359 -26 q 306 36 311 7 q 318 89 301 65 q 363 118 334 113 q 416 106 393 123 q 445 60 439 90 q 434 7 450 31 q 388 -21 417 -16 z "},"@":{"ha":1190,"x_min":90,"x_max":1099,"o":"m 341 919 q 400 952 341 919 q 595 986 458 986 q 848 919 732 986 q 1031 735 964 851 q 1099 482 1099 619 q 1071 317 1099 396 q 1001 184 1043 237 q 909 99 958 131 q 815 67 859 67 q 680 118 724 67 q 628 266 636 170 q 474 195 587 195 q 256 282 324 195 q 187 546 188 370 q 266 804 186 709 q 473 898 345 898 q 626 830 585 898 l 671 876 l 766 876 l 878 876 l 878 860 q 792 849 819 860 q 766 811 766 838 l 766 320 q 768 243 766 273 q 774 182 769 212 q 787 136 779 153 q 810 109 795 119 q 846 98 825 98 q 918 127 878 98 q 995 205 958 156 q 1057 328 1032 254 q 1082 482 1082 402 q 1044 672 1082 581 q 940 827 1005 762 q 784 931 875 892 q 595 970 694 970 q 405 931 496 970 q 249 827 315 892 q 145 672 184 762 q 106 482 106 581 q 145 293 106 383 q 249 137 184 202 q 405 33 315 71 q 595 -6 496 -6 q 795 37 701 -6 l 810 26 q 595 -22 710 -22 q 399 18 492 -22 q 238 125 305 58 q 130 286 170 193 q 90 482 90 380 q 158 735 90 619 q 341 919 225 851 m 625 317 l 625 320 l 625 777 q 589 849 625 818 q 500 881 553 881 q 328 547 328 881 q 502 212 328 212 q 590 244 554 212 q 625 317 625 276 z "},"A":{"ha":957,"x_min":-7,"x_max":962,"o":"m 201 155 q 220 52 176 88 q 358 16 264 16 l 358 0 l -7 0 l -7 16 q 113 49 68 16 q 184 152 157 81 l 184 155 l 184 155 q 192 174 189 168 l 489 964 l 506 964 l 844 65 q 880 26 855 36 q 962 16 904 16 l 962 0 l 597 0 l 597 16 q 686 27 659 16 q 703 65 713 37 l 595 351 q 581 324 591 340 q 517 279 559 293 q 430 261 475 264 q 339 251 384 257 q 256 222 294 245 q 201 155 218 199 m 531 521 l 435 777 l 227 222 q 287 257 251 245 q 359 273 323 269 q 429 282 394 277 q 495 304 464 288 q 546 351 526 320 q 531 521 576 399 z "},"B":{"ha":987,"x_min":22,"x_max":964,"o":"m 22 16 q 107 27 81 16 q 134 65 134 39 l 134 899 q 107 936 134 925 q 22 947 81 947 l 22 964 l 134 964 q 272 975 156 964 q 458 986 387 986 q 594 970 534 986 q 691 931 654 955 q 753 874 728 907 q 787 810 778 842 q 797 747 797 779 q 779 662 797 701 q 731 598 761 624 q 662 551 701 572 q 579 511 623 529 q 493 475 536 493 q 411 435 450 457 q 341 386 372 413 q 293 320 311 359 q 275 232 275 281 q 357 63 275 132 q 568 -6 438 -6 q 754 67 686 -6 q 823 250 823 140 q 770 414 823 347 q 625 482 718 482 l 625 498 q 872 436 781 498 q 964 258 964 374 q 911 105 964 170 q 770 9 859 41 q 568 -22 682 -22 q 384 23 461 -22 q 275 144 306 68 l 275 0 l 22 0 l 22 16 m 656 747 q 643 824 656 786 q 603 895 629 861 q 527 949 576 928 q 416 970 479 970 q 275 959 382 970 l 275 335 q 320 409 290 376 q 384 463 349 441 q 457 503 418 484 q 530 543 495 522 q 593 589 565 564 q 639 655 622 615 q 656 747 656 695 z "},"C":{"ha":871,"x_min":40,"x_max":845,"o":"m 505 -22 q 324 18 410 -22 q 176 125 238 58 q 77 286 114 193 q 40 482 40 380 q 79 678 40 585 q 183 839 118 772 q 336 946 248 906 q 519 986 425 986 q 657 962 593 986 q 762 889 721 938 q 802 777 802 841 q 767 694 802 728 q 673 661 732 661 q 607 677 638 661 q 558 724 576 693 l 572 732 q 650 684 607 684 q 697 716 681 684 q 713 777 713 748 q 701 844 713 810 q 667 906 690 877 q 606 952 644 935 q 519 970 568 970 q 354 905 431 970 q 229 727 276 840 q 182 482 182 614 q 225 237 182 350 q 342 59 268 125 q 505 -6 417 -6 q 696 56 611 -6 q 831 221 781 117 l 845 214 q 712 44 800 111 q 505 -22 625 -22 z "},"D":{"ha":1005,"x_min":22,"x_max":959,"o":"m 494 986 q 662 959 585 986 q 793 885 739 932 q 885 773 847 838 q 941 636 923 709 q 959 482 959 562 q 942 323 959 397 q 889 184 925 248 q 800 75 853 121 q 671 3 747 29 q 502 -22 595 -22 q 350 -3 404 -22 q 275 56 296 16 l 275 0 l 22 0 l 22 16 q 107 27 81 16 q 134 65 134 39 l 134 899 q 107 936 134 925 q 22 947 81 947 l 22 964 l 134 964 q 301 975 159 964 q 494 986 443 986 m 471 -6 q 605 19 546 -6 q 704 88 665 44 q 769 194 743 132 q 807 328 795 256 q 818 482 818 399 q 772 729 818 617 q 644 905 727 840 q 458 970 562 970 q 275 958 416 970 l 275 140 q 327 30 275 66 q 471 -6 379 -6 z "},"E":{"ha":795,"x_min":22,"x_max":754,"o":"m 22 16 q 107 27 81 16 q 134 65 134 39 l 134 899 q 107 936 134 925 q 22 947 81 947 l 22 964 l 711 964 l 711 711 l 695 711 q 690 786 695 754 q 671 850 686 819 q 632 902 656 882 q 565 935 607 922 q 466 947 523 947 l 275 947 l 275 459 q 379 584 306 540 q 398 595 383 586 q 417 606 414 604 q 433 616 420 608 q 449 628 446 625 q 461 640 452 631 q 472 654 470 648 q 480 670 475 660 q 487 690 486 680 q 491 712 489 699 q 492 739 492 724 l 509 739 l 509 355 l 492 355 q 492 405 492 387 q 491 448 492 423 q 489 487 490 473 q 484 517 487 500 q 475 543 480 534 q 464 561 471 552 q 448 572 457 569 q 426 576 438 576 q 355 545 393 576 q 296 467 317 513 q 275 370 275 421 l 275 16 l 508 16 q 607 29 565 16 q 674 61 649 41 q 713 113 699 81 q 732 177 728 145 q 737 253 737 210 l 754 253 l 754 0 l 22 0 l 22 16 z "},"F":{"ha":730,"x_min":22,"x_max":711,"o":"m 22 16 q 107 27 81 16 q 134 65 134 39 l 134 899 q 107 936 134 925 q 22 947 81 947 l 22 964 l 711 964 l 711 711 l 695 711 q 690 786 695 754 q 671 850 686 819 q 632 902 656 882 q 565 935 607 922 q 466 947 523 947 l 275 947 l 275 459 q 379 584 306 540 q 398 595 383 586 q 417 606 414 604 q 433 616 420 608 q 449 628 446 625 q 461 640 452 631 q 472 654 470 648 q 480 670 475 660 q 487 690 486 680 q 491 712 489 699 q 492 739 492 724 l 509 739 l 509 355 l 492 355 q 492 405 492 387 q 491 448 492 423 q 489 487 490 473 q 484 517 487 500 q 475 543 480 534 q 464 561 471 552 q 448 572 457 569 q 426 576 438 576 q 355 545 393 576 q 275 371 277 476 l 275 65 q 302 27 275 39 q 387 16 329 16 l 387 0 l 22 0 l 22 16 z "},"G":{"ha":897,"x_min":43,"x_max":840,"o":"m 652 684 q 700 716 684 684 q 715 777 715 748 q 704 844 715 810 q 670 906 692 877 q 609 952 647 935 q 522 970 570 970 q 356 905 434 970 q 232 727 279 840 q 184 482 184 614 q 216 236 184 346 q 313 60 248 127 q 464 -6 377 -6 q 632 56 566 -6 q 699 214 699 118 l 699 362 q 672 400 699 389 q 587 411 645 411 l 587 427 l 840 427 l 840 0 l 823 0 q 787 88 823 52 q 699 125 751 125 q 611 17 673 57 q 464 -22 548 -22 q 242 46 339 -22 q 94 228 145 114 q 43 482 43 342 q 82 678 43 585 q 186 839 121 772 q 339 946 251 906 q 522 986 427 986 q 660 961 595 986 q 764 887 724 936 q 805 777 805 838 q 770 694 805 728 q 676 661 734 661 q 610 677 641 661 q 561 724 578 693 l 575 732 q 652 684 610 684 z "},"H":{"ha":1027,"x_min":22,"x_max":1004,"o":"m 22 16 q 107 27 81 16 q 134 65 134 39 l 134 899 q 107 936 134 925 q 22 947 81 947 l 22 964 l 387 964 l 387 947 q 302 936 329 947 q 275 899 275 925 l 275 406 q 513 490 357 490 q 751 758 751 490 l 751 899 q 725 936 751 925 q 640 947 699 947 l 640 964 l 1004 964 l 1004 947 q 920 936 946 947 q 893 899 893 925 l 893 65 q 920 27 893 39 q 1004 16 946 16 l 1004 0 l 640 0 l 640 16 q 725 27 699 16 q 751 65 751 39 l 751 558 q 513 473 669 473 q 275 207 275 473 l 275 65 q 302 27 275 39 q 387 16 329 16 l 387 0 l 22 0 l 22 16 z "},"I":{"ha":410,"x_min":22,"x_max":387,"o":"m 22 16 q 107 27 81 16 q 134 65 134 39 l 134 899 q 107 936 134 925 q 22 947 81 947 l 22 964 l 387 964 l 387 947 q 302 936 329 947 q 275 899 275 925 l 275 65 q 302 27 275 39 q 387 16 329 16 l 387 0 l 22 0 l 22 16 z "},"J":{"ha":709,"x_min":12,"x_max":694,"o":"m 165 256 q 119 225 137 256 q 102 163 102 195 q 147 43 102 93 q 272 -6 192 -6 q 343 8 314 -6 q 392 51 372 23 q 422 126 411 78 q 437 233 433 174 q 441 376 441 292 l 441 899 q 415 936 441 925 q 330 947 389 947 l 330 964 l 694 964 l 694 947 q 610 936 636 947 q 583 899 583 925 l 583 376 q 569 196 583 267 q 520 73 555 124 q 425 0 486 22 q 272 -22 365 -22 q 82 27 151 -22 q 12 163 12 76 q 48 245 12 211 q 142 279 83 279 q 208 262 177 279 q 257 215 239 245 l 242 207 q 165 256 208 256 z "},"K":{"ha":866,"x_min":22,"x_max":846,"o":"m 22 16 q 107 27 81 16 q 134 65 134 39 l 134 899 q 107 936 134 925 q 22 947 81 947 l 22 964 l 387 964 l 387 947 q 302 936 329 947 q 275 899 275 925 l 275 261 l 580 812 q 577 911 614 874 q 448 947 541 947 l 448 964 l 813 964 l 813 947 q 686 914 738 947 q 596 812 633 880 l 425 502 q 549 574 488 574 q 603 549 582 574 q 633 484 624 524 q 648 395 643 444 q 658 298 654 347 q 669 209 662 250 q 694 144 677 169 q 738 119 711 119 q 806 161 780 119 q 832 244 832 203 l 846 244 q 842 188 846 218 q 827 118 838 157 q 800 50 817 80 q 755 -2 783 19 q 692 -22 727 -22 q 614 6 646 -22 q 569 80 583 35 q 546 180 554 125 q 533 290 538 235 q 523 390 529 345 q 503 463 517 435 q 465 492 489 492 q 433 478 450 492 q 397 439 416 465 q 364 390 378 413 q 331 333 350 367 l 275 231 l 275 65 q 302 27 275 39 q 387 16 329 16 l 387 0 l 22 0 l 22 16 z "},"L":{"ha":718,"x_min":22,"x_max":700,"o":"m 700 253 l 700 0 l 22 0 l 22 16 q 107 27 81 16 q 134 65 134 39 l 134 899 q 107 936 134 925 q 22 947 81 947 l 22 964 l 387 964 l 387 947 q 302 936 329 947 q 275 899 275 925 l 275 16 l 454 16 q 553 29 511 16 q 620 61 595 41 q 659 113 644 81 q 679 178 673 145 q 684 253 684 210 l 700 253 z "},"M":{"ha":1255,"x_min":17,"x_max":1233,"o":"m 17 16 q 118 53 87 16 q 148 178 148 89 l 148 786 q 118 911 148 875 q 17 947 87 947 l 17 964 l 223 964 l 633 142 l 1044 964 l 1233 964 l 1233 947 q 1148 936 1175 947 q 1122 899 1122 925 l 1122 65 q 1148 27 1122 39 q 1233 16 1175 16 l 1233 0 l 869 0 l 869 16 q 954 27 927 16 q 980 65 980 39 l 980 803 l 580 0 l 563 0 l 164 800 l 164 178 q 194 53 164 89 q 295 16 224 16 l 295 0 l 17 0 l 17 16 z "},"N":{"ha":957,"x_min":17,"x_max":940,"o":"m 235 964 l 793 117 l 793 786 q 763 911 793 875 q 662 947 732 947 l 662 964 l 940 964 l 940 947 q 839 911 869 947 q 809 786 809 875 l 809 178 q 839 53 809 89 q 940 16 869 16 l 940 0 l 728 0 l 164 857 l 164 178 q 194 53 164 89 q 295 16 224 16 l 295 0 l 17 0 l 17 16 q 118 53 87 16 q 148 178 148 89 l 148 786 q 118 911 148 875 q 17 947 87 947 l 17 964 l 235 964 z "},"O":{"ha":1012,"x_min":41,"x_max":970,"o":"m 506 986 q 739 919 632 986 q 908 735 846 851 q 970 482 970 619 q 933 286 970 380 q 834 125 897 193 q 686 18 772 58 q 506 -22 600 -22 q 326 18 412 -22 q 177 125 239 58 q 78 286 115 193 q 41 482 41 380 q 78 678 41 585 q 177 839 115 772 q 326 946 239 906 q 506 986 412 986 m 344 59 q 381 27 344 59 q 506 -6 418 -6 q 668 59 593 -6 q 786 237 743 125 q 829 482 829 350 q 803 672 829 581 q 734 827 778 762 q 631 931 691 892 q 506 970 572 970 q 380 931 440 970 q 277 827 321 892 q 209 672 234 762 q 183 482 183 581 q 226 237 183 350 q 344 59 269 125 z "},"P":{"ha":916,"x_min":22,"x_max":890,"o":"m 22 16 q 107 27 81 16 q 134 65 134 39 l 134 899 q 107 936 134 925 q 22 947 81 947 l 22 964 l 134 964 q 458 986 363 986 q 780 911 669 986 q 890 692 890 836 q 787 480 890 563 q 507 397 684 397 q 341 342 406 397 q 275 211 275 288 l 275 65 q 302 27 275 39 q 387 16 329 16 l 387 0 l 22 0 l 22 16 m 749 692 q 670 894 749 819 q 458 970 591 970 q 275 960 408 970 l 275 290 q 366 380 302 347 q 507 414 429 414 q 681 489 612 414 q 749 692 749 564 z "},"Q":{"ha":1012,"x_min":41,"x_max":970,"o":"m 506 986 q 739 919 632 986 q 908 735 846 851 q 970 482 970 619 q 875 177 970 311 q 632 -3 780 42 q 728 -64 675 -65 q 788 -33 771 -63 l 802 -41 q 677 -143 741 -144 q 605 -110 637 -142 q 540 -21 573 -78 q 506 -22 517 -22 q 326 18 412 -22 q 177 125 239 58 q 78 286 115 193 q 41 482 41 380 q 78 678 41 585 q 177 839 115 772 q 326 946 239 906 q 506 986 412 986 m 506 -6 q 531 -5 515 -6 q 511 32 526 5 q 491 69 497 58 q 472 101 485 80 q 451 132 459 122 q 430 153 442 141 q 405 170 417 165 q 380 174 393 174 q 292 116 331 174 q 506 -6 384 -6 m 615 23 q 769 200 709 75 q 829 482 829 326 q 803 672 829 581 q 734 827 778 762 q 631 931 691 892 q 506 970 572 970 q 380 931 440 970 q 277 827 321 892 q 209 672 234 762 q 183 482 183 581 q 209 289 183 380 q 282 130 235 197 q 420 214 341 214 q 469 204 446 214 q 507 183 491 195 q 539 148 522 171 q 566 110 557 125 q 591 65 576 94 q 615 23 607 36 z "},"R":{"ha":986,"x_min":22,"x_max":953,"o":"m 22 16 q 107 27 81 16 q 134 65 134 39 l 134 899 q 107 936 134 925 q 22 947 81 947 l 22 964 l 134 964 q 458 986 363 986 q 780 911 669 986 q 890 692 890 836 q 824 532 890 604 q 639 424 758 459 q 690 323 662 386 q 736 221 718 261 q 783 150 754 181 q 844 119 811 119 q 912 161 886 119 q 939 244 939 203 l 953 244 q 949 188 953 218 q 934 118 945 157 q 906 50 923 80 q 862 -2 890 19 q 798 -22 833 -22 q 729 5 759 -22 q 681 83 700 33 q 648 185 662 134 q 617 303 635 237 q 584 411 600 370 q 440 397 516 397 q 340 423 380 397 q 301 482 301 449 q 338 538 301 519 q 440 557 374 557 q 618 456 544 557 q 715 551 680 490 q 749 692 749 611 q 670 894 749 819 q 458 970 591 970 q 275 960 408 970 l 275 65 q 302 27 275 39 q 387 16 329 16 l 387 0 l 22 0 l 22 16 m 440 414 q 573 435 513 414 q 440 541 524 541 q 372 525 398 541 q 347 475 347 509 q 374 428 347 443 q 440 414 401 414 z "},"S":{"ha":918,"x_min":40,"x_max":881,"o":"m 423 300 q 342 363 390 347 q 252 368 294 380 q 181 320 211 356 q 151 235 151 284 q 196 111 151 167 q 311 24 241 55 q 458 -6 381 -6 q 666 45 592 -6 q 740 176 740 97 q 720 266 740 225 q 658 338 699 306 q 571 395 617 371 q 458 446 525 420 q 250 536 301 509 q 102 667 138 595 q 83 759 83 708 q 184 925 83 864 q 458 986 286 986 q 593 977 532 986 q 705 948 655 967 q 784 895 755 928 q 812 818 812 862 q 788 739 812 772 q 726 694 763 707 q 648 683 688 682 q 572 701 608 683 q 521 748 537 719 l 535 756 q 594 716 556 726 q 663 728 631 707 q 694 801 694 750 q 637 922 694 874 q 458 970 581 970 q 286 923 348 970 q 224 798 224 876 q 283 679 224 728 q 458 587 342 631 q 553 551 512 568 q 641 512 595 534 q 720 469 687 490 q 785 422 753 448 q 837 368 817 395 q 869 307 857 340 q 881 238 881 274 q 770 44 881 111 q 458 -22 659 -22 q 254 8 349 -22 q 100 98 160 38 q 40 235 40 157 q 56 311 40 277 q 100 366 73 345 q 163 400 128 387 q 237 412 198 413 q 312 402 275 412 q 382 369 349 392 q 437 311 415 345 l 423 300 z "},"T":{"ha":766,"x_min":18,"x_max":747,"o":"m 502 947 l 454 947 l 454 65 q 480 27 454 39 q 565 16 507 16 l 565 0 l 201 0 l 201 16 q 286 27 259 16 q 312 65 312 39 l 312 947 l 264 947 q 165 935 207 947 q 98 902 123 922 q 59 850 73 882 q 39 786 44 819 q 35 711 35 754 l 18 711 l 18 964 l 747 964 l 747 711 l 731 711 q 726 786 731 754 q 707 850 722 819 q 668 902 692 882 q 601 935 643 922 q 502 947 559 947 z "},"U":{"ha":941,"x_min":14,"x_max":932,"o":"m 125 964 l 267 964 l 378 964 l 378 947 q 293 936 320 947 q 267 899 267 925 l 267 238 q 283 118 267 167 q 334 43 300 69 q 408 5 367 16 q 505 -6 449 -6 q 624 8 574 -6 q 711 55 673 22 q 766 144 748 88 q 785 282 785 201 l 785 786 q 754 911 785 875 q 654 947 724 947 l 654 964 l 932 964 l 932 947 q 832 911 862 947 q 802 786 802 875 l 802 282 q 729 51 802 125 q 504 -22 657 -22 q 125 238 125 -22 l 125 899 q 99 936 125 925 q 14 947 72 947 l 14 964 l 125 964 z "},"V":{"ha":956,"x_min":-7,"x_max":962,"o":"m 597 947 l 597 964 l 962 964 l 962 947 q 843 915 887 947 q 772 812 798 882 l 466 0 l 450 0 l 111 899 q 76 938 100 928 q -7 947 52 947 l -7 964 l 358 964 l 358 947 q 269 937 296 947 q 252 899 241 926 l 520 188 l 755 812 q 736 912 780 878 q 597 947 692 947 z "},"W":{"ha":1361,"x_min":-5,"x_max":1367,"o":"m 110 899 q 77 938 100 928 q -5 947 53 947 l -5 964 l 359 964 l 359 947 q 269 937 297 947 q 251 899 241 926 l 479 212 l 652 736 l 599 899 q 566 938 589 928 q 484 947 542 947 l 484 964 l 848 964 l 848 947 q 758 937 785 947 q 740 899 730 926 l 968 212 l 1166 812 q 1143 913 1189 879 q 1002 947 1097 947 l 1002 964 l 1367 964 l 1367 947 q 1250 915 1292 947 q 1183 812 1207 882 l 913 0 l 897 0 l 661 711 l 425 0 l 408 0 l 110 899 z "},"X":{"ha":1004,"x_min":0,"x_max":1004,"o":"m 150 0 l 0 0 l 0 16 q 231 152 143 16 l 451 494 l 190 899 l 190 899 q 142 937 172 927 q 54 947 113 947 l 54 964 l 419 964 l 419 947 q 324 917 324 947 q 331 899 324 909 l 545 567 l 706 817 q 708 912 741 876 q 586 947 675 947 l 586 964 l 951 964 l 951 947 q 720 812 808 947 l 553 554 l 869 64 l 869 65 q 916 26 887 37 q 1004 16 945 16 l 1004 0 l 640 0 l 640 16 q 734 46 734 16 q 727 65 734 54 l 459 481 l 244 147 q 242 52 209 88 q 365 16 275 16 l 365 0 l 150 0 z "},"Y":{"ha":956,"x_min":-7,"x_max":962,"o":"m 117 899 q 77 937 104 927 q -7 947 51 947 l -7 964 l 358 964 l 358 947 q 271 937 297 947 q 258 899 245 926 l 520 348 l 741 812 q 731 912 771 877 q 597 947 691 947 l 597 964 l 962 964 l 962 947 q 839 914 887 947 q 757 812 790 881 l 528 330 l 528 65 q 555 27 528 39 q 640 16 582 16 l 640 0 l 275 0 l 275 16 q 360 27 334 16 q 387 65 387 39 l 387 330 l 117 899 z "},"Z":{"ha":651,"x_min":29,"x_max":621,"o":"m 621 0 l 29 0 l 435 947 l 312 947 q 213 935 255 947 q 146 902 171 922 q 107 850 121 882 q 87 786 92 819 q 83 711 83 754 l 66 711 l 66 964 l 584 964 l 178 16 l 374 16 q 473 29 431 16 q 540 61 515 41 q 579 113 565 81 q 599 177 594 145 q 604 253 604 210 l 621 253 l 621 0 z "},"[":{"ha":347,"x_min":104,"x_max":259,"o":"m 259 941 q 193 931 212 941 q 175 893 175 920 l 175 71 q 193 33 175 44 q 259 22 212 22 l 259 0 l 104 0 l 104 964 l 259 964 l 259 941 z "},"\\":{"ha":579,"x_min":68,"x_max":513,"o":"m 138 964 l 513 0 l 442 0 l 68 964 l 138 964 z "},"]":{"ha":347,"x_min":87,"x_max":243,"o":"m 87 964 l 243 964 l 243 0 l 87 0 l 87 22 q 154 33 135 22 q 172 71 172 44 l 172 893 q 154 931 172 920 q 87 941 135 941 l 87 964 z "},"^":{"ha":697,"x_min":64,"x_max":633,"o":"m 357 986 l 633 537 l 492 537 l 286 871 l 80 537 l 64 537 l 340 986 l 357 986 z "},"_":{"ha":725,"x_min":61,"x_max":664,"o":"m 664 -22 l 61 -22 l 61 119 l 664 119 l 664 -22 z "},"a":{"ha":808,"x_min":62,"x_max":715,"o":"m 388 762 q 637 723 560 762 q 715 603 715 684 l 715 0 l 692 0 q 658 84 692 50 q 574 119 623 119 q 533 104 551 119 q 499 69 514 90 q 467 27 485 48 q 420 -8 450 7 q 351 -22 391 -22 q 245 -9 294 -22 q 153 34 195 5 q 87 114 111 62 q 62 237 62 166 q 87 354 62 302 q 153 435 111 405 q 245 480 195 465 q 351 495 295 495 q 508 523 443 495 q 574 603 574 551 q 526 709 574 673 q 367 746 477 746 q 249 719 299 746 q 199 641 199 692 q 214 587 199 611 q 262 564 229 564 q 339 612 304 564 l 353 604 q 305 557 336 573 q 239 541 274 541 q 147 564 185 541 q 109 632 109 588 q 388 762 109 762 m 574 135 l 574 554 q 490 498 547 518 q 375 479 433 479 q 249 417 294 479 q 203 237 203 356 q 375 -6 203 -6 q 424 8 402 -6 q 461 44 446 23 q 492 85 477 64 q 528 120 507 106 q 574 135 549 135 z "},"b":{"ha":886,"x_min":29,"x_max":823,"o":"m 471 762 q 654 710 573 762 q 779 568 735 657 q 823 370 823 478 q 783 172 823 260 q 661 31 743 84 q 467 -22 578 -22 q 282 39 322 -22 l 243 0 l 29 0 l 29 16 q 114 27 87 16 q 141 65 141 39 l 141 709 q 137 755 141 735 q 125 788 134 775 q 108 808 117 800 q 85 820 99 817 q 59 825 71 824 q 29 826 47 826 l 29 843 q 266 986 266 843 l 282 986 l 282 688 q 350 744 304 726 q 471 762 395 762 m 440 -6 q 682 370 682 -6 q 656 560 682 476 q 575 695 630 644 q 444 746 521 746 q 282 648 310 746 l 282 100 q 325 22 282 50 q 440 -6 368 -6 z "},"c":{"ha":818,"x_min":60,"x_max":777,"o":"m 764 221 l 777 214 q 726 123 755 164 q 655 49 696 83 q 558 -4 614 15 q 437 -22 502 -22 q 248 30 334 -22 q 110 173 161 83 q 60 370 60 264 q 90 523 60 450 q 170 648 119 595 q 291 731 221 701 q 437 762 361 762 q 634 706 559 762 q 709 566 709 650 q 665 465 709 513 q 548 418 621 418 q 470 435 511 418 q 412 481 429 452 l 427 490 q 505 441 462 441 q 542 463 526 441 q 562 508 557 485 q 568 548 568 531 q 564 603 568 576 q 552 655 561 629 q 529 702 543 682 q 491 733 515 721 q 437 746 468 746 q 319 696 374 746 q 233 559 264 646 q 201 370 201 472 q 232 181 201 268 q 318 44 264 95 q 437 -6 373 -6 q 764 221 654 -6 z "},"d":{"ha":842,"x_min":62,"x_max":745,"o":"m 728 986 l 745 986 l 745 0 l 722 0 q 688 84 722 50 q 604 119 653 119 l 604 121 q 535 19 581 61 q 421 -22 488 -22 q 268 8 337 -22 q 155 93 199 39 q 86 217 111 146 q 62 370 62 288 q 106 568 62 478 q 232 710 151 657 q 414 762 313 762 q 536 744 491 762 q 604 688 581 726 l 604 709 q 600 755 604 735 q 588 788 596 775 q 571 808 580 800 q 547 820 562 817 q 521 825 533 824 q 492 826 509 826 l 492 843 q 728 986 728 843 m 604 204 l 604 648 q 442 746 576 746 q 311 695 366 746 q 230 560 256 644 q 203 370 203 476 q 446 -6 203 -6 q 525 31 488 -6 q 583 115 563 67 q 604 204 604 163 z "},"e":{"ha":821,"x_min":60,"x_max":777,"o":"m 764 221 l 777 214 q 726 123 755 164 q 655 49 696 83 q 558 -4 614 15 q 437 -22 502 -22 q 248 30 334 -22 q 110 173 161 83 q 60 370 60 264 q 110 567 60 477 q 248 710 161 658 q 437 762 334 762 q 543 752 494 762 q 632 721 591 742 q 696 664 673 701 q 720 580 720 628 q 450 416 720 416 q 355 400 396 416 q 291 358 314 384 q 255 300 268 332 q 240 235 241 269 q 244 172 239 201 q 261 119 250 142 q 340 27 294 60 q 437 -6 385 -6 q 764 221 654 -6 m 201 370 q 224 210 201 289 q 230 275 223 243 q 255 336 237 307 q 297 389 272 366 q 362 425 323 412 q 450 439 401 439 q 542 478 505 439 q 578 587 578 517 q 572 638 578 612 q 551 689 566 663 q 506 730 536 714 q 437 746 477 746 q 318 696 373 746 q 232 559 264 646 q 201 370 201 472 z "},"f":{"ha":486,"x_min":36,"x_max":643,"o":"m 431 986 q 498 981 464 986 q 566 964 532 976 q 622 930 600 953 q 643 876 643 907 q 605 808 643 832 q 514 785 568 785 q 448 801 479 785 q 399 848 416 817 l 413 857 q 490 808 448 808 q 538 832 523 808 q 553 886 553 856 q 523 948 553 927 q 452 970 492 970 q 323 905 357 970 q 289 661 290 840 l 459 661 l 459 645 l 289 645 l 289 65 q 316 27 289 39 q 401 16 342 16 l 401 0 l 36 0 l 36 16 q 121 27 94 16 q 148 65 148 39 l 148 645 l 68 645 l 68 661 l 148 661 q 178 855 150 785 q 267 956 207 925 q 431 986 326 986 z "},"g":{"ha":787,"x_min":66,"x_max":786,"o":"m 663 718 q 690 724 680 722 q 714 733 700 727 q 734 750 728 739 q 741 776 741 761 q 708 833 741 804 q 623 863 675 863 q 523 833 574 863 q 444 758 471 804 q 627 667 554 740 q 699 499 699 595 q 607 313 699 390 q 383 235 514 235 q 292 246 334 235 l 291 247 q 288 248 290 247 q 285 248 286 248 q 205 256 239 259 q 151 239 171 252 q 131 207 131 225 q 139 183 131 193 q 163 167 146 174 q 197 157 180 161 q 242 150 215 153 q 290 146 269 148 q 342 144 311 145 q 392 141 373 142 q 540 114 477 135 q 636 64 603 93 q 684 5 669 35 q 699 -53 699 -24 q 404 -246 699 -246 q 168 -215 251 -246 q 85 -119 85 -183 q 123 -51 85 -75 q 215 -27 161 -27 q 281 -43 250 -27 q 330 -90 313 -60 l 315 -99 q 238 -50 281 -50 q 175 -111 175 -50 q 238 -198 175 -166 q 404 -230 301 -230 q 522 -220 467 -230 q 615 -185 576 -210 q 654 -127 654 -161 q 586 -43 654 -77 q 392 0 518 -10 q 84 172 84 25 q 118 247 84 216 q 214 276 153 277 q 106 371 146 312 q 66 499 66 430 q 159 685 66 608 q 383 762 252 762 q 426 760 404 762 q 530 894 467 843 q 653 945 593 945 q 753 911 720 945 q 786 833 786 876 q 774 773 786 799 q 743 732 762 747 q 704 711 723 718 q 664 702 684 704 l 663 718 m 507 324 q 533 360 507 324 q 558 499 558 397 q 507 674 558 602 q 383 746 456 746 q 259 674 311 746 q 208 499 208 602 q 259 324 208 397 q 383 252 311 252 q 507 324 456 252 z "},"h":{"ha":930,"x_min":28,"x_max":904,"o":"m 792 65 q 819 27 792 39 q 904 16 846 16 l 904 0 l 539 0 l 539 16 q 624 27 597 16 q 651 65 651 39 l 651 548 q 496 746 651 746 q 281 612 373 746 l 281 65 q 308 27 281 39 q 393 16 334 16 l 393 0 l 281 0 l 281 0 l 28 0 l 28 16 q 112 27 85 16 q 140 64 139 39 l 140 709 q 136 755 140 735 q 124 788 132 775 q 107 808 116 800 q 83 820 98 817 q 57 825 69 824 q 28 826 45 826 l 28 843 q 264 986 264 843 l 281 986 l 281 635 q 522 762 377 762 q 595 755 559 762 q 668 731 632 748 q 731 691 704 715 q 775 630 758 667 q 792 548 792 593 l 792 65 z "},"i":{"ha":431,"x_min":39,"x_max":404,"o":"m 292 65 q 318 27 292 39 q 404 16 345 16 l 404 0 l 39 0 l 39 16 q 124 27 97 16 q 151 65 151 39 l 151 463 q 147 509 151 489 q 135 542 143 529 q 118 562 127 554 q 94 574 109 570 q 68 579 80 578 q 39 580 56 580 l 39 597 q 275 740 275 597 l 292 740 l 292 65 m 292 859 q 292 842 292 859 q 267 800 292 825 q 209 776 243 776 q 150 800 174 776 q 125 859 125 825 q 150 918 125 893 q 209 942 174 942 q 267 918 243 942 q 292 859 292 893 z "},"j":{"ha":383,"x_min":-208,"x_max":287,"o":"m 262 800 q 250 788 262 800 q 203 776 238 776 q 145 800 169 776 q 121 859 121 824 q 145 918 121 893 q 203 942 169 942 q 262 918 238 942 q 286 859 286 893 q 262 800 286 824 m 286 740 l 286 95 l 287 95 q 259 -109 287 -35 q 171 -214 231 -182 q 4 -246 111 -246 q -63 -241 -29 -246 q -131 -224 -97 -236 q -187 -190 -165 -213 q -208 -136 -208 -168 q -171 -68 -208 -92 q -79 -45 -133 -45 q -13 -61 -44 -45 q 36 -108 18 -77 l 22 -117 q -56 -68 -13 -68 q -103 -92 -88 -68 q -119 -145 -119 -115 q -88 -208 -119 -186 q -17 -230 -58 -230 q 50 -220 23 -230 q 96 -188 77 -210 q 126 -126 115 -166 q 141 -35 136 -87 q 145 95 145 18 l 145 463 q 141 509 145 489 q 130 542 138 529 q 112 562 121 554 q 89 574 103 570 q 63 579 75 578 q 33 580 51 580 l 33 597 q 270 740 270 597 l 286 740 z "},"k":{"ha":854,"x_min":29,"x_max":829,"o":"m 829 724 q 690 701 741 724 q 604 626 639 678 l 459 406 l 684 65 q 731 28 700 40 q 819 16 763 16 l 819 0 l 454 0 l 454 16 q 549 50 553 16 q 543 65 548 57 l 389 298 l 282 137 l 282 65 q 309 27 282 39 q 394 16 336 16 l 394 0 l 29 0 l 29 16 q 114 27 87 16 q 141 65 141 39 l 141 709 q 137 755 141 735 q 125 788 134 775 q 108 808 117 800 q 85 820 99 817 q 59 825 71 824 q 29 826 47 826 l 29 843 q 266 986 266 843 l 282 986 l 282 162 l 581 616 q 591 696 618 669 q 464 724 564 724 l 464 740 l 829 740 l 829 724 z "},"l":{"ha":420,"x_min":28,"x_max":393,"o":"m 281 65 q 308 27 281 39 q 393 16 334 16 l 393 0 l 28 0 l 28 16 q 113 27 86 16 q 140 65 140 39 l 140 709 q 136 755 140 735 q 124 788 132 775 q 107 808 116 800 q 83 820 98 817 q 57 825 69 824 q 28 826 45 826 l 28 843 q 264 986 264 843 l 281 986 l 281 65 z "},"m":{"ha":1426,"x_min":39,"x_max":1399,"o":"m 1287 65 q 1314 27 1287 39 q 1399 16 1341 16 l 1399 0 l 1034 0 l 1034 16 q 1119 27 1093 16 q 1146 65 1146 39 l 1146 548 q 991 746 1146 746 q 787 629 876 746 q 803 548 803 593 l 803 65 q 830 27 803 39 q 915 16 857 16 l 915 0 l 550 0 l 550 16 q 635 27 608 16 q 662 65 662 39 l 662 548 q 507 746 662 746 q 292 612 384 746 l 292 65 q 318 27 292 39 q 404 16 345 16 l 404 0 l 39 0 l 39 16 q 124 27 97 16 q 151 65 151 39 l 151 463 q 147 509 151 489 q 135 542 143 529 q 118 562 127 554 q 94 574 109 570 q 68 579 80 578 q 39 580 56 580 l 39 597 q 275 740 275 597 l 292 740 l 292 635 q 534 762 388 762 q 679 732 610 762 q 781 642 748 703 q 1017 762 875 762 q 1090 755 1054 762 q 1163 731 1127 748 q 1226 691 1199 715 q 1270 630 1253 667 q 1287 548 1287 593 l 1287 65 z "},"n":{"ha":941,"x_min":39,"x_max":915,"o":"m 803 65 q 830 27 803 39 q 915 16 857 16 l 915 0 l 550 0 l 550 16 q 635 27 608 16 q 662 65 662 39 l 662 548 q 507 746 662 746 q 292 612 384 746 l 292 65 q 318 27 292 39 q 404 16 345 16 l 404 0 l 39 0 l 39 16 q 124 27 97 16 q 151 65 151 39 l 151 463 q 147 509 151 489 q 135 542 143 529 q 118 562 127 554 q 94 574 109 570 q 68 579 80 578 q 39 580 56 580 l 39 597 q 275 740 275 597 l 292 740 l 292 635 q 534 762 388 762 q 626 750 581 762 q 712 714 671 739 q 778 647 753 690 q 803 548 803 604 l 803 65 z "},"o":{"ha":875,"x_min":60,"x_max":814,"o":"m 248 710 q 291 736 248 710 q 437 762 334 762 q 626 710 539 762 q 763 567 713 658 q 814 370 814 477 q 763 173 814 264 q 626 30 713 83 q 437 -22 539 -22 q 248 30 334 -22 q 110 173 161 83 q 60 370 60 264 q 110 567 60 477 q 248 710 161 658 m 318 44 q 346 19 318 44 q 437 -6 373 -6 q 555 44 500 -6 q 641 181 610 95 q 673 370 673 268 q 641 559 673 472 q 555 696 610 646 q 437 746 500 746 q 318 696 373 746 q 232 559 264 646 q 201 370 201 472 q 232 181 201 268 q 318 44 264 95 z "},"p":{"ha":884,"x_min":28,"x_max":822,"o":"m 465 762 q 659 709 577 762 q 782 568 741 656 q 822 370 822 480 q 778 173 822 262 q 653 31 734 83 q 470 -22 572 -22 q 348 -4 393 -22 q 281 52 303 14 l 281 -246 l 264 -246 q 28 -103 264 -103 l 28 -86 q 57 -85 45 -86 q 83 -80 69 -84 q 107 -68 98 -77 q 124 -48 116 -60 q 136 -15 132 -35 q 140 31 140 5 l 140 675 q 113 712 140 701 q 28 724 86 724 l 28 740 l 242 740 l 281 701 q 465 762 321 762 m 443 -6 q 574 45 519 -6 q 655 181 629 97 q 681 370 681 264 q 439 746 681 746 q 324 718 367 746 q 281 640 281 690 l 281 92 q 443 -6 309 -6 z "},"q":{"ha":842,"x_min":62,"x_max":745,"o":"m 722 740 l 745 740 l 745 -246 l 728 -246 q 492 -103 728 -103 l 492 -86 q 521 -85 509 -86 q 547 -80 533 -84 q 571 -68 562 -77 q 588 -48 580 -60 q 600 -15 596 -35 q 604 31 604 5 l 604 52 q 536 -4 581 14 q 414 -22 491 -22 q 232 31 313 -22 q 106 173 151 83 q 62 370 62 262 q 86 523 62 452 q 155 648 111 594 q 268 732 199 701 q 421 762 337 762 q 535 721 488 762 q 604 618 581 679 l 604 621 q 688 656 653 621 q 722 740 722 690 m 604 92 l 604 536 q 583 625 604 577 q 525 710 563 673 q 446 746 488 746 q 203 370 203 746 q 230 181 203 264 q 311 45 256 97 q 442 -6 366 -6 q 604 92 576 -6 z "},"r":{"ha":800,"x_min":39,"x_max":760,"o":"m 490 762 q 686 706 611 762 q 760 566 760 650 q 716 465 760 513 q 600 418 672 418 q 522 435 562 418 q 464 481 481 452 l 478 490 q 555 441 513 441 q 593 463 577 441 q 614 508 608 485 q 619 548 619 531 q 613 616 619 585 q 594 679 608 648 q 554 728 581 710 q 490 746 527 746 q 372 715 431 746 q 292 648 313 685 l 292 65 q 318 27 292 39 q 404 16 345 16 l 404 0 l 39 0 l 39 16 q 124 27 97 16 q 151 65 151 39 l 151 463 q 147 509 151 489 q 135 542 143 529 q 118 562 127 554 q 94 574 109 570 q 68 579 80 578 q 39 580 56 580 l 39 597 q 275 740 275 597 l 292 740 l 292 672 q 490 762 361 762 z "},"s":{"ha":862,"x_min":62,"x_max":810,"o":"m 417 464 q 629 382 587 401 q 786 267 747 329 q 810 178 810 227 q 709 32 810 85 q 418 -22 607 -22 q 159 26 256 -22 q 62 149 62 74 q 112 248 62 212 q 229 285 161 285 q 333 237 295 285 l 320 227 q 243 264 283 264 q 194 233 214 264 q 174 167 174 201 q 238 41 174 88 q 417 -6 303 -6 q 602 34 535 -6 q 669 128 669 75 q 658 175 669 153 q 628 214 646 197 q 575 251 609 232 q 506 286 541 270 q 417 323 471 301 q 231 399 254 389 q 102 492 133 444 q 81 567 81 524 q 170 713 81 665 q 417 762 260 762 q 743 606 743 762 q 699 521 743 553 q 593 490 655 490 q 470 553 507 490 l 484 562 q 554 513 519 513 q 606 537 588 513 q 624 597 624 562 q 575 705 624 663 q 417 746 526 746 q 275 712 328 746 q 222 629 222 677 q 265 540 222 576 q 417 464 309 504 z "},"t":{"ha":665,"x_min":29,"x_max":636,"o":"m 507 179 q 598 155 560 179 q 636 87 636 132 q 615 34 636 56 q 559 -1 593 11 q 491 -17 525 -12 q 424 -22 457 -22 q 257 9 317 -22 q 169 115 197 41 q 141 319 141 189 l 141 528 q 133 588 141 564 q 107 624 124 612 q 73 641 91 636 q 29 645 54 645 l 29 661 q 146 704 90 661 q 234 807 202 746 q 266 925 266 868 l 282 925 l 282 661 l 435 661 l 435 645 l 282 645 l 282 319 q 287 189 282 241 q 301 97 291 137 q 331 36 312 58 q 377 4 350 14 q 444 -6 404 -6 q 516 16 485 -6 q 547 79 547 37 q 531 132 547 109 q 484 156 516 156 q 406 108 440 156 l 392 116 q 440 163 410 146 q 507 179 471 179 z "},"u":{"ha":929,"x_min":25,"x_max":901,"o":"m 536 740 l 901 740 l 901 724 q 816 712 843 724 q 789 675 789 701 l 789 0 l 767 0 q 732 84 767 50 q 648 119 698 119 q 607 104 626 119 q 574 69 589 90 q 541 27 559 48 q 494 -8 524 7 q 425 -22 465 -22 q 319 -11 369 -22 q 228 26 269 1 q 161 93 186 50 q 137 192 137 136 l 137 675 q 110 712 137 701 q 25 724 83 724 l 25 740 l 390 740 l 390 724 q 305 712 332 724 q 278 675 278 701 l 278 192 q 322 41 278 88 q 450 -6 366 -6 q 498 8 477 -6 q 536 44 520 23 q 566 85 551 64 q 602 120 581 106 q 648 135 623 135 l 648 675 q 622 712 648 701 q 536 724 595 724 l 536 740 z "},"v":{"ha":930,"x_min":16,"x_max":915,"o":"m 551 740 l 915 740 l 915 724 q 784 703 827 724 q 718 626 741 682 l 454 0 l 438 0 l 155 675 q 16 724 134 724 l 16 740 l 380 740 l 380 724 q 304 712 323 724 q 296 675 285 700 l 509 168 l 697 616 q 686 697 721 671 q 551 724 652 724 l 551 740 z "},"w":{"ha":1354,"x_min":16,"x_max":1338,"o":"m 973 740 l 1338 740 l 1338 724 q 1207 703 1250 724 q 1141 626 1164 682 l 878 0 l 861 0 l 658 484 l 454 0 l 438 0 l 155 675 q 16 724 134 724 l 16 740 l 380 740 l 380 724 q 304 712 323 724 q 296 675 285 700 l 509 168 l 650 503 l 577 675 q 438 724 557 724 l 438 740 l 803 740 l 803 724 q 727 712 747 724 q 718 675 707 700 l 932 168 l 1120 616 q 1109 697 1143 671 q 973 724 1074 724 l 973 740 z "},"x":{"ha":943,"x_min":22,"x_max":918,"o":"m 785 65 q 833 28 803 41 q 918 16 864 16 l 918 0 l 553 0 l 553 16 q 651 48 653 16 q 644 65 650 56 l 431 347 l 264 124 q 255 44 224 73 q 387 16 287 16 l 387 0 l 22 0 l 22 16 q 154 39 106 16 q 240 114 201 62 l 423 358 l 185 675 q 51 724 149 724 l 51 740 l 416 740 l 416 724 q 319 691 316 724 q 326 675 319 684 l 512 428 l 653 616 q 662 695 693 667 q 530 724 630 724 l 530 740 l 895 740 l 895 724 q 763 701 810 724 q 677 626 715 677 l 520 417 l 785 65 z "},"y":{"ha":930,"x_min":16,"x_max":915,"o":"m 551 740 l 915 740 l 915 724 q 784 703 827 724 q 718 626 741 682 l 454 0 q 341 -188 395 -130 q 204 -246 287 -246 q 71 -213 117 -246 q 24 -136 24 -180 q 58 -70 24 -98 q 148 -41 92 -41 q 283 -104 246 -41 l 269 -113 q 192 -64 235 -64 q 135 -82 156 -64 q 113 -130 113 -100 q 148 -195 113 -168 q 225 -221 182 -221 q 339 -169 293 -221 q 438 0 386 -117 l 155 675 q 16 724 134 724 l 16 740 l 380 740 l 380 724 q 304 712 323 724 q 296 675 285 700 l 509 168 l 697 616 q 686 697 721 671 q 551 724 652 724 l 551 740 z "},"z":{"ha":690,"x_min":46,"x_max":637,"o":"m 621 253 l 637 253 l 637 0 l 46 0 l 450 724 l 329 724 q 230 711 272 724 q 163 679 188 699 q 124 627 138 659 q 104 562 109 595 q 99 487 99 530 l 83 487 l 83 740 l 600 740 l 196 16 l 391 16 q 490 29 448 16 q 557 61 532 41 q 596 113 582 81 q 616 177 611 145 q 621 253 621 210 z "},"{":{"ha":325,"x_min":98,"x_max":256,"o":"m 256 970 q 205 940 226 970 q 177 866 185 910 q 169 765 169 821 q 179 664 169 718 q 196 578 189 610 q 200 519 204 547 q 174 482 197 492 q 200 445 197 472 q 196 386 204 418 q 179 300 189 354 q 169 199 169 245 q 177 98 169 142 q 205 24 185 54 q 256 -6 226 -6 l 256 -22 q 138 37 177 -22 q 98 199 98 96 q 105 259 98 227 q 122 317 113 292 q 143 368 132 342 q 160 411 153 393 q 166 444 166 429 q 156 466 167 458 q 123 473 146 473 l 123 490 q 163 504 155 490 q 162 546 172 518 q 139 605 153 574 q 112 681 125 636 q 98 765 98 726 q 138 927 98 868 q 256 986 177 986 l 256 970 z "},"|":{"ha":279,"x_min":104,"x_max":175,"o":"m 175 -22 l 104 -22 l 104 986 l 175 986 l 175 -22 z "},"}":{"ha":325,"x_min":68,"x_max":226,"o":"m 202 473 q 162 459 170 473 q 162 418 153 446 q 185 359 172 390 q 213 282 199 328 q 226 199 226 237 q 186 37 226 96 q 68 -22 147 -22 l 68 -6 q 119 24 98 -6 q 147 98 139 54 q 155 199 155 142 q 145 300 155 245 q 128 386 136 354 q 124 445 120 418 q 151 482 127 472 q 124 519 127 492 q 128 578 120 547 q 145 664 136 610 q 155 765 155 718 q 147 866 155 821 q 119 940 139 910 q 68 970 98 970 l 68 986 q 186 927 147 986 q 226 765 226 868 q 213 681 226 726 q 185 605 199 636 q 162 546 172 574 q 162 504 153 518 q 202 490 170 490 l 202 473 z "},"~":{"ha":669,"x_min":66,"x_max":602,"o":"m 586 542 l 602 542 q 576 418 602 458 q 490 378 549 378 q 385 401 446 378 q 267 447 323 424 q 178 470 211 470 l 178 471 l 178 470 q 111 449 139 470 q 83 397 83 427 l 66 397 q 93 520 66 481 q 178 560 119 560 l 179 560 q 292 537 229 560 q 409 491 355 514 q 490 468 463 468 q 558 490 530 468 q 586 542 586 511 z "}," ":{"ha":504,"x_min":0,"x_max":0,"o":""},"©":{"ha":1143,"x_min":89,"x_max":1053,"o":"m 571 964 q 758 926 669 964 q 912 823 847 888 q 1015 669 977 758 q 1053 482 1053 580 q 988 240 1053 351 q 813 65 924 130 q 571 0 702 0 q 329 65 440 0 q 154 240 218 130 q 89 482 89 351 q 154 724 89 613 q 329 899 218 835 q 571 964 440 964 m 571 16 q 804 79 697 16 q 974 249 911 141 q 1036 482 1036 356 q 974 715 1036 608 q 804 885 911 823 q 571 947 697 947 q 337 885 445 947 q 168 715 230 823 q 105 482 105 608 q 142 301 105 387 q 241 153 179 215 q 390 53 304 90 q 571 16 476 16 m 916 333 l 930 326 q 878 235 908 276 q 807 161 848 195 q 710 108 766 127 q 589 90 654 90 q 400 142 487 90 q 263 285 313 195 q 212 482 212 376 q 263 679 212 589 q 400 822 313 770 q 589 874 487 874 q 727 850 663 874 q 831 778 791 826 q 872 665 872 729 q 837 583 872 616 q 743 549 802 549 q 677 565 708 549 q 628 612 646 581 l 642 621 q 720 572 677 572 q 767 604 751 572 q 783 665 783 636 q 771 732 783 699 q 737 794 760 765 q 676 840 714 823 q 589 858 637 858 q 471 808 526 858 q 385 671 416 758 q 353 482 353 584 q 385 293 353 380 q 471 156 416 207 q 589 106 526 106 q 916 333 806 106 z "},"­":{"ha":0,"x_min":0,"x_max":0,"o":""},"®":{"ha":643,"x_min":81,"x_max":562,"o":"m 151 916 q 186 951 151 916 q 321 986 222 986 q 492 916 421 986 q 562 745 562 845 q 492 575 562 646 q 321 505 421 505 q 151 575 222 505 q 81 745 81 646 q 151 916 81 845 m 163 587 q 196 554 163 587 q 321 521 229 521 q 480 587 414 521 q 546 745 546 652 q 480 904 546 838 q 321 970 414 970 q 163 904 229 970 q 97 745 97 838 q 163 587 97 652 m 481 665 l 486 665 q 484 640 486 654 q 476 611 481 627 q 460 586 471 596 q 435 576 450 576 q 407 591 418 576 q 389 627 395 607 q 376 676 384 646 q 362 722 368 706 q 314 717 336 717 q 280 726 294 717 q 267 745 267 734 q 314 771 267 771 q 374 736 349 771 q 418 816 418 762 q 391 884 418 859 q 320 909 365 909 q 258 906 298 909 l 258 605 q 296 589 258 589 l 296 583 l 174 583 l 174 589 q 211 605 211 589 l 211 886 q 174 902 211 902 l 174 907 l 211 907 q 320 915 281 915 q 428 889 391 915 q 465 816 465 864 q 443 762 465 786 q 380 726 420 738 q 402 682 389 711 q 425 638 414 652 q 450 623 435 623 q 473 637 464 623 q 481 665 481 651 m 314 722 q 359 730 338 722 q 314 765 342 765 q 283 743 283 765 q 314 722 283 722 z "},"À":{"ha":957,"x_min":-7,"x_max":962,"o":"m 844 65 q 880 26 855 36 q 962 16 904 16 l 962 0 l 597 0 l 597 16 q 686 27 659 16 q 703 65 713 37 l 595 351 q 432 267 565 267 q 324 243 357 267 q 267 155 290 219 q 290 53 242 90 q 432 16 338 16 l 432 0 l -7 0 l -7 16 q 113 49 68 16 q 184 152 157 81 l 489 964 l 506 964 l 844 65 m 432 283 q 547 343 519 283 q 531 522 574 403 l 435 777 l 209 176 q 297 259 247 235 q 432 283 347 283 m 500 1026 l 484 1026 l 408 1168 l 521 1168 l 500 1026 z "},"Á":{"ha":957,"x_min":-7,"x_max":962,"o":"m 844 65 q 880 26 855 36 q 962 16 904 16 l 962 0 l 597 0 l 597 16 q 686 27 659 16 q 703 65 713 37 l 595 351 q 432 267 565 267 q 324 243 357 267 q 267 154 290 218 q 290 53 242 89 q 432 16 338 16 l 432 0 l -7 0 l -7 16 q 113 49 68 16 q 184 152 157 81 l 489 964 l 506 964 l 844 65 m 432 283 q 547 343 519 283 q 531 522 574 403 l 435 777 l 209 176 q 297 259 247 235 q 432 283 347 283 m 512 1026 l 496 1026 l 475 1168 l 587 1168 l 512 1026 z "},"Â":{"ha":957,"x_min":-7,"x_max":962,"o":"m 844 65 q 880 26 855 36 q 962 16 904 16 l 962 0 l 597 0 l 597 16 q 686 27 659 16 q 703 65 713 37 l 595 351 q 432 267 565 267 q 324 243 357 267 q 267 154 290 218 q 290 53 242 89 q 432 16 338 16 l 432 0 l -7 0 l -7 16 q 113 49 68 16 q 184 152 157 81 l 489 964 l 506 964 l 844 65 m 432 283 q 547 343 519 283 q 531 522 574 403 l 435 777 l 209 176 q 297 259 247 235 q 432 283 347 283 m 500 1141 l 444 1026 l 373 1026 l 465 1213 l 481 1213 l 573 1026 l 557 1026 l 500 1141 z "},"Ã":{"ha":957,"x_min":-7,"x_max":962,"o":"m 429 1095 q 374 1079 396 1095 q 353 1026 353 1063 l 336 1026 q 358 1146 336 1107 q 429 1185 380 1185 q 510 1151 457 1185 q 583 1116 563 1116 q 637 1132 616 1116 q 659 1185 659 1148 l 675 1185 q 653 1065 675 1103 q 583 1026 631 1026 q 504 1061 557 1026 q 429 1095 450 1095 m 844 65 q 880 26 855 36 q 962 16 904 16 l 962 0 l 597 0 l 597 16 q 686 27 659 16 q 703 65 713 37 l 595 351 q 432 267 565 267 q 324 243 357 267 q 267 155 290 219 q 290 53 242 90 q 432 16 338 16 l 432 0 l -7 0 l -7 16 q 113 49 68 16 q 184 152 157 81 l 489 964 l 506 964 l 844 65 m 432 283 q 547 343 519 283 q 531 522 574 403 l 435 777 l 209 176 q 297 259 247 235 q 432 283 347 283 z "},"Ä":{"ha":957,"x_min":-7,"x_max":962,"o":"m 464 1047 q 453 1037 464 1047 q 414 1026 443 1026 q 364 1047 385 1026 q 343 1097 343 1068 q 364 1147 343 1126 q 414 1168 385 1168 q 464 1147 443 1168 q 484 1097 484 1126 q 464 1047 484 1068 m 622 1047 q 611 1037 622 1047 q 572 1026 601 1026 q 522 1047 543 1026 q 501 1097 501 1068 q 522 1147 501 1126 q 572 1168 543 1168 q 622 1147 601 1168 q 642 1097 642 1126 q 622 1047 642 1068 m 844 65 q 880 26 855 36 q 962 16 904 16 l 962 0 l 597 0 l 597 16 q 686 27 659 16 q 703 65 713 37 l 595 351 q 432 267 565 267 q 324 243 357 267 q 267 155 290 219 q 290 53 242 90 q 432 16 338 16 l 432 0 l -7 0 l -7 16 q 113 49 68 16 q 184 152 157 81 l 489 964 l 506 964 l 844 65 m 432 283 q 547 343 519 283 q 531 522 574 403 l 435 777 l 209 176 q 297 259 247 235 q 432 283 347 283 z "},"Å":{"ha":957,"x_min":-7,"x_max":962,"o":"m 565 1056 q 550 1041 565 1056 q 493 1027 535 1027 q 421 1056 451 1027 q 392 1127 392 1086 q 422 1199 392 1169 q 493 1228 452 1228 q 564 1199 534 1228 q 594 1127 594 1169 q 565 1056 594 1086 m 543 1177 q 533 1188 543 1177 q 493 1198 522 1198 q 443 1177 464 1198 q 422 1127 422 1156 q 443 1077 422 1098 q 493 1057 464 1057 q 543 1077 522 1057 q 564 1127 564 1098 q 543 1177 564 1156 m 844 65 q 880 26 855 36 q 962 16 904 16 l 962 0 l 597 0 l 597 16 q 686 27 659 16 q 703 65 713 37 l 595 351 q 432 267 565 267 q 324 243 357 267 q 267 154 290 218 q 290 53 242 89 q 432 16 338 16 l 432 0 l -7 0 l -7 16 q 113 49 68 16 q 184 152 157 81 l 489 964 l 506 964 l 844 65 m 432 283 q 547 343 519 283 q 531 522 574 403 l 435 777 l 209 176 q 297 259 247 235 q 432 283 347 283 z "},"Æ":{"ha":1305,"x_min":-7,"x_max":1263,"o":"m 1246 253 l 1263 253 l 1263 0 l 531 0 l 531 16 q 616 27 589 16 q 643 65 643 39 l 643 357 q 432 267 576 267 q 324 243 357 267 q 267 155 290 219 q 290 53 242 90 q 432 16 338 16 l 432 0 l -7 0 l -7 16 q 113 49 68 16 q 184 152 157 81 l 306 477 q 343 577 321 518 q 377 669 365 635 q 408 749 390 703 q 438 820 426 794 q 468 877 451 846 q 501 925 486 908 q 535 958 516 942 q 576 980 555 973 q 622 986 597 986 q 707 964 672 986 l 1221 964 l 1221 711 l 1204 711 q 1199 786 1204 753 q 1180 850 1194 819 q 1140 902 1165 882 q 1074 935 1116 922 q 975 947 1031 947 l 728 947 q 784 760 784 892 l 784 459 q 888 584 814 539 q 908 595 892 586 q 926 606 923 604 q 942 616 930 608 q 958 628 955 625 q 970 640 961 631 q 982 654 979 648 q 989 670 984 660 q 997 690 995 680 q 1000 712 998 699 q 1002 739 1002 724 l 1018 739 l 1018 355 l 1002 355 q 1001 405 1002 387 q 1000 448 1001 423 q 998 487 1000 473 q 993 517 996 500 q 985 543 989 534 q 973 561 980 552 q 957 572 966 569 q 935 576 947 576 q 864 545 902 576 q 805 467 827 513 q 784 370 784 421 l 784 16 l 1017 16 q 1116 29 1074 16 q 1183 61 1158 41 q 1222 113 1208 81 q 1242 177 1237 145 q 1246 253 1246 210 m 643 523 l 643 762 q 638 815 643 786 q 626 875 634 845 q 602 924 617 905 q 567 944 587 944 q 476 858 519 944 q 341 527 433 772 q 322 477 329 494 l 209 176 q 297 259 247 235 q 432 283 347 283 q 583 343 524 283 q 643 523 643 403 z "},"Ç":{"ha":871,"x_min":40,"x_max":845,"o":"m 831 221 l 845 214 q 712 44 800 111 q 505 -22 625 -22 q 372 -1 437 -22 l 348 -45 q 433 -72 404 -40 q 448 -138 463 -103 q 412 -176 437 -166 q 357 -174 388 -186 q 302 -103 285 -146 q 345 -88 313 -76 q 363 -111 361 -95 l 361 -111 q 350 -96 358 -100 q 337 -99 343 -94 q 328 -112 332 -104 q 353 -169 312 -153 q 395 -166 377 -178 q 421 -132 412 -153 q 415 -70 436 -94 q 346 -49 393 -46 l 345 -49 l 342 -49 l 342 -49 l 368 -1 q 132 181 224 47 q 40 482 40 314 q 79 678 40 585 q 183 839 118 772 q 336 946 248 906 q 519 986 425 986 q 657 962 593 986 q 762 889 721 938 q 802 777 802 841 q 767 694 802 728 q 673 661 732 661 q 607 677 638 661 q 558 724 576 693 l 572 732 q 650 684 607 684 q 697 716 681 684 q 713 777 713 748 q 701 844 713 810 q 667 906 690 877 q 606 952 644 935 q 519 970 568 970 q 354 905 431 970 q 229 727 276 840 q 182 482 182 614 q 225 237 182 350 q 342 59 268 125 q 505 -6 417 -6 q 696 56 611 -6 q 831 221 781 117 z "},"È":{"ha":795,"x_min":22,"x_max":754,"o":"m 738 253 l 754 253 l 754 0 l 22 0 l 22 16 q 107 27 81 16 q 134 65 134 39 l 134 899 q 107 936 134 925 q 22 947 81 947 l 22 964 l 711 964 l 711 711 l 695 711 q 690 786 695 754 q 671 850 686 819 q 632 902 656 882 q 565 935 607 922 q 466 947 523 947 l 275 947 l 275 459 q 379 584 306 540 q 398 595 383 586 q 417 606 414 604 q 433 616 420 608 q 449 628 446 625 q 461 640 452 631 q 472 654 470 648 q 480 670 475 660 q 487 690 486 680 q 491 712 489 699 q 492 739 492 724 l 509 739 l 509 355 l 492 355 q 492 405 492 387 q 491 448 492 423 q 489 487 490 473 q 484 517 487 500 q 475 543 480 534 q 464 561 471 552 q 448 572 457 569 q 426 576 438 576 q 355 545 393 576 q 296 467 317 513 q 275 370 275 421 l 275 16 l 508 16 q 607 29 565 16 q 674 61 649 41 q 713 113 699 81 q 733 178 728 145 q 738 253 738 210 m 415 1026 l 399 1026 l 323 1168 l 435 1168 l 415 1026 z "},"É":{"ha":795,"x_min":22,"x_max":754,"o":"m 738 253 l 754 253 l 754 0 l 22 0 l 22 16 q 107 27 81 16 q 134 65 134 39 l 134 899 q 107 936 134 925 q 22 947 81 947 l 22 964 l 711 964 l 711 711 l 695 711 q 690 786 695 754 q 671 850 686 819 q 632 902 656 882 q 565 935 607 922 q 466 947 523 947 l 275 947 l 275 459 q 379 584 306 540 q 398 595 383 586 q 417 606 414 604 q 433 616 420 608 q 449 628 446 625 q 461 640 452 631 q 472 654 470 648 q 480 670 475 660 q 487 690 486 680 q 491 712 489 699 q 492 739 492 724 l 509 739 l 509 355 l 492 355 q 492 405 492 387 q 491 448 492 423 q 489 487 490 473 q 484 517 487 500 q 475 543 480 534 q 464 561 471 552 q 448 572 457 569 q 426 576 438 576 q 355 545 393 576 q 296 467 317 513 q 275 370 275 421 l 275 16 l 508 16 q 607 29 565 16 q 674 61 649 41 q 713 113 699 81 q 733 178 728 145 q 738 253 738 210 m 469 1026 l 452 1026 l 432 1168 l 545 1168 l 469 1026 z "},"Ê":{"ha":795,"x_min":22,"x_max":754,"o":"m 737 253 l 754 253 l 754 0 l 22 0 l 22 16 q 107 27 81 16 q 134 65 134 39 l 134 899 q 107 936 134 925 q 22 947 81 947 l 22 964 l 711 964 l 711 711 l 695 711 q 690 786 695 754 q 671 850 686 819 q 632 902 656 882 q 565 935 607 922 q 466 947 523 947 l 275 947 l 275 459 q 379 584 306 540 q 398 595 383 586 q 417 606 414 604 q 433 616 420 608 q 449 628 446 625 q 461 640 452 631 q 472 654 470 648 q 480 670 475 660 q 487 690 486 680 q 491 712 489 699 q 492 739 492 724 l 509 739 l 509 355 l 492 355 q 492 405 492 387 q 491 448 492 423 q 489 487 490 473 q 484 517 487 500 q 475 543 480 534 q 464 561 471 552 q 448 572 457 569 q 426 576 438 576 q 355 545 393 576 q 296 467 317 513 q 275 370 275 421 l 275 16 l 508 16 q 607 29 565 16 q 674 61 649 41 q 713 113 699 81 q 732 177 728 145 q 737 253 737 210 m 382 1141 l 325 1026 l 254 1026 l 347 1213 l 363 1213 l 454 1026 l 438 1026 l 382 1141 z "},"Ë":{"ha":795,"x_min":22,"x_max":754,"o":"m 737 253 l 754 253 l 754 0 l 22 0 l 22 16 q 107 27 81 16 q 134 65 134 39 l 134 899 q 107 936 134 925 q 22 947 81 947 l 22 964 l 711 964 l 711 711 l 695 711 q 690 786 695 754 q 671 850 686 819 q 632 902 656 882 q 565 935 607 922 q 466 947 523 947 l 275 947 l 275 459 q 379 584 306 540 q 398 595 383 586 q 417 606 414 604 q 433 616 420 608 q 449 628 446 625 q 461 640 452 631 q 472 654 470 648 q 480 670 475 660 q 487 690 486 680 q 491 712 489 699 q 492 739 492 724 l 509 739 l 509 355 l 492 355 q 492 405 492 387 q 491 448 492 423 q 489 487 490 473 q 484 517 487 500 q 475 543 480 534 q 464 561 471 552 q 448 572 457 569 q 426 576 438 576 q 355 545 393 576 q 296 467 317 513 q 275 370 275 421 l 275 16 l 508 16 q 607 29 565 16 q 674 61 649 41 q 713 113 699 81 q 732 177 728 145 q 737 253 737 210 m 350 1047 q 340 1037 350 1047 q 300 1026 330 1026 q 251 1047 271 1026 q 230 1097 230 1068 q 251 1147 230 1126 q 300 1168 271 1168 q 350 1147 330 1168 q 371 1097 371 1126 q 350 1047 371 1068 m 508 1047 q 498 1037 508 1047 q 458 1026 488 1026 q 409 1047 429 1026 q 388 1097 388 1068 q 409 1147 388 1126 q 458 1168 429 1168 q 508 1147 488 1168 q 529 1097 529 1126 q 508 1047 529 1068 z "},"Ì":{"ha":410,"x_min":22,"x_max":387,"o":"m 387 947 q 302 936 329 947 q 275 899 275 925 l 275 65 q 302 27 275 39 q 387 16 329 16 l 387 0 l 22 0 l 22 16 q 107 27 81 16 q 134 65 134 39 l 134 899 q 107 936 134 925 q 22 947 81 947 l 22 964 l 387 964 l 387 947 m 212 1026 l 195 1026 l 119 1168 l 231 1168 l 212 1026 z "},"Í":{"ha":410,"x_min":22,"x_max":387,"o":"m 387 947 q 302 936 329 947 q 275 899 275 925 l 275 65 q 302 27 275 39 q 387 16 329 16 l 387 0 l 22 0 l 22 16 q 107 27 81 16 q 134 65 134 39 l 134 899 q 107 936 134 925 q 22 947 81 947 l 22 964 l 387 964 l 387 947 m 222 1026 l 205 1026 l 185 1168 l 298 1168 l 222 1026 z "},"Î":{"ha":410,"x_min":22,"x_max":387,"o":"m 387 947 q 302 936 329 947 q 275 899 275 925 l 275 65 q 302 27 275 39 q 387 16 329 16 l 387 0 l 22 0 l 22 16 q 107 27 81 16 q 134 65 134 39 l 134 899 q 107 936 134 925 q 22 947 81 947 l 22 964 l 387 964 l 387 947 m 232 1141 l 175 1026 l 104 1026 l 197 1213 l 213 1213 l 304 1026 l 288 1026 l 232 1141 z "},"Ï":{"ha":410,"x_min":22,"x_max":387,"o":"m 387 947 q 302 936 329 947 q 275 899 275 925 l 275 65 q 302 27 275 39 q 387 16 329 16 l 387 0 l 22 0 l 22 16 q 107 27 81 16 q 134 65 134 39 l 134 899 q 107 936 134 925 q 22 947 81 947 l 22 964 l 387 964 l 387 947 m 189 1065 q 148 1030 175 1039 q 94 1034 120 1021 q 59 1075 68 1047 q 62 1128 50 1103 q 104 1163 76 1154 q 157 1160 132 1173 q 192 1118 183 1146 q 189 1065 201 1090 m 347 1065 q 305 1030 333 1039 q 252 1034 277 1021 q 216 1075 226 1047 q 220 1128 207 1103 q 261 1163 233 1154 q 315 1160 289 1173 q 350 1118 340 1146 q 347 1065 359 1090 z "},"Ð":{"ha":1030,"x_min":37,"x_max":984,"o":"m 519 986 q 687 959 610 986 q 818 885 764 932 q 910 773 872 838 q 966 636 948 709 q 984 482 984 562 q 967 323 984 397 q 914 184 950 248 q 825 75 878 121 q 696 3 772 29 q 527 -22 620 -22 q 375 -3 429 -22 q 300 56 321 16 l 300 55 l 245 0 l 47 0 l 47 16 q 132 27 106 16 q 159 65 159 39 l 159 412 l 37 412 l 37 553 l 159 553 l 159 899 q 132 936 159 925 q 47 947 106 947 l 47 964 l 159 964 q 326 978 201 970 q 519 986 450 986 m 496 -6 q 630 19 571 -6 q 729 88 690 44 q 794 194 768 132 q 832 328 821 256 q 843 482 843 399 q 798 729 843 617 q 669 905 752 840 q 484 970 587 970 q 300 961 431 970 l 300 553 l 387 553 l 387 412 l 300 412 l 300 140 q 352 30 300 66 q 496 -6 404 -6 z "},"Ñ":{"ha":957,"x_min":17,"x_max":940,"o":"m 940 947 q 839 911 869 947 q 809 786 809 875 l 809 178 q 839 53 809 89 q 940 16 869 16 l 940 0 l 728 0 l 164 857 l 164 178 q 194 53 164 89 q 295 16 224 16 l 295 0 l 17 0 l 17 16 q 118 53 87 16 q 148 178 148 89 l 148 786 q 118 911 148 875 q 17 947 87 947 l 17 964 l 235 964 l 793 117 l 793 786 q 763 911 793 875 q 662 947 732 947 l 662 964 l 940 964 l 940 947 m 388 1095 q 334 1079 355 1095 q 312 1026 312 1063 l 296 1026 q 318 1147 296 1108 q 388 1185 340 1185 q 469 1151 416 1185 q 543 1116 522 1116 q 597 1133 575 1116 q 618 1185 618 1149 l 635 1185 q 613 1065 635 1103 q 543 1026 591 1026 q 463 1061 516 1026 q 388 1095 410 1095 z "},"Ò":{"ha":1012,"x_min":41,"x_max":970,"o":"m 506 986 q 739 919 632 986 q 908 735 846 851 q 970 482 970 619 q 933 286 970 380 q 834 125 897 193 q 686 18 772 58 q 506 -22 600 -22 q 326 18 412 -22 q 177 125 239 58 q 78 286 115 193 q 41 482 41 380 q 78 678 41 585 q 177 839 115 772 q 326 946 239 906 q 506 986 412 986 m 344 59 q 381 27 344 59 q 506 -6 418 -6 q 668 59 593 -6 q 786 237 743 125 q 829 482 829 350 q 803 672 829 581 q 734 827 778 762 q 631 931 691 892 q 506 970 572 970 q 380 931 440 970 q 277 827 321 892 q 209 672 234 762 q 183 482 183 581 q 226 237 183 350 q 344 59 269 125 m 522 1026 l 506 1026 l 430 1168 l 543 1168 l 522 1026 z "},"Ó":{"ha":1012,"x_min":41,"x_max":970,"o":"m 506 986 q 739 919 632 986 q 908 735 846 851 q 970 482 970 619 q 933 286 970 380 q 834 125 897 193 q 686 18 772 58 q 506 -22 600 -22 q 326 18 412 -22 q 177 125 239 58 q 78 286 115 193 q 41 482 41 380 q 78 678 41 585 q 177 839 115 772 q 326 946 239 906 q 506 986 412 986 m 344 59 q 381 27 344 59 q 506 -6 418 -6 q 668 59 593 -6 q 786 237 743 125 q 829 482 829 350 q 803 672 829 581 q 734 827 778 762 q 631 931 691 892 q 506 970 572 970 q 380 931 440 970 q 277 827 321 892 q 209 672 234 762 q 183 482 183 581 q 226 237 183 350 q 344 59 269 125 m 528 1026 l 511 1026 l 491 1168 l 604 1168 l 528 1026 z "},"Ô":{"ha":1012,"x_min":41,"x_max":970,"o":"m 506 986 q 739 919 632 986 q 908 735 846 851 q 970 482 970 619 q 933 286 970 380 q 834 125 897 193 q 686 18 772 58 q 506 -22 600 -22 q 326 18 412 -22 q 177 125 239 58 q 78 286 115 193 q 41 482 41 380 q 78 678 41 585 q 177 839 115 772 q 326 946 239 906 q 506 986 412 986 m 344 59 q 381 27 344 59 q 506 -6 418 -6 q 668 59 593 -6 q 786 237 743 125 q 829 482 829 350 q 803 672 829 581 q 734 827 778 762 q 631 931 691 892 q 506 970 572 970 q 380 931 440 970 q 277 827 321 892 q 209 672 234 762 q 183 482 183 581 q 226 237 183 350 q 344 59 269 125 m 519 1140 l 462 1024 l 391 1024 l 483 1211 l 487 1204 l 483 1213 l 499 1213 l 591 1026 l 574 1026 l 519 1140 z "},"Õ":{"ha":1012,"x_min":41,"x_max":970,"o":"m 506 986 q 739 919 632 986 q 908 735 846 851 q 970 482 970 619 q 933 286 970 380 q 834 125 897 193 q 686 18 772 58 q 506 -22 600 -22 q 326 18 412 -22 q 177 125 239 58 q 78 286 115 193 q 41 482 41 380 q 78 678 41 585 q 177 839 115 772 q 326 946 239 906 q 506 986 412 986 m 344 59 q 381 27 344 59 q 506 -6 418 -6 q 668 59 593 -6 q 786 237 743 125 q 829 482 829 350 q 803 672 829 581 q 734 827 778 762 q 631 931 691 892 q 506 970 572 970 q 380 931 440 970 q 277 827 321 892 q 209 672 234 762 q 183 482 183 581 q 226 237 183 350 q 344 59 269 125 m 429 1095 q 374 1079 396 1095 q 353 1026 353 1063 l 336 1026 q 358 1146 336 1107 q 429 1185 380 1185 q 510 1151 457 1185 q 583 1116 563 1116 q 637 1132 616 1116 q 659 1185 659 1148 l 675 1185 q 653 1065 675 1103 q 583 1026 631 1026 q 504 1061 557 1026 q 429 1095 450 1095 z "},"Ö":{"ha":1012,"x_min":41,"x_max":970,"o":"m 506 986 q 739 919 632 986 q 908 735 846 851 q 970 482 970 619 q 933 286 970 380 q 834 125 897 193 q 686 18 772 58 q 506 -22 600 -22 q 326 18 412 -22 q 177 125 239 58 q 78 286 115 193 q 41 482 41 380 q 78 678 41 585 q 177 839 115 772 q 326 946 239 906 q 506 986 412 986 m 344 59 q 381 27 344 59 q 506 -6 418 -6 q 668 59 593 -6 q 786 237 743 125 q 829 482 829 350 q 803 672 829 581 q 734 827 778 762 q 631 931 691 892 q 506 970 572 970 q 380 931 440 970 q 277 827 321 892 q 209 672 234 762 q 183 482 183 581 q 226 237 183 350 q 344 59 269 125 m 492 1072 q 487 1058 492 1072 q 455 1032 481 1044 q 401 1030 429 1020 q 362 1067 374 1041 q 360 1121 350 1094 q 397 1161 370 1149 q 451 1163 423 1173 q 490 1126 478 1152 q 492 1072 503 1099 m 650 1072 q 645 1058 650 1072 q 613 1032 640 1044 q 559 1030 587 1020 q 519 1067 532 1041 q 518 1121 507 1094 q 555 1161 528 1149 q 609 1163 581 1173 q 648 1126 636 1152 q 650 1072 661 1099 z "},"×":{"ha":679,"x_min":71,"x_max":608,"o":"m 608 858 l 378 422 l 545 106 l 529 106 l 370 407 l 212 106 l 71 106 l 300 541 l 133 858 l 150 858 l 308 557 l 467 858 l 608 858 z "},"Ø":{"ha":1012,"x_min":41,"x_max":970,"o":"m 715 932 q 900 748 831 868 q 970 482 970 627 q 933 286 970 380 q 834 125 897 193 q 686 18 772 58 q 506 -22 600 -22 q 356 5 428 -22 l 354 0 l 283 0 l 296 32 q 111 216 181 96 q 41 482 41 337 q 78 678 41 585 q 177 839 115 772 q 326 946 239 906 q 506 986 412 986 q 656 960 586 986 l 657 964 l 728 964 l 715 932 m 317 86 l 642 924 q 506 970 578 970 q 380 931 440 970 q 277 827 321 892 q 209 672 234 762 q 183 482 183 581 q 219 258 183 362 q 317 86 254 154 m 506 -6 q 668 59 593 -6 q 786 237 743 125 q 829 482 829 350 q 793 706 829 602 q 694 878 757 810 l 370 39 q 506 -6 434 -6 z "},"Ù":{"ha":929,"x_min":16,"x_max":920,"o":"m 642 964 l 920 964 l 920 947 q 820 911 850 947 q 789 786 789 875 l 789 255 q 777 137 789 186 q 740 58 764 89 q 676 9 717 26 q 588 -16 636 -9 q 471 -22 541 -22 q 388 -21 423 -22 q 315 -13 353 -19 q 250 2 277 -7 q 199 29 224 12 q 159 70 174 46 q 136 127 144 94 q 127 204 127 161 l 127 899 q 100 936 127 925 q 16 947 74 947 l 16 964 l 127 964 l 269 964 l 380 964 l 380 947 q 295 936 321 947 q 269 899 269 925 l 269 204 q 277 131 269 163 q 298 77 285 99 q 331 40 311 56 q 370 15 351 24 q 415 2 389 7 q 462 -5 441 -3 q 509 -6 483 -6 q 596 0 559 -6 q 669 23 634 6 q 725 68 703 39 q 760 143 747 96 q 773 255 773 191 l 773 786 q 743 911 773 875 q 642 947 713 947 l 642 964 m 514 1026 l 497 1026 l 422 1168 l 534 1168 l 514 1026 z "},"Ú":{"ha":929,"x_min":16,"x_max":920,"o":"m 642 964 l 920 964 l 920 947 q 820 911 850 947 q 789 786 789 875 l 789 255 q 777 137 789 186 q 740 58 764 89 q 676 9 717 26 q 588 -16 636 -9 q 471 -22 541 -22 q 388 -21 423 -22 q 315 -13 353 -19 q 250 2 277 -7 q 199 29 224 12 q 159 70 174 46 q 136 127 144 94 q 127 204 127 161 l 127 899 q 100 936 127 925 q 16 947 74 947 l 16 964 l 127 964 l 269 964 l 380 964 l 380 947 q 295 936 321 947 q 269 899 269 925 l 269 204 q 277 131 269 163 q 298 77 285 99 q 331 40 311 56 q 370 15 351 24 q 415 2 389 7 q 462 -5 441 -3 q 509 -6 483 -6 q 596 0 559 -6 q 669 23 634 6 q 725 68 703 39 q 760 143 747 96 q 773 255 773 191 l 773 901 l 773 786 q 743 911 773 875 q 642 947 713 947 l 642 964 m 515 1026 l 498 1026 l 478 1168 l 591 1168 l 515 1026 z "},"Û":{"ha":929,"x_min":16,"x_max":920,"o":"m 642 964 l 920 964 l 920 947 q 820 911 850 947 q 789 786 789 875 l 789 255 q 777 137 789 186 q 740 58 764 89 q 676 9 717 26 q 588 -16 636 -9 q 471 -22 541 -22 q 388 -21 423 -22 q 315 -13 353 -19 q 250 2 277 -7 q 199 29 224 12 q 159 70 174 46 q 136 127 144 94 q 127 204 127 161 l 127 899 q 100 936 127 925 q 16 947 74 947 l 16 964 l 127 964 l 269 964 l 380 964 l 380 947 q 295 936 321 947 q 269 899 269 925 l 269 204 q 277 131 269 163 q 298 77 285 99 q 331 40 311 56 q 370 15 351 24 q 415 2 389 7 q 462 -5 441 -3 q 509 -6 483 -6 q 596 0 559 -6 q 669 23 634 6 q 725 68 703 39 q 760 143 747 96 q 773 255 773 191 l 773 786 q 743 911 773 875 q 642 947 713 947 l 642 964 m 533 1141 l 477 1026 l 406 1026 l 498 1213 l 514 1213 l 606 1026 l 589 1026 l 533 1141 z "},"Ü":{"ha":929,"x_min":16,"x_max":920,"o":"m 642 964 l 920 964 l 920 947 q 820 911 850 947 q 789 786 789 875 l 789 255 q 777 137 789 186 q 740 58 764 89 q 676 9 717 26 q 588 -16 636 -9 q 471 -22 541 -22 q 388 -21 423 -22 q 315 -13 353 -19 q 250 2 277 -7 q 199 29 224 12 q 159 70 174 46 q 136 127 144 94 q 127 204 127 161 l 127 899 q 100 936 127 925 q 16 947 74 947 l 16 964 l 127 964 l 269 964 l 380 964 l 380 947 q 295 936 321 947 q 269 899 269 925 l 269 204 q 277 131 269 163 q 298 77 285 99 q 331 40 311 56 q 370 15 351 24 q 415 2 389 7 q 462 -5 441 -3 q 509 -6 483 -6 q 596 0 559 -6 q 669 23 634 6 q 725 68 703 39 q 760 143 747 96 q 773 255 773 191 l 773 786 q 743 911 773 875 q 642 947 713 947 l 642 964 m 432 1095 q 378 1079 399 1095 q 356 1026 356 1063 l 340 1026 q 362 1147 340 1108 q 432 1185 384 1185 q 484 1168 454 1185 q 542 1134 514 1151 q 587 1116 569 1116 q 641 1133 619 1116 q 663 1185 663 1149 l 679 1185 q 657 1065 679 1103 q 587 1026 635 1026 q 507 1061 560 1026 q 432 1095 454 1095 z "},"Ý":{"ha":956,"x_min":-7,"x_max":962,"o":"m 829 964 l 962 964 l 962 947 q 839 914 887 947 q 757 812 790 881 l 528 330 l 528 65 q 555 27 528 39 q 640 16 582 16 l 640 0 l 275 0 l 275 16 q 360 27 334 16 q 387 65 387 39 l 387 330 l 117 899 q 77 937 104 927 q -7 947 51 947 l -7 964 l 358 964 l 358 947 q 271 937 297 947 q 258 899 245 926 l 520 348 l 741 812 q 731 912 771 877 q 597 947 691 947 l 597 964 l 829 964 m 522 986 l 505 986 l 485 1127 l 597 1127 l 522 986 z "},"Þ":{"ha":831,"x_min":22,"x_max":808,"o":"m 376 224 q 275 228 351 224 l 275 65 q 302 27 275 39 q 387 16 329 16 l 387 0 l 22 0 l 22 16 q 107 27 81 16 q 134 65 134 39 l 134 899 q 107 936 134 925 q 22 947 81 947 l 22 964 l 387 964 l 387 947 q 302 936 329 947 q 275 899 275 925 l 275 736 q 376 740 351 740 q 694 668 581 740 q 808 482 808 597 q 694 296 808 368 q 376 224 581 224 m 275 719 l 275 245 q 376 240 348 240 q 587 309 507 240 q 667 482 667 378 q 587 655 667 587 q 376 724 507 724 q 275 719 348 724 z "},"ß":{"ha":1015,"x_min":28,"x_max":969,"o":"m 440 534 q 458 498 440 511 q 507 481 476 486 q 577 475 538 476 q 661 473 617 474 q 748 468 705 472 q 832 452 792 465 q 902 417 871 439 q 951 356 933 395 q 969 262 969 317 q 903 124 969 184 q 727 32 836 63 q 488 0 618 0 l 488 16 q 733 84 639 16 q 828 262 828 152 q 806 348 828 313 q 748 398 783 382 q 669 424 712 414 q 582 438 625 433 q 504 453 539 444 q 446 482 468 462 q 423 534 423 502 q 436 576 423 559 q 471 605 450 594 q 517 625 492 615 q 568 647 543 635 q 614 676 593 659 q 648 722 635 693 q 661 791 661 751 q 604 920 661 871 q 421 970 546 970 q 281 961 380 970 l 281 0 l 28 0 l 28 16 q 113 27 86 16 q 140 65 140 39 l 140 899 q 113 936 140 925 q 28 947 86 947 l 28 964 l 140 964 q 463 986 369 986 q 593 975 535 986 q 689 946 650 964 q 753 903 728 928 q 791 849 779 878 q 802 791 802 821 q 782 716 802 748 q 730 666 762 684 q 660 634 699 648 q 583 612 621 621 q 512 594 544 604 q 460 570 480 585 q 440 534 440 555 z "},"à":{"ha":808,"x_min":62,"x_max":715,"o":"m 405 803 l 389 803 l 313 944 l 425 944 l 405 803 m 388 762 q 637 723 560 762 q 715 603 715 684 l 715 0 l 692 0 q 658 84 692 50 q 574 119 623 119 q 533 104 551 119 q 499 69 514 90 q 467 27 485 48 q 420 -8 450 7 q 351 -22 391 -22 q 245 -9 294 -22 q 153 34 195 5 q 87 114 111 62 q 62 237 62 166 q 87 354 62 302 q 153 435 111 405 q 245 480 195 465 q 351 495 295 495 q 508 523 443 495 q 574 603 574 551 q 526 709 574 673 q 367 746 477 746 q 249 719 299 746 q 199 641 199 692 q 214 587 199 611 q 262 564 229 564 q 339 612 304 564 l 353 604 q 305 557 336 573 q 239 541 274 541 q 147 564 185 541 q 109 632 109 588 q 388 762 109 762 m 574 135 l 574 554 q 490 498 547 518 q 375 479 433 479 q 249 417 294 479 q 203 237 203 356 q 375 -6 203 -6 q 424 8 402 -6 q 461 44 446 23 q 492 85 477 64 q 528 120 507 106 q 574 135 549 135 z "},"á":{"ha":808,"x_min":62,"x_max":715,"o":"m 399 803 l 383 803 l 363 944 l 475 944 l 399 803 m 388 762 q 637 723 560 762 q 715 603 715 684 l 715 0 l 692 0 q 658 84 692 50 q 574 119 623 119 q 533 104 551 119 q 499 69 514 90 q 467 27 485 48 q 420 -8 450 7 q 351 -22 391 -22 q 245 -9 294 -22 q 153 34 195 5 q 87 114 111 62 q 62 237 62 166 q 87 354 62 302 q 153 435 111 405 q 245 480 195 465 q 351 495 295 495 q 508 523 443 495 q 574 603 574 551 q 526 709 574 673 q 367 746 477 746 q 249 719 299 746 q 199 641 199 692 q 214 587 199 611 q 262 564 229 564 q 339 612 304 564 l 353 604 q 305 557 336 573 q 239 541 274 541 q 147 564 185 541 q 109 632 109 588 q 388 762 109 762 m 574 135 l 574 554 q 490 498 547 518 q 375 479 433 479 q 249 417 294 479 q 203 237 203 356 q 375 -6 203 -6 q 424 8 402 -6 q 461 44 446 23 q 492 85 477 64 q 528 120 507 106 q 574 135 549 135 z "},"â":{"ha":808,"x_min":62,"x_max":715,"o":"m 426 918 l 370 803 l 299 803 l 391 989 l 408 989 l 499 803 l 483 803 l 426 918 m 388 762 q 637 723 560 762 q 715 603 715 684 l 715 0 l 692 0 q 658 84 692 50 q 574 119 623 119 q 533 104 551 119 q 499 69 514 90 q 467 27 485 48 q 420 -8 450 7 q 351 -22 391 -22 q 245 -9 294 -22 q 153 34 195 5 q 87 114 111 62 q 62 237 62 166 q 87 354 62 302 q 153 435 111 405 q 245 480 195 465 q 351 495 295 495 q 508 523 443 495 q 574 603 574 551 q 526 709 574 673 q 367 746 477 746 q 249 719 299 746 q 199 641 199 692 q 214 587 199 611 q 262 564 229 564 q 339 612 304 564 l 353 604 q 305 557 336 573 q 239 541 274 541 q 147 564 185 541 q 109 632 109 588 q 388 762 109 762 m 574 135 l 574 554 q 490 498 547 518 q 375 479 433 479 q 249 417 294 479 q 203 237 203 356 q 375 -6 203 -6 q 424 8 402 -6 q 461 44 446 23 q 492 85 477 64 q 528 120 507 106 q 574 135 549 135 z "},"ã":{"ha":808,"x_min":62,"x_max":715,"o":"m 335 871 q 281 856 302 871 q 259 803 259 840 l 243 803 q 265 923 243 884 q 335 962 287 962 q 416 927 363 962 q 490 892 469 892 q 544 909 522 892 q 566 962 566 925 l 582 962 q 560 842 582 880 q 490 803 538 803 q 410 837 463 803 q 335 871 357 871 m 388 762 q 637 723 560 762 q 715 603 715 684 l 715 0 l 692 0 q 658 84 692 50 q 574 119 623 119 q 533 104 551 119 q 499 69 514 90 q 467 27 485 48 q 420 -8 450 7 q 351 -22 391 -22 q 245 -9 294 -22 q 153 34 195 5 q 87 114 111 62 q 62 237 62 166 q 87 354 62 302 q 153 435 111 405 q 245 480 195 465 q 351 495 295 495 q 508 523 443 495 q 574 603 574 551 q 526 709 574 673 q 367 746 477 746 q 249 719 299 746 q 199 641 199 692 q 214 587 199 611 q 262 564 229 564 q 339 612 304 564 l 353 604 q 305 557 336 573 q 239 541 274 541 q 147 564 185 541 q 109 632 109 588 q 388 762 109 762 m 574 135 l 574 554 q 490 498 547 518 q 375 479 433 479 q 249 417 294 479 q 203 237 203 356 q 375 -6 203 -6 q 424 8 402 -6 q 461 44 446 23 q 492 85 477 64 q 528 120 507 106 q 574 135 549 135 z "},"ä":{"ha":808,"x_min":62,"x_max":715,"o":"m 361 808 q 307 808 334 797 q 269 846 279 819 q 268 901 257 873 q 307 939 279 928 q 361 939 334 950 q 399 901 388 928 q 399 846 410 873 q 361 808 388 819 m 518 808 q 464 808 491 797 q 426 846 437 819 q 426 901 414 873 q 464 939 437 928 q 518 939 491 950 q 556 901 545 928 q 556 846 568 873 q 518 808 545 819 m 388 762 q 637 723 560 762 q 715 603 715 684 l 715 0 l 692 0 q 658 84 692 50 q 574 119 623 119 q 533 104 551 119 q 499 69 514 90 q 467 27 485 48 q 420 -8 450 7 q 351 -22 391 -22 q 245 -9 294 -22 q 153 34 195 5 q 87 114 111 62 q 62 237 62 166 q 87 354 62 302 q 153 435 111 405 q 245 480 195 465 q 351 495 295 495 q 508 523 443 495 q 574 603 574 551 q 526 709 574 673 q 367 746 477 746 q 249 719 299 746 q 199 641 199 692 q 214 587 199 611 q 262 564 229 564 q 339 612 304 564 l 353 604 q 305 557 336 573 q 239 541 274 541 q 147 564 185 541 q 109 632 109 588 q 388 762 109 762 m 574 135 l 574 554 q 490 498 547 518 q 375 479 433 479 q 249 417 294 479 q 203 237 203 356 q 375 -6 203 -6 q 424 8 402 -6 q 461 44 446 23 q 492 85 477 64 q 528 120 507 106 q 574 135 549 135 z "},"å":{"ha":808,"x_min":62,"x_max":715,"o":"m 484 833 q 469 818 484 833 q 412 803 454 803 q 341 833 370 803 q 311 904 311 863 q 341 975 311 945 q 412 1005 370 1005 q 484 975 454 1005 q 513 904 513 945 q 484 833 513 863 m 462 954 q 452 964 462 954 q 412 975 441 975 q 362 954 383 975 q 342 904 342 933 q 362 854 342 875 q 412 833 383 833 q 462 854 441 833 q 483 904 483 875 q 462 954 483 933 m 388 762 q 637 723 560 762 q 715 603 715 684 l 715 0 l 692 0 q 658 84 692 50 q 574 119 623 119 q 533 104 551 119 q 499 69 514 90 q 467 27 485 48 q 420 -8 450 7 q 351 -22 391 -22 q 245 -9 294 -22 q 153 34 195 5 q 87 114 111 62 q 62 237 62 166 q 87 354 62 302 q 153 435 111 405 q 245 480 195 465 q 351 495 295 495 q 508 523 443 495 q 574 603 574 551 q 526 709 574 673 q 367 746 477 746 q 249 719 299 746 q 199 641 199 692 q 214 587 199 611 q 262 564 229 564 q 339 612 304 564 l 353 604 q 305 557 336 573 q 239 541 274 541 q 147 564 185 541 q 109 632 109 588 q 388 762 109 762 m 574 135 l 574 554 q 490 498 547 518 q 375 479 433 479 q 249 417 294 479 q 203 237 203 356 q 375 -6 203 -6 q 424 8 402 -6 q 461 44 446 23 q 492 85 477 64 q 528 120 507 106 q 574 135 549 135 z "},"æ":{"ha":1335,"x_min":62,"x_max":1291,"o":"m 1278 221 l 1291 214 q 1240 123 1270 164 q 1169 49 1210 83 q 1072 -4 1128 15 q 951 -22 1016 -22 q 715 64 817 -22 q 574 119 637 119 q 533 104 551 119 q 499 69 514 90 q 467 27 485 48 q 420 -8 450 7 q 351 -22 391 -22 q 245 -9 294 -22 q 153 34 195 5 q 87 114 111 62 q 62 237 62 166 q 87 354 62 302 q 153 435 111 405 q 245 480 195 465 q 351 495 295 495 q 508 523 443 495 q 574 603 574 551 q 526 709 574 673 q 367 746 477 746 q 249 719 299 746 q 199 641 199 692 q 214 587 199 611 q 262 564 229 564 q 339 612 304 564 l 353 604 q 305 557 336 573 q 239 541 274 541 q 147 564 185 541 q 109 632 109 588 q 388 762 109 762 q 701 664 651 762 q 951 762 808 762 q 1057 752 1008 762 q 1146 721 1105 742 q 1210 664 1187 701 q 1234 580 1234 628 q 964 416 1234 416 q 869 400 910 416 q 805 358 828 384 q 769 300 782 332 q 754 235 755 269 q 758 172 753 201 q 775 119 764 142 q 854 27 808 60 q 951 -6 899 -6 q 1278 221 1168 -6 m 574 135 l 574 554 q 490 498 547 518 q 375 479 433 479 q 249 417 294 479 q 203 237 203 356 q 375 -6 203 -6 q 424 8 402 -6 q 461 44 446 23 q 492 85 477 64 q 528 120 507 106 q 574 135 549 135 m 715 370 q 738 210 715 289 q 744 275 737 243 q 769 336 751 307 q 811 389 786 366 q 876 425 837 412 q 964 439 916 439 q 1056 478 1019 439 q 1093 587 1093 517 q 1086 638 1093 612 q 1065 689 1080 663 q 1020 730 1050 714 q 951 746 991 746 q 832 696 887 746 q 746 559 778 646 q 715 370 715 472 z "},"ç":{"ha":818,"x_min":60,"x_max":777,"o":"m 764 221 l 777 214 q 726 123 755 164 q 655 49 696 83 q 558 -4 614 15 q 437 -22 502 -22 q 305 2 369 -22 l 278 -48 q 363 -74 334 -43 q 379 -140 393 -105 q 343 -178 368 -168 q 288 -177 318 -189 q 233 -106 216 -149 q 275 -90 244 -78 q 294 -113 292 -97 l 292 -113 q 281 -99 289 -102 q 268 -102 274 -97 q 258 -115 261 -107 q 283 -172 242 -155 q 326 -169 308 -181 q 352 -134 343 -156 q 346 -73 367 -97 q 277 -52 324 -49 l 275 -52 l 273 -52 l 273 -52 l 302 3 q 127 146 195 46 q 60 370 60 246 q 90 523 60 450 q 170 648 119 595 q 291 731 221 701 q 437 762 361 762 q 634 706 559 762 q 709 566 709 650 q 665 465 709 513 q 548 418 621 418 q 470 435 511 418 q 412 481 429 452 l 427 490 q 505 441 462 441 q 542 463 526 441 q 562 508 557 485 q 568 548 568 531 q 564 603 568 576 q 552 655 561 629 q 529 702 543 682 q 491 733 515 721 q 437 746 468 746 q 319 696 374 746 q 233 559 264 646 q 201 370 201 472 q 232 181 201 268 q 318 44 264 95 q 437 -6 373 -6 q 764 221 654 -6 z "},"è":{"ha":821,"x_min":60,"x_max":777,"o":"m 467 803 l 450 803 l 374 944 l 487 944 l 467 803 m 764 221 l 777 214 q 726 123 755 164 q 655 49 696 83 q 558 -4 614 15 q 437 -22 502 -22 q 248 30 334 -22 q 110 173 161 83 q 60 370 60 264 q 110 567 60 477 q 248 710 161 658 q 437 762 334 762 q 543 752 494 762 q 632 721 591 742 q 696 664 673 701 q 720 580 720 628 q 450 416 720 416 q 355 400 396 416 q 291 358 314 384 q 255 300 268 332 q 240 235 241 269 q 244 172 239 201 q 261 119 250 142 q 340 27 294 60 q 437 -6 385 -6 q 764 221 654 -6 m 201 370 q 224 210 201 289 q 230 275 223 243 q 255 336 237 307 q 297 389 272 366 q 362 425 323 412 q 450 439 401 439 q 542 478 505 439 q 578 587 578 517 q 572 638 578 612 q 551 689 566 663 q 506 730 536 714 q 437 746 477 746 q 318 696 373 746 q 232 559 264 646 q 201 370 201 472 z "},"é":{"ha":821,"x_min":60,"x_max":777,"o":"m 469 803 l 452 803 l 432 944 l 544 944 l 469 803 m 764 221 l 777 214 q 726 123 755 164 q 655 49 696 83 q 558 -4 614 15 q 437 -22 502 -22 q 248 30 334 -22 q 110 173 161 83 q 60 370 60 264 q 110 567 60 477 q 248 710 161 658 q 437 762 334 762 q 543 752 494 762 q 632 721 591 742 q 696 664 673 701 q 720 580 720 628 q 450 416 720 416 q 355 400 396 416 q 291 358 314 384 q 255 300 268 332 q 240 235 241 269 q 244 172 239 201 q 261 119 250 142 q 340 27 294 60 q 437 -6 385 -6 q 764 221 654 -6 m 201 370 q 224 210 201 289 q 230 275 223 243 q 255 336 237 307 q 297 389 272 366 q 362 425 323 412 q 450 439 401 439 q 542 478 505 439 q 578 587 578 517 q 572 638 578 612 q 551 689 566 663 q 506 730 536 714 q 437 746 477 746 q 318 696 373 746 q 232 559 264 646 q 201 370 201 472 z "},"ê":{"ha":821,"x_min":60,"x_max":777,"o":"m 473 918 l 416 803 l 346 803 l 438 989 l 454 989 l 546 803 l 530 803 l 473 918 m 764 221 l 777 214 q 726 123 755 164 q 655 49 696 83 q 558 -4 614 15 q 437 -22 502 -22 q 248 30 334 -22 q 110 173 161 83 q 60 370 60 264 q 110 567 60 477 q 248 710 161 658 q 437 762 334 762 q 543 752 494 762 q 632 721 591 742 q 696 664 673 701 q 720 580 720 628 q 450 416 720 416 q 355 400 396 416 q 291 358 314 384 q 255 300 268 332 q 240 235 241 269 q 244 172 239 201 q 261 119 250 142 q 340 27 294 60 q 437 -6 385 -6 q 764 221 654 -6 m 201 370 q 224 210 201 289 q 230 275 223 243 q 255 336 237 307 q 297 389 272 366 q 362 425 323 412 q 450 439 401 439 q 542 478 505 439 q 578 587 578 517 q 572 638 578 612 q 551 689 566 663 q 506 730 536 714 q 437 746 477 746 q 318 696 373 746 q 232 559 264 646 q 201 370 201 472 z "},"ë":{"ha":821,"x_min":60,"x_max":777,"o":"m 405 846 q 367 808 394 819 q 313 808 340 797 q 274 846 286 819 q 275 901 263 873 q 313 939 286 928 q 367 939 340 950 q 405 901 394 928 q 405 846 416 873 m 555 832 q 546 820 555 832 q 509 804 538 808 q 456 816 479 799 q 428 862 433 833 q 440 915 423 891 q 486 943 457 939 q 539 931 515 948 q 567 885 562 914 q 555 832 572 856 m 764 221 l 777 214 q 726 123 755 164 q 655 49 696 83 q 558 -4 614 15 q 437 -22 502 -22 q 248 30 334 -22 q 110 173 161 83 q 60 370 60 264 q 110 567 60 477 q 248 710 161 658 q 437 762 334 762 q 543 752 494 762 q 632 721 591 742 q 696 664 673 701 q 720 580 720 628 q 450 416 720 416 q 355 400 396 416 q 291 358 314 384 q 255 300 268 332 q 240 235 241 269 q 244 172 239 201 q 261 119 250 142 q 340 27 294 60 q 437 -6 385 -6 q 764 221 654 -6 m 201 370 q 224 210 201 289 q 230 275 223 243 q 255 336 237 307 q 297 389 272 366 q 362 425 323 412 q 450 439 401 439 q 542 478 505 439 q 578 587 578 517 q 572 638 578 612 q 551 689 566 663 q 506 730 536 714 q 437 746 477 746 q 318 696 373 746 q 232 559 264 646 q 201 370 201 472 z "},"ì":{"ha":431,"x_min":39,"x_max":404,"o":"m 292 65 q 318 27 292 39 q 404 16 345 16 l 404 0 l 39 0 l 39 16 q 124 27 97 16 q 151 65 151 39 l 151 463 q 147 509 151 489 q 135 542 143 529 q 118 562 127 554 q 94 574 109 570 q 68 579 80 578 q 39 580 56 580 l 39 597 q 275 740 275 597 l 292 740 l 292 65 m 190 810 l 174 810 l 98 951 l 210 951 l 190 810 z "},"í":{"ha":431,"x_min":39,"x_max":404,"o":"m 292 65 q 318 27 292 39 q 404 16 345 16 l 404 0 l 39 0 l 39 16 q 124 27 97 16 q 151 65 151 39 l 151 463 q 147 509 151 489 q 135 542 143 529 q 118 562 127 554 q 94 574 109 570 q 68 579 80 578 q 39 580 56 580 l 39 597 q 275 740 275 597 l 292 740 l 292 65 m 257 810 l 241 810 l 220 951 l 333 951 l 257 810 z "},"î":{"ha":431,"x_min":39,"x_max":404,"o":"m 292 65 q 318 27 292 39 q 404 16 345 16 l 404 0 l 39 0 l 39 16 q 124 27 97 16 q 151 65 151 39 l 151 463 q 147 509 151 489 q 135 542 143 529 q 118 562 127 554 q 94 574 109 570 q 68 579 80 578 q 39 580 56 580 l 39 597 q 275 740 275 597 l 292 740 l 292 65 m 222 925 l 165 810 l 95 810 l 186 997 l 203 997 l 295 810 l 279 810 l 222 925 z "},"ï":{"ha":433,"x_min":40,"x_max":405,"o":"m 293 65 q 320 27 293 39 q 405 16 347 16 l 405 0 l 40 0 l 40 16 q 125 27 98 16 q 152 65 152 39 l 152 463 q 148 509 152 489 q 136 542 144 529 q 119 562 128 554 q 96 574 110 570 q 70 579 81 578 q 40 580 58 580 l 40 597 q 277 740 277 597 l 293 740 l 293 65 m 181 923 q 190 911 181 923 q 193 870 198 899 q 165 824 189 841 q 113 812 142 807 q 66 840 83 817 q 54 892 50 863 q 82 939 59 922 q 135 951 106 956 q 181 923 164 946 m 288 810 q 236 826 258 808 q 210 873 214 844 q 226 925 208 903 q 274 951 245 947 q 325 935 303 954 q 351 888 347 917 q 335 836 353 859 q 288 810 317 814 z "},"ð":{"ha":882,"x_min":60,"x_max":814,"o":"m 458 945 q 722 738 630 884 q 814 370 814 593 q 763 173 814 264 q 626 30 713 83 q 437 -22 539 -22 q 248 30 334 -22 q 110 173 161 83 q 60 370 60 264 q 110 567 60 477 q 248 710 161 658 q 437 762 334 762 q 598 725 522 762 q 403 922 528 860 q 300 846 338 892 q 262 743 262 800 l 190 743 q 233 860 190 808 q 355 943 276 911 q 190 970 279 970 l 190 986 q 407 960 307 986 q 618 986 500 986 l 618 970 q 458 945 538 970 m 318 44 q 346 19 318 44 q 437 -6 373 -6 q 555 44 500 -6 q 641 181 610 95 q 673 370 673 268 l 673 380 q 639 564 671 479 q 553 697 607 648 q 437 746 500 746 q 318 696 373 746 q 232 559 264 646 q 201 370 201 472 q 232 181 201 268 q 318 44 264 95 z "},"ñ":{"ha":941,"x_min":39,"x_max":915,"o":"m 439 871 q 385 856 406 871 q 363 803 363 840 l 347 803 q 369 923 347 884 q 439 962 391 962 q 491 944 461 962 q 548 910 521 927 q 593 892 576 892 q 648 909 626 892 q 669 962 669 925 l 686 962 q 664 842 686 880 q 593 803 642 803 q 514 837 567 803 q 439 871 460 871 m 803 65 q 830 27 803 39 q 915 16 857 16 l 915 0 l 550 0 l 550 16 q 635 27 608 16 q 662 65 662 39 l 662 548 q 612 698 662 650 q 477 746 563 746 q 367 716 420 746 q 292 648 314 686 l 292 65 q 318 27 292 39 q 404 16 345 16 l 404 0 l 39 0 l 39 16 q 124 27 97 16 q 151 65 151 39 l 151 463 q 147 509 151 489 q 135 542 143 529 q 118 562 127 554 q 94 574 109 570 q 68 579 80 578 q 39 580 56 580 l 39 597 q 275 740 275 597 l 292 740 l 292 671 q 501 762 365 762 q 610 750 558 762 q 706 714 661 739 q 777 647 750 690 q 803 548 803 604 l 803 65 z "},"ò":{"ha":875,"x_min":60,"x_max":814,"o":"m 452 803 l 435 803 l 359 944 l 471 944 l 452 803 m 248 710 q 291 736 248 710 q 437 762 334 762 q 626 710 539 762 q 763 567 713 658 q 814 370 814 477 q 763 173 814 264 q 626 30 713 83 q 437 -22 539 -22 q 248 30 334 -22 q 110 173 161 83 q 60 370 60 264 q 110 567 60 477 q 248 710 161 658 m 318 44 q 346 19 318 44 q 437 -6 373 -6 q 555 44 500 -6 q 641 181 610 95 q 673 370 673 268 q 641 559 673 472 q 555 696 610 646 q 437 746 500 746 q 318 696 373 746 q 232 559 264 646 q 201 370 201 472 q 232 181 201 268 q 318 44 264 95 z "},"ó":{"ha":875,"x_min":60,"x_max":814,"o":"m 453 803 l 437 803 l 416 944 l 529 944 l 453 803 m 248 710 q 291 736 248 710 q 437 762 334 762 q 626 710 539 762 q 763 567 713 658 q 814 370 814 477 q 763 173 814 264 q 626 30 713 83 q 437 -22 539 -22 q 248 30 334 -22 q 110 173 161 83 q 60 370 60 264 q 110 567 60 477 q 248 710 161 658 m 318 44 q 346 19 318 44 q 437 -6 373 -6 q 555 44 500 -6 q 641 181 610 95 q 673 370 673 268 q 641 559 673 472 q 555 696 610 646 q 437 746 500 746 q 318 696 373 746 q 232 559 264 646 q 201 370 201 472 q 232 181 201 268 q 318 44 264 95 z "},"ô":{"ha":875,"x_min":60,"x_max":814,"o":"m 464 918 l 408 803 l 337 803 l 429 989 l 445 989 l 537 803 l 521 803 l 464 918 m 248 710 q 291 736 248 710 q 437 762 334 762 q 626 710 539 762 q 763 567 713 658 q 814 370 814 477 q 763 173 814 264 q 626 30 713 83 q 437 -22 539 -22 q 248 30 334 -22 q 110 173 161 83 q 60 370 60 264 q 110 567 60 477 q 248 710 161 658 m 318 44 q 346 19 318 44 q 437 -6 373 -6 q 555 44 500 -6 q 641 181 610 95 q 673 370 673 268 q 641 559 673 472 q 555 696 610 646 q 437 746 500 746 q 318 696 373 746 q 232 559 264 646 q 201 370 201 472 q 232 181 201 268 q 318 44 264 95 z "},"õ":{"ha":875,"x_min":60,"x_max":814,"o":"m 367 871 q 313 856 334 871 q 291 803 291 840 l 275 803 q 297 923 275 884 q 367 962 319 962 q 419 944 389 962 q 476 910 449 927 q 522 892 504 892 q 576 909 554 892 q 597 962 597 925 l 614 962 q 592 842 614 880 q 522 803 570 803 q 442 837 495 803 q 367 871 389 871 m 248 710 q 291 736 248 710 q 437 762 334 762 q 626 710 539 762 q 763 567 713 658 q 814 370 814 477 q 763 173 814 264 q 626 30 713 83 q 437 -22 539 -22 q 248 30 334 -22 q 110 173 161 83 q 60 370 60 264 q 110 567 60 477 q 248 710 161 658 m 318 44 q 346 19 318 44 q 437 -6 373 -6 q 555 44 500 -6 q 641 181 610 95 q 673 370 673 268 q 641 559 673 472 q 555 696 610 646 q 437 746 500 746 q 318 696 373 746 q 232 559 264 646 q 201 370 201 472 q 232 181 201 268 q 318 44 264 95 z "},"ö":{"ha":875,"x_min":60,"x_max":814,"o":"m 408 824 q 398 813 408 824 q 358 803 387 803 q 308 824 329 803 q 288 873 288 844 q 308 923 288 903 q 358 944 329 944 q 408 923 387 944 q 429 873 429 903 q 408 824 429 844 m 566 824 q 555 813 566 824 q 515 803 545 803 q 466 824 486 803 q 445 873 445 844 q 466 923 445 903 q 515 944 486 944 q 566 923 545 944 q 587 873 587 903 q 566 824 587 844 m 248 710 q 291 736 248 710 q 437 762 334 762 q 626 710 539 762 q 763 567 713 658 q 814 370 814 477 q 763 173 814 264 q 626 30 713 83 q 437 -22 539 -22 q 248 30 334 -22 q 110 173 161 83 q 60 370 60 264 q 110 567 60 477 q 248 710 161 658 m 318 44 q 346 19 318 44 q 437 -6 373 -6 q 555 44 500 -6 q 641 181 610 95 q 673 370 673 268 q 641 559 673 472 q 555 696 610 646 q 437 746 500 746 q 318 696 373 746 q 232 559 264 646 q 201 370 201 472 q 232 181 201 268 q 318 44 264 95 z "},"÷":{"ha":862,"x_min":60,"x_max":802,"o":"m 802 335 l 60 335 l 60 406 l 802 406 l 802 335 m 458 125 q 404 126 431 115 q 366 164 377 137 q 366 218 355 191 q 404 256 377 245 q 458 256 431 267 q 496 218 485 245 q 496 164 507 191 q 458 125 485 137 m 458 484 q 404 485 431 473 q 366 523 377 496 q 366 577 355 550 q 404 615 377 604 q 458 615 431 626 q 496 576 485 604 q 496 523 507 549 q 458 484 485 496 z "},"ø":{"ha":875,"x_min":60,"x_max":814,"o":"m 608 720 q 758 576 701 670 q 814 370 814 483 q 763 173 814 264 q 626 30 713 83 q 437 -22 539 -22 q 327 -5 381 -22 l 286 -112 l 215 -112 l 266 20 q 116 164 173 70 q 60 370 60 258 q 110 567 60 477 q 248 710 161 658 q 437 762 334 762 q 547 745 493 762 l 589 852 l 659 852 l 608 720 m 288 78 l 534 712 q 437 746 488 746 q 318 696 373 746 q 232 559 264 646 q 201 370 201 472 q 224 207 201 283 q 288 78 248 131 m 437 -6 q 555 44 500 -6 q 641 181 610 95 q 673 370 673 268 q 649 533 673 457 q 585 662 626 609 l 339 28 q 437 -6 386 -6 z "},"ù":{"ha":930,"x_min":26,"x_max":903,"o":"m 791 740 l 903 740 l 903 724 q 818 712 844 724 q 791 675 791 701 l 791 0 l 768 0 q 734 84 768 50 q 650 119 699 119 q 609 104 627 119 q 575 69 590 90 q 543 27 560 48 q 495 -8 525 7 q 427 -22 466 -22 q 320 -11 370 -22 q 229 26 271 1 q 163 93 187 50 q 138 192 138 136 l 138 675 q 112 712 138 701 q 26 724 85 724 l 26 740 l 391 740 l 391 724 q 306 712 333 724 q 279 675 279 701 l 279 192 q 323 41 279 88 q 451 -6 368 -6 q 500 8 478 -6 q 537 44 522 23 q 568 85 553 64 q 604 120 583 106 q 650 135 625 135 l 650 675 q 623 712 650 701 q 538 724 596 724 l 538 740 l 791 740 m 477 803 l 461 803 l 385 944 l 498 944 l 477 803 z "},"ú":{"ha":930,"x_min":26,"x_max":903,"o":"m 791 740 l 903 740 l 903 724 q 818 712 844 724 q 791 675 791 701 l 791 0 l 768 0 q 734 84 768 50 q 650 119 699 119 q 609 104 627 119 q 575 69 590 90 q 543 27 560 48 q 495 -8 525 7 q 427 -22 466 -22 q 320 -11 370 -22 q 229 26 271 1 q 163 93 187 50 q 138 192 138 136 l 138 675 q 112 712 138 701 q 26 724 85 724 l 26 740 l 391 740 l 391 724 q 306 712 333 724 q 279 675 279 701 l 279 192 q 323 41 279 88 q 451 -6 368 -6 q 500 8 478 -6 q 537 44 522 23 q 568 85 553 64 q 604 120 583 106 q 650 135 625 135 l 650 675 q 623 712 650 701 q 538 724 596 724 l 538 740 l 791 740 m 486 803 l 469 803 l 449 944 l 561 944 l 486 803 z "},"û":{"ha":930,"x_min":26,"x_max":903,"o":"m 791 740 l 903 740 l 903 724 q 818 712 844 724 q 791 675 791 701 l 791 0 l 768 0 q 734 84 768 50 q 650 119 699 119 q 609 104 627 119 q 575 69 590 90 q 543 27 560 48 q 495 -8 525 7 q 427 -22 466 -22 q 320 -11 370 -22 q 229 26 271 1 q 163 93 187 50 q 138 192 138 136 l 138 675 q 112 712 138 701 q 26 724 85 724 l 26 740 l 391 740 l 391 724 q 306 712 333 724 q 279 675 279 701 l 279 192 q 323 41 279 88 q 451 -6 368 -6 q 500 8 478 -6 q 537 44 522 23 q 568 85 553 64 q 604 120 583 106 q 650 135 625 135 l 650 675 q 623 712 650 701 q 538 724 596 724 l 538 740 l 791 740 m 514 918 l 458 803 l 387 803 l 479 989 l 496 989 l 587 803 l 571 803 l 514 918 z "},"ü":{"ha":930,"x_min":26,"x_max":903,"o":"m 791 740 l 903 740 l 903 724 q 818 712 844 724 q 791 675 791 701 l 791 0 l 768 0 q 734 84 768 50 q 650 119 699 119 q 609 104 627 119 q 575 69 590 90 q 543 27 560 48 q 495 -8 525 7 q 427 -22 466 -22 q 320 -11 370 -22 q 229 26 271 1 q 163 93 187 50 q 138 192 138 136 l 138 675 q 112 712 138 701 q 26 724 85 724 l 26 740 l 391 740 l 391 724 q 306 712 333 724 q 279 675 279 701 l 279 192 q 323 41 279 88 q 451 -6 368 -6 q 500 8 478 -6 q 537 44 522 23 q 568 85 553 64 q 604 120 583 106 q 650 135 625 135 l 650 675 q 623 712 650 701 q 538 724 596 724 l 538 740 l 791 740 m 446 847 q 440 833 446 847 q 408 808 435 820 q 353 808 380 797 q 315 846 326 819 q 316 900 304 873 q 354 939 327 927 q 408 939 381 950 q 446 901 435 928 q 446 847 457 873 m 566 808 q 511 808 538 797 q 473 846 484 819 q 473 901 462 873 q 511 939 484 928 q 566 939 538 950 q 604 901 593 928 q 604 846 615 873 q 566 808 593 819 z "},"ý":{"ha":930,"x_min":16,"x_max":915,"o":"m 494 803 l 478 803 l 458 944 l 570 944 l 494 803 m 766 740 l 915 740 l 915 724 q 784 703 827 724 q 718 626 741 682 l 454 0 q 341 -188 395 -130 q 204 -246 287 -246 q 71 -213 117 -246 q 24 -136 24 -180 q 58 -70 24 -98 q 148 -41 92 -41 q 283 -104 246 -41 l 269 -113 q 192 -64 235 -64 q 135 -82 156 -64 q 113 -130 113 -100 q 148 -195 113 -168 q 225 -221 182 -221 q 339 -169 293 -221 q 438 0 386 -117 l 155 675 q 16 724 134 724 l 16 740 l 380 740 l 380 724 q 304 712 323 724 q 296 675 285 700 l 509 168 l 697 616 q 686 697 721 671 q 551 724 652 724 l 551 740 l 766 740 z "},"þ":{"ha":873,"x_min":28,"x_max":815,"o":"m 463 825 q 719 734 622 825 q 815 482 815 642 q 719 230 815 322 q 463 138 622 138 q 348 154 391 138 q 281 202 304 170 l 281 65 q 308 27 281 39 q 393 16 334 16 l 393 0 l 28 0 l 28 16 q 113 27 86 16 q 140 65 140 39 l 140 899 q 113 936 140 925 q 28 947 86 947 l 28 964 l 393 964 l 393 947 q 308 936 334 947 q 281 899 281 925 l 281 762 q 348 810 304 794 q 463 825 391 825 m 436 155 q 614 240 553 155 q 674 482 674 325 q 614 724 674 640 q 436 809 553 809 q 281 729 317 809 l 281 235 q 436 155 317 155 z "},"ÿ":{"ha":930,"x_min":16,"x_max":915,"o":"m 426 824 q 415 813 426 824 q 376 803 405 803 q 326 824 347 803 q 305 873 305 844 q 326 923 305 903 q 376 944 347 944 q 426 923 405 944 q 446 873 446 903 q 426 824 446 844 m 584 824 q 573 813 584 824 q 534 803 563 803 q 484 824 505 803 q 463 873 463 844 q 484 923 463 903 q 534 944 505 944 q 584 923 563 944 q 604 873 604 903 q 584 824 604 844 m 551 740 l 915 740 l 915 724 q 784 703 827 724 q 718 626 741 682 l 454 0 q 341 -188 395 -130 q 204 -246 287 -246 q 71 -213 117 -246 q 24 -136 24 -180 q 58 -70 24 -98 q 148 -41 92 -41 q 283 -104 246 -41 l 269 -113 q 192 -64 235 -64 q 135 -82 156 -64 q 113 -130 113 -100 q 148 -195 113 -168 q 225 -221 182 -221 q 339 -169 293 -221 q 438 0 386 -117 l 155 675 q 16 724 134 724 l 16 740 l 380 740 l 380 724 q 304 712 323 724 q 296 675 285 700 l 509 168 l 697 616 q 686 697 721 671 q 551 724 652 724 l 551 740 z "},"Œ":{"ha":1490,"x_min":41,"x_max":1448,"o":"m 1432 253 l 1448 253 l 1448 0 l 716 0 l 716 16 q 801 27 774 16 q 828 65 828 39 l 828 119 q 681 15 764 52 q 506 -22 598 -22 q 326 18 412 -22 q 177 125 239 58 q 78 286 115 193 q 41 482 41 380 q 78 678 41 585 q 177 839 115 772 q 326 946 239 906 q 506 986 412 986 q 681 949 598 986 q 828 844 764 911 l 828 899 q 801 936 828 925 q 716 947 774 947 l 716 964 l 1406 964 l 1406 711 l 1390 711 q 1384 786 1390 753 q 1365 850 1379 819 q 1325 902 1350 882 q 1259 935 1301 922 q 1160 947 1217 947 l 969 947 l 969 498 q 969 490 969 495 q 970 482 970 485 q 969 474 970 479 q 969 466 969 469 l 969 459 q 1074 584 1000 539 q 1093 595 1078 586 q 1112 606 1108 604 q 1127 616 1115 608 q 1143 628 1140 625 q 1155 640 1146 631 q 1167 654 1164 648 q 1175 670 1169 660 q 1182 690 1180 680 q 1185 712 1183 699 q 1187 739 1187 724 l 1203 739 l 1203 355 l 1187 355 q 1186 405 1187 387 q 1185 448 1186 423 q 1183 487 1185 473 q 1178 517 1181 500 q 1170 543 1175 534 q 1158 561 1165 552 q 1142 572 1152 569 q 1120 576 1133 576 q 1049 545 1087 576 q 990 467 1012 513 q 969 370 969 421 l 969 16 l 1202 16 q 1301 29 1259 16 q 1368 61 1343 41 q 1408 113 1393 81 q 1427 177 1422 145 q 1432 253 1432 210 m 344 59 q 381 27 344 59 q 506 -6 418 -6 q 668 59 593 -6 q 786 237 743 125 q 829 482 829 350 q 803 672 829 581 q 734 827 778 762 q 631 931 691 892 q 506 970 572 970 q 380 931 440 970 q 277 827 321 892 q 209 672 234 762 q 183 482 183 581 q 226 237 183 350 q 344 59 269 125 z "},"œ":{"ha":1434,"x_min":60,"x_max":1391,"o":"m 1377 221 l 1391 214 q 1339 123 1369 164 q 1268 48 1310 82 q 1171 -4 1227 15 q 1050 -22 1115 -22 q 876 22 957 -22 q 743 142 795 66 q 610 22 691 66 q 437 -22 530 -22 q 248 30 334 -22 q 110 173 161 83 q 60 370 60 264 q 110 567 60 477 q 248 710 161 658 q 437 762 334 762 q 610 719 530 762 q 743 599 691 675 q 876 719 795 675 q 1050 762 957 762 q 1156 752 1107 762 q 1246 721 1205 742 q 1310 664 1286 701 q 1333 580 1333 628 q 1063 416 1333 416 q 968 400 1009 416 q 904 358 927 384 q 868 300 881 332 q 853 235 854 269 q 857 172 852 201 q 874 119 863 142 q 953 27 907 60 q 1050 -6 998 -6 q 1377 221 1267 -6 m 318 44 q 346 19 318 44 q 437 -6 373 -6 q 555 44 500 -6 q 641 181 610 95 q 673 370 673 268 q 641 559 673 472 q 555 696 610 646 q 437 746 500 746 q 318 696 373 746 q 232 559 264 646 q 201 370 201 472 q 232 181 201 268 q 318 44 264 95 m 814 370 q 837 210 814 289 q 843 275 836 243 q 868 336 850 307 q 910 389 885 366 q 975 425 936 412 q 1063 439 1015 439 q 1155 478 1118 439 q 1192 587 1192 517 q 1185 638 1192 612 q 1164 689 1179 663 q 1119 730 1149 714 q 1050 746 1090 746 q 931 696 986 746 q 845 559 877 646 q 814 370 814 472 z "},"Š":{"ha":913,"x_min":37,"x_max":878,"o":"m 455 986 m 455 587 q 566 544 519 564 q 665 498 613 524 q 752 446 717 472 q 818 387 788 419 q 863 318 848 355 q 878 238 878 280 q 767 44 878 111 q 456 -22 656 -22 q 152 40 267 -22 q 37 208 37 102 q 86 308 37 271 q 203 345 136 345 q 308 296 270 345 l 295 286 q 219 324 258 324 q 169 296 189 324 q 149 235 149 268 q 234 62 149 130 q 455 -6 320 -6 q 663 45 589 -6 q 737 176 737 97 q 723 250 737 215 q 685 311 708 284 q 623 362 661 337 q 547 406 585 387 q 455 446 508 425 q 334 498 385 475 q 232 550 283 521 q 150 606 181 578 q 99 667 119 633 q 79 736 79 700 q 180 921 79 856 q 455 986 281 986 q 590 977 528 986 q 703 948 652 967 q 781 895 753 928 q 810 818 810 862 q 766 742 810 771 q 660 713 722 713 q 537 777 574 713 l 551 785 q 621 736 586 736 q 674 751 658 736 q 691 801 691 765 q 679 865 691 836 q 640 918 666 894 q 566 956 613 942 q 455 970 519 970 q 283 923 345 970 q 221 798 221 876 q 280 679 221 728 q 455 587 338 631 m 466 1002 l 450 1002 l 357 1189 l 429 1189 l 485 1074 l 541 1189 l 558 1189 l 466 1002 z "},"š":{"ha":862,"x_min":62,"x_max":811,"o":"m 417 464 q 463 447 433 458 q 561 410 530 422 q 642 376 593 398 q 715 337 692 354 q 764 294 738 319 q 801 241 791 269 q 811 178 811 212 q 709 32 811 85 q 418 -22 607 -22 q 159 26 256 -22 q 62 149 62 74 q 112 248 62 212 q 229 285 161 285 q 333 237 295 285 l 320 227 q 243 264 283 264 q 194 233 214 264 q 174 167 174 201 q 238 41 174 88 q 417 -6 303 -6 q 602 34 535 -6 q 669 128 669 75 q 658 175 669 153 q 628 214 646 197 q 575 251 609 232 q 506 286 541 270 q 417 323 471 301 q 231 399 254 389 q 102 492 133 444 q 81 567 81 524 q 170 713 81 665 q 417 762 260 762 q 743 606 743 762 q 699 521 743 553 q 593 490 655 490 q 470 553 507 490 l 484 562 q 554 513 519 513 q 606 537 588 513 q 624 597 624 562 q 575 705 624 663 q 417 746 526 746 q 275 712 328 746 q 222 629 222 677 q 265 540 222 576 q 417 464 309 504 m 445 803 l 429 803 l 336 989 l 407 989 l 464 874 l 520 989 l 536 989 l 445 803 z "},"Ÿ":{"ha":956,"x_min":-7,"x_max":962,"o":"m 829 964 l 962 964 l 962 947 q 839 914 887 947 q 757 812 790 881 l 528 330 l 528 65 q 555 27 528 39 q 640 16 582 16 l 640 0 l 275 0 l 275 16 q 360 27 334 16 q 387 65 387 39 l 387 330 l 117 899 q 77 937 104 927 q -7 947 51 947 l -7 964 l 358 964 l 358 947 q 271 937 297 947 q 258 899 245 926 l 520 348 l 741 812 q 731 912 771 877 q 597 947 691 947 l 597 964 l 829 964 m 481 1016 q 472 1004 481 1016 q 435 987 464 992 q 382 1000 406 983 q 354 1046 359 1017 q 366 1098 349 1075 q 412 1126 383 1122 q 465 1114 441 1131 q 493 1068 488 1097 q 481 1016 498 1039 m 647 1084 q 652 1071 647 1084 q 646 1030 658 1057 q 608 992 635 1003 q 554 991 581 981 q 516 1029 527 1002 q 516 1084 505 1057 q 554 1122 528 1111 q 608 1122 581 1133 q 647 1084 635 1112 z "},"Ž":{"ha":651,"x_min":29,"x_max":621,"o":"m 604 253 l 621 253 l 621 0 l 29 0 l 435 947 l 312 947 q 213 935 255 947 q 146 902 171 922 q 107 850 121 882 q 87 786 92 819 q 83 711 83 754 l 66 711 l 66 964 l 584 964 l 178 16 l 374 16 q 473 29 431 16 q 540 61 515 41 q 579 113 565 81 q 599 177 594 145 q 604 253 604 210 m 315 986 l 298 986 l 206 1173 l 277 1173 l 334 1058 l 390 1173 l 406 1173 l 315 986 z "},"ž":{"ha":690,"x_min":46,"x_max":637,"o":"m 621 253 l 637 253 l 637 0 l 46 0 l 450 724 l 329 724 q 230 711 272 724 q 163 679 188 699 q 124 627 138 659 q 104 562 109 595 q 99 487 99 530 l 83 487 l 83 740 l 600 740 l 196 16 l 391 16 q 490 29 448 16 q 557 61 532 41 q 596 113 582 81 q 616 177 611 145 q 621 253 621 210 m 337 803 l 321 803 l 229 989 l 299 989 l 356 874 l 412 989 l 429 989 l 337 803 z "},"":{"ha":2068,"x_min":18,"x_max":2026,"o":"m 2009 253 l 2026 253 l 2026 0 l 1295 0 l 1295 16 q 1380 27 1353 16 q 1407 65 1407 39 l 1407 558 q 1168 473 1324 473 q 930 207 930 473 l 930 65 q 957 27 930 39 q 1042 16 983 16 l 1042 0 l 677 0 l 677 16 q 762 27 736 16 q 789 65 789 39 l 789 711 q 762 748 789 737 q 677 760 736 760 l 677 776 l 1042 776 l 1042 760 q 957 748 983 760 q 930 711 930 737 l 930 406 q 1168 490 1013 490 q 1407 758 1407 490 l 1407 899 q 1380 936 1407 925 q 1295 947 1353 947 l 1295 964 l 1983 964 l 1983 711 l 1967 711 q 1962 786 1967 754 q 1943 850 1957 819 q 1903 902 1928 882 q 1836 935 1879 922 q 1737 947 1794 947 l 1659 947 q 1574 936 1601 947 q 1548 899 1548 925 l 1548 462 q 1651 584 1579 541 q 1670 595 1655 586 q 1689 606 1685 604 q 1705 616 1692 608 q 1720 628 1717 625 q 1732 640 1723 631 q 1744 654 1742 648 q 1752 670 1746 660 q 1759 690 1757 680 q 1762 712 1761 699 q 1764 739 1764 724 l 1780 739 l 1780 355 l 1764 355 q 1764 405 1764 387 q 1763 448 1763 423 q 1760 487 1762 473 q 1755 517 1758 500 q 1747 543 1752 534 q 1735 561 1742 552 q 1719 572 1729 569 q 1697 576 1710 576 q 1626 545 1664 576 q 1548 393 1557 484 l 1548 65 q 1574 27 1548 39 q 1659 16 1601 16 l 1780 16 q 1879 29 1836 16 q 1945 61 1921 41 q 1985 113 1970 81 q 2004 177 1999 145 q 2009 253 2009 210 m 454 65 q 480 27 454 39 q 565 16 507 16 l 565 0 l 201 0 l 201 16 q 286 27 259 16 q 312 65 312 39 l 312 947 l 264 947 q 165 935 207 947 q 98 902 123 922 q 59 850 73 882 q 39 786 44 819 q 35 711 35 754 l 18 711 l 18 964 l 1165 964 l 1165 711 l 1148 711 q 1143 786 1148 754 q 1124 850 1139 819 q 1085 902 1109 882 q 1018 935 1060 922 q 919 947 976 947 l 454 947 l 454 65 z "},"":{"ha":1261,"x_min":22,"x_max":1233,"o":"m 1233 947 q 1148 936 1175 947 q 1121 899 1121 925 l 1121 422 q 1148 384 1121 395 q 1233 373 1175 373 l 1233 357 l 868 357 l 868 373 q 953 384 926 373 q 980 422 980 395 l 980 899 q 953 936 980 925 q 868 947 926 947 l 868 964 l 1233 964 l 1233 947 m 1012 79 q 1068 92 1043 79 q 1109 124 1094 105 q 1134 166 1124 143 q 1148 209 1144 190 q 1152 244 1152 229 l 1166 244 q 1134 120 1166 182 q 1047 18 1101 58 q 935 -22 993 -22 q 829 6 880 -22 q 742 80 779 35 q 670 180 704 125 q 610 290 637 235 q 558 390 583 345 q 510 463 534 435 q 465 492 486 492 q 433 478 450 492 q 397 439 416 465 q 364 390 378 413 q 331 333 350 367 l 275 231 l 275 65 q 302 27 275 39 q 387 16 329 16 l 387 0 l 22 0 l 22 16 q 107 27 81 16 q 134 65 134 39 l 134 899 q 107 936 134 925 q 22 947 81 947 l 22 964 l 387 964 l 387 947 q 302 936 329 947 q 275 899 275 925 l 275 261 l 580 812 q 577 911 614 874 q 448 947 541 947 l 448 964 l 813 964 l 813 947 q 686 914 738 947 q 596 812 633 880 l 425 502 q 549 574 488 574 q 597 547 572 574 q 648 476 623 519 q 700 380 673 433 q 761 274 728 327 q 830 178 794 221 q 913 107 866 134 q 1012 79 961 79 z "},"":{"ha":1324,"x_min":22,"x_max":1297,"o":"m 1297 947 q 1212 936 1238 947 q 1185 899 1185 925 l 1185 422 q 1212 384 1185 395 q 1297 373 1238 373 l 1297 357 l 932 357 l 932 373 q 1017 384 990 373 q 1044 422 1044 395 l 1044 899 q 1017 936 1044 925 q 932 947 990 947 l 932 964 l 1297 964 l 1297 947 m 1072 79 q 1129 92 1103 79 q 1169 124 1154 105 q 1195 166 1184 143 q 1209 209 1205 190 q 1213 244 1213 229 l 1227 244 q 1194 120 1227 182 q 1107 18 1162 58 q 995 -22 1053 -22 q 910 -1 951 -22 q 840 54 870 21 q 777 136 809 87 q 721 229 745 184 q 667 328 698 273 q 613 417 637 382 q 440 397 534 397 q 340 423 380 397 q 301 482 301 449 q 338 538 301 519 q 440 557 374 557 q 632 464 535 557 q 749 692 749 539 q 670 894 749 819 q 458 970 591 970 q 275 960 408 970 l 275 65 q 302 27 275 39 q 387 16 329 16 l 387 0 l 22 0 l 22 16 q 107 27 81 16 q 134 65 134 39 l 134 899 q 107 936 134 925 q 22 947 81 947 l 22 964 l 134 964 q 458 986 363 986 q 780 911 669 986 q 890 692 890 836 q 831 539 890 608 q 663 432 771 469 q 726 357 690 403 q 789 277 762 312 q 852 203 817 242 q 920 139 888 164 q 991 96 951 113 q 1072 79 1031 79 m 440 414 q 594 444 525 414 q 440 541 520 541 q 372 525 398 541 q 347 475 347 509 q 374 428 347 443 q 440 414 401 414 z "},"":{"ha":1539,"x_min":22,"x_max":1544,"o":"m 858 79 q 915 92 889 79 q 955 124 940 105 q 980 166 970 143 q 995 209 991 190 q 998 244 998 229 l 1013 244 q 980 120 1013 182 q 893 18 947 58 q 781 -22 839 -22 q 686 6 727 -22 q 622 80 646 35 q 581 180 598 125 q 552 290 563 235 q 529 390 541 345 q 502 463 518 435 q 465 492 486 492 q 433 478 450 492 q 397 439 416 465 q 364 390 378 413 q 331 333 350 367 l 275 231 l 275 65 q 302 27 275 39 q 387 16 329 16 l 387 0 l 22 0 l 22 16 q 107 27 81 16 q 134 65 134 39 l 134 899 q 107 936 134 925 q 22 947 81 947 l 22 964 l 387 964 l 387 947 q 302 936 329 947 q 275 899 275 925 l 275 261 l 580 812 q 577 911 614 874 q 448 947 541 947 l 448 964 l 813 964 l 813 947 q 686 914 738 947 q 596 812 633 880 l 425 502 q 549 574 488 574 q 589 547 572 574 q 616 476 606 519 q 638 380 627 433 q 666 274 649 327 q 705 178 682 221 q 767 107 728 134 q 858 79 806 79 m 1426 65 q 1461 26 1436 36 q 1544 16 1486 16 l 1544 0 l 1179 0 l 1179 16 q 1268 27 1241 16 q 1284 65 1295 37 l 1096 567 q 1091 561 1095 564 q 1087 556 1087 557 q 1041 526 1071 537 q 984 509 1011 514 q 932 490 958 504 q 896 454 906 477 l 891 442 q 915 345 871 379 q 1050 311 959 311 l 1050 295 l 819 295 l 819 295 l 686 295 l 686 311 q 805 344 761 311 q 876 447 850 376 l 876 445 l 876 447 q 877 450 876 448 q 878 452 878 452 l 1071 964 l 1087 964 l 1426 65 m 1058 570 q 1058 666 1080 603 l 1045 701 l 1017 777 l 909 492 q 959 514 927 505 q 1017 536 991 524 q 1058 570 1044 548 z "},"":{"ha":1705,"x_min":22,"x_max":1710,"o":"m 1072 79 q 1129 92 1103 79 q 1169 124 1154 105 q 1195 166 1184 143 q 1209 209 1205 190 q 1213 244 1213 229 l 1227 244 q 1194 120 1227 182 q 1107 18 1162 58 q 995 -22 1053 -22 q 910 -1 951 -22 q 840 54 870 21 q 777 136 809 87 q 721 229 745 184 q 667 328 698 273 q 613 417 637 382 q 440 397 534 397 q 340 423 380 397 q 301 482 301 449 q 338 538 301 519 q 440 557 374 557 q 632 464 535 557 q 749 692 749 539 q 670 894 749 819 q 458 970 591 970 q 275 960 408 970 l 275 65 q 302 27 275 39 q 387 16 329 16 l 387 0 l 22 0 l 22 16 q 107 27 81 16 q 134 65 134 39 l 134 899 q 107 936 134 925 q 22 947 81 947 l 22 964 l 134 964 q 458 986 363 986 q 780 911 669 986 q 890 692 890 836 q 831 539 890 608 q 663 432 771 469 q 726 357 690 403 q 789 277 762 312 q 852 203 817 242 q 920 139 888 164 q 991 96 951 113 q 1072 79 1031 79 m 440 414 q 594 444 525 414 q 440 541 520 541 q 372 525 398 541 q 347 475 347 509 q 374 428 347 443 q 440 414 401 414 m 1592 65 q 1628 26 1603 36 q 1710 16 1652 16 l 1710 0 l 1345 0 l 1345 16 q 1435 27 1407 16 q 1451 65 1462 37 l 1262 567 q 1254 556 1259 563 q 1208 526 1238 537 q 1151 509 1178 514 q 1098 490 1124 504 q 1062 454 1072 477 l 1057 442 q 1081 345 1037 379 q 1217 311 1125 311 l 1217 295 l 985 295 l 985 295 l 852 295 l 852 311 q 971 344 927 311 q 1042 447 1016 376 l 1042 445 l 1043 447 l 1042 447 q 1044 450 1043 448 q 1045 452 1044 452 l 1238 964 l 1254 964 l 1592 65 m 1225 570 q 1225 666 1246 603 l 1211 701 l 1183 777 l 1076 492 q 1126 514 1094 505 q 1184 536 1158 524 q 1225 570 1211 548 z "},"":{"ha":1581,"x_min":41,"x_max":1539,"o":"m 1523 249 l 1539 249 l 1539 -4 l 808 -4 l 808 12 q 893 23 866 12 q 920 60 920 34 l 920 227 q 545 -26 774 -26 q 337 13 432 -26 q 177 121 241 53 q 77 281 113 189 q 41 477 41 373 q 80 673 41 580 q 184 834 119 767 q 338 942 250 902 q 521 982 427 982 q 659 958 595 982 q 763 885 722 934 q 804 772 804 837 q 768 690 804 724 q 675 656 733 656 q 608 673 640 656 q 559 720 577 689 l 574 728 q 651 680 608 680 q 698 712 682 680 q 714 772 714 744 q 703 840 714 806 q 668 902 691 873 q 607 948 646 930 q 521 966 569 966 q 355 901 433 966 q 230 722 277 836 q 183 477 183 609 q 228 232 183 343 q 356 56 273 121 q 545 -10 439 -10 q 651 7 600 -10 q 739 50 701 24 q 812 114 777 75 q 872 187 848 152 q 920 265 896 222 l 920 895 q 893 932 920 921 q 808 943 866 943 l 808 960 l 1497 960 l 1497 707 l 1480 707 q 1476 782 1480 750 q 1456 846 1471 814 q 1417 898 1442 878 q 1350 931 1392 918 q 1251 943 1308 943 l 1061 943 l 1061 455 q 1164 579 1090 535 q 1234 624 1221 612 q 1278 722 1274 659 q 1278 734 1278 728 l 1294 734 l 1294 351 l 1278 351 q 1277 401 1278 383 q 1276 444 1277 419 q 1274 483 1276 469 q 1269 513 1272 496 q 1261 539 1265 530 q 1249 556 1256 548 q 1233 568 1242 565 q 1211 572 1223 572 q 1140 541 1178 572 q 1082 463 1103 509 q 1061 366 1061 417 l 1061 12 l 1293 12 q 1392 25 1350 12 q 1459 57 1434 37 q 1498 109 1484 77 q 1518 174 1513 141 q 1523 249 1523 206 z "},"":{"ha":1515,"x_min":41,"x_max":1497,"o":"m 808 960 l 1497 960 l 1497 707 l 1480 707 q 1476 782 1480 750 q 1456 846 1471 814 q 1417 898 1442 878 q 1350 931 1392 918 q 1251 943 1308 943 l 1061 943 l 1061 455 q 1164 579 1090 535 q 1234 624 1221 612 q 1278 722 1274 659 q 1278 734 1278 728 l 1294 734 l 1294 351 l 1278 351 q 1277 401 1278 383 q 1276 444 1277 419 q 1274 483 1276 469 q 1269 513 1272 496 q 1261 539 1265 530 q 1249 556 1256 548 q 1233 568 1242 565 q 1211 572 1223 572 q 1140 541 1178 572 q 1082 463 1103 509 q 1061 366 1061 417 l 1061 60 q 1087 23 1061 34 q 1173 12 1114 12 l 1173 -4 l 808 -4 l 808 12 q 893 23 866 12 q 920 60 920 34 l 920 227 q 545 -26 774 -26 q 337 13 432 -26 q 177 121 241 53 q 77 281 113 189 q 41 477 41 373 q 80 673 41 580 q 184 834 119 767 q 338 942 250 902 q 521 982 427 982 q 659 958 595 982 q 763 885 722 934 q 804 772 804 837 q 768 690 804 724 q 675 656 733 656 q 608 673 640 656 q 559 720 577 689 l 574 728 q 651 680 608 680 q 698 712 682 680 q 714 772 714 744 q 703 840 714 806 q 668 902 691 873 q 607 948 646 930 q 521 966 569 966 q 355 901 433 966 q 230 722 277 836 q 183 477 183 609 q 228 232 183 343 q 356 56 273 121 q 545 -10 439 -10 q 651 7 600 -10 q 739 50 701 24 q 812 114 777 75 q 872 187 848 152 q 920 265 896 222 l 920 895 q 893 932 920 921 q 808 943 866 943 l 808 960 z "},"":{"ha":1027,"x_min":32,"x_max":1034,"o":"m 283 402 q 106 470 177 402 q 33 640 35 537 q 46 732 32 687 q 94 820 61 778 q 176 894 127 862 q 296 945 224 926 q 454 964 368 964 l 562 964 l 578 964 l 916 65 q 951 26 927 36 q 1034 16 976 16 l 1034 0 l 669 0 l 669 16 q 759 27 731 16 q 775 65 786 37 l 667 351 q 653 324 663 340 q 589 279 631 293 q 502 261 547 264 q 411 251 456 257 q 328 222 366 245 q 273 155 290 199 q 292 52 248 88 q 430 16 336 16 l 430 0 l 65 0 l 65 16 q 185 49 140 16 q 256 152 229 81 l 257 155 l 256 155 q 264 174 261 168 l 355 416 q 283 402 320 402 m 603 521 l 507 777 l 387 456 q 452 534 439 489 l 461 530 q 432 474 455 503 q 376 427 410 446 l 298 222 q 359 257 323 245 q 431 273 395 269 q 501 282 466 277 q 567 304 536 288 q 618 351 598 320 q 603 521 648 399 m 454 947 q 342 928 393 947 q 255 877 291 909 q 194 803 220 844 q 157 716 169 761 q 146 627 146 671 q 192 487 148 543 q 303 432 235 432 q 366 446 334 432 l 488 769 q 454 947 555 947 z "},"":{"ha":1367,"x_min":24,"x_max":1342,"o":"m 275 402 q 98 470 169 402 q 25 640 27 537 q 38 732 24 687 q 86 820 53 778 q 167 894 119 862 q 287 945 215 926 q 445 964 359 964 l 513 964 q 650 975 534 964 q 836 986 766 986 q 972 970 912 986 q 1069 931 1032 955 q 1132 874 1107 907 q 1166 810 1156 842 q 1175 747 1175 779 q 1157 662 1175 701 q 1109 598 1139 624 q 1040 551 1079 572 q 958 511 1001 529 q 871 475 914 493 q 789 435 828 457 q 720 386 750 413 q 672 320 690 359 q 654 232 654 281 q 735 63 654 132 q 947 -6 817 -6 q 1133 67 1065 -6 q 1201 250 1201 140 q 1149 414 1201 347 q 1004 482 1097 482 l 1004 498 q 1251 436 1160 498 q 1342 258 1342 374 q 1290 105 1342 170 q 1149 9 1238 41 q 947 -22 1061 -22 q 762 23 840 -22 q 654 144 684 68 l 654 0 l 401 0 l 401 16 q 486 27 459 16 q 513 65 513 39 l 513 899 q 445 947 513 947 q 333 928 385 947 q 247 877 282 909 q 185 803 211 844 q 149 716 160 761 q 138 627 137 671 q 183 487 139 543 q 295 432 227 432 q 388 463 345 432 q 443 534 432 494 l 453 530 q 393 444 443 485 q 275 402 343 402 m 1034 747 q 1021 824 1034 786 q 981 895 1008 861 q 906 949 954 928 q 794 970 857 970 q 654 959 761 970 l 654 335 q 698 409 669 376 q 762 463 728 441 q 835 503 797 484 q 908 543 873 522 q 972 589 943 564 q 1017 655 1000 615 q 1034 747 1034 695 z "},"":{"ha":1009,"x_min":20,"x_max":983,"o":"m 184 557 q 61 647 102 591 q 20 772 20 704 q 45 868 20 823 q 110 939 70 913 q 193 977 149 966 q 280 974 237 988 q 350 923 323 960 l 336 915 q 282 959 313 947 q 222 961 251 970 q 167 930 193 952 q 126 872 142 909 q 111 793 111 835 q 132 696 111 746 q 195 609 153 647 q 374 879 239 772 q 670 986 509 986 q 873 933 803 986 q 943 801 943 880 q 919 708 943 751 q 853 634 895 665 q 759 581 811 604 q 646 545 706 558 q 530 524 587 531 q 420 517 473 517 q 321 524 366 517 q 319 482 319 496 q 362 237 319 350 q 480 59 406 125 q 642 -6 555 -6 q 834 56 749 -6 q 970 221 920 118 l 983 214 q 850 44 939 111 q 642 -22 762 -22 q 446 17 534 -22 q 299 125 357 57 q 210 286 241 194 q 178 482 178 377 q 184 557 178 521 m 670 970 q 498 913 574 970 q 377 761 421 857 q 322 545 332 665 q 420 534 369 534 q 718 610 600 534 q 835 801 835 687 q 826 864 835 835 q 798 918 817 894 q 746 956 779 942 q 670 970 713 970 z "},"":{"ha":1384,"x_min":24,"x_max":1337,"o":"m 25 640 q 38 732 24 687 q 86 820 53 778 q 167 894 119 862 q 287 945 215 926 q 445 964 359 964 l 513 964 q 680 975 538 964 q 873 986 822 986 q 1041 959 964 986 q 1172 885 1118 932 q 1263 773 1225 838 q 1319 636 1301 709 q 1337 482 1337 562 q 1320 323 1337 397 q 1267 184 1303 248 q 1179 75 1232 121 q 1050 3 1126 29 q 881 -22 974 -22 q 729 -3 783 -22 q 654 56 675 16 l 654 0 l 401 0 l 401 16 q 486 27 459 16 q 513 65 513 39 l 513 899 q 445 947 513 947 q 333 928 385 947 q 247 877 282 909 q 185 803 211 844 q 149 716 160 761 q 138 627 137 671 q 183 487 139 543 q 295 432 227 432 q 388 463 345 432 q 443 534 432 494 l 453 530 q 393 444 443 485 q 275 402 343 402 q 98 470 169 402 q 25 640 27 537 m 1196 482 q 1151 729 1196 618 q 1023 905 1105 840 q 838 970 941 970 q 654 958 795 970 l 654 140 q 706 30 654 66 q 850 -6 758 -6 q 984 19 924 -6 q 1082 88 1043 44 q 1148 194 1122 132 q 1185 328 1174 256 q 1196 482 1196 399 z "},"":{"ha":1175,"x_min":24,"x_max":1133,"o":"m 275 402 q 98 470 169 402 q 25 640 27 537 q 38 732 24 687 q 86 820 53 778 q 167 894 119 862 q 287 945 215 926 q 445 964 359 964 l 513 964 l 1090 964 l 1090 711 l 1074 711 q 1069 786 1074 754 q 1049 850 1064 819 q 1010 902 1035 882 q 943 935 985 922 q 844 947 901 947 l 654 947 l 654 459 q 758 584 684 539 q 827 628 814 617 q 870 724 867 662 q 871 739 871 730 l 888 739 l 888 355 l 871 355 q 870 405 871 387 q 869 448 870 423 q 867 487 869 473 q 862 517 865 500 q 854 543 859 534 q 842 561 849 552 q 826 572 836 569 q 804 576 817 576 q 733 545 771 576 q 675 467 696 513 q 654 370 654 421 l 654 16 l 886 16 q 985 29 943 16 q 1052 61 1027 41 q 1092 113 1077 81 q 1111 178 1106 145 q 1116 253 1116 210 l 1133 253 l 1133 0 l 401 0 l 401 16 q 486 27 459 16 q 513 65 513 39 l 513 899 q 445 947 513 947 q 333 928 385 947 q 247 877 282 909 q 185 803 211 844 q 149 716 160 761 q 138 627 137 671 q 183 487 139 543 q 295 432 227 432 q 388 463 345 432 q 443 534 432 494 l 453 530 q 393 444 443 485 q 275 402 343 402 z "},"":{"ha":1108,"x_min":24,"x_max":1090,"o":"m 275 402 q 98 470 169 402 q 25 640 27 537 q 38 732 24 687 q 86 820 53 778 q 167 894 119 862 q 287 945 215 926 q 445 964 359 964 l 513 964 l 1090 964 l 1090 711 l 1074 711 q 1069 786 1074 754 q 1049 850 1064 819 q 1010 902 1035 882 q 943 935 985 922 q 844 947 901 947 l 654 947 l 654 459 q 758 584 684 539 q 827 628 814 617 q 870 724 867 662 q 871 739 871 730 l 888 739 l 888 355 l 871 355 q 870 405 871 387 q 869 448 870 423 q 867 487 869 473 q 862 517 865 500 q 854 543 859 534 q 842 561 849 552 q 826 572 836 569 q 804 576 817 576 q 733 545 771 576 q 654 371 655 476 l 654 65 q 681 27 654 39 q 766 16 707 16 l 766 0 l 401 0 l 401 16 q 486 27 459 16 q 513 65 513 39 l 513 899 q 445 947 513 947 q 333 928 385 947 q 247 877 282 909 q 185 803 211 844 q 149 716 160 761 q 138 627 137 671 q 183 487 139 543 q 295 432 227 432 q 388 463 345 432 q 443 534 432 494 l 453 530 q 393 444 443 485 q 275 402 343 402 z "},"":{"ha":1061,"x_min":20,"x_max":1008,"o":"m 184 557 q 61 647 102 591 q 20 772 20 704 q 45 868 20 823 q 110 939 70 913 q 193 977 149 966 q 280 974 237 988 q 350 923 323 960 l 336 915 q 282 959 313 947 q 222 961 251 970 q 167 930 193 952 q 126 872 142 909 q 111 793 111 835 q 132 696 111 745 q 195 608 153 646 q 374 879 239 771 q 670 986 509 986 q 873 933 803 986 q 943 801 943 880 q 919 708 943 751 q 853 634 895 665 q 759 581 811 604 q 646 545 706 558 q 530 524 587 531 q 420 517 473 517 q 321 524 366 517 q 319 482 319 496 q 362 237 319 350 q 480 59 406 125 q 642 -6 555 -6 q 776 34 718 -6 q 867 141 835 75 l 867 362 q 841 400 867 389 q 755 411 814 411 l 755 427 l 1008 427 l 1008 0 l 992 0 q 959 85 992 49 q 876 124 925 121 q 783 18 842 58 q 642 -22 724 -22 q 446 17 534 -22 q 299 125 357 57 q 210 286 241 194 q 178 482 178 377 q 184 557 178 521 m 670 970 q 498 913 574 970 q 377 761 421 857 q 322 545 332 665 q 420 534 369 534 q 718 610 600 534 q 835 801 835 687 q 826 864 835 835 q 798 918 817 894 q 746 956 779 942 q 670 970 713 970 z "},"":{"ha":1405,"x_min":24,"x_max":1383,"o":"m 275 402 q 98 470 169 402 q 25 640 27 537 q 38 732 24 687 q 86 820 53 778 q 167 894 119 862 q 287 945 215 926 q 445 964 359 964 l 513 964 l 766 964 l 766 947 q 681 936 707 947 q 654 899 654 925 l 654 406 q 892 490 736 490 q 1130 758 1130 490 l 1131 758 l 1131 899 q 1104 936 1131 925 q 1019 947 1077 947 l 1019 964 l 1383 964 l 1383 947 q 1298 936 1325 947 q 1272 899 1272 925 l 1272 65 q 1298 27 1272 39 q 1383 16 1325 16 l 1383 0 l 1019 0 l 1019 16 q 1104 27 1077 16 q 1131 65 1131 39 l 1131 558 q 892 473 1048 473 q 654 207 654 473 l 654 65 q 681 27 654 39 q 766 16 707 16 l 766 0 l 401 0 l 401 16 q 486 27 459 16 q 513 65 513 39 l 513 899 q 445 947 513 947 q 333 928 385 947 q 247 877 282 909 q 185 803 211 844 q 149 716 160 761 q 138 627 137 671 q 183 487 139 543 q 295 432 227 432 q 388 463 345 432 q 443 534 432 494 l 453 530 q 393 444 443 485 q 275 402 343 402 z "},"":{"ha":789,"x_min":24,"x_max":766,"o":"m 25 640 q 38 732 24 687 q 86 820 53 778 q 167 894 119 862 q 287 945 215 926 q 445 964 359 964 l 513 964 l 766 964 l 766 947 q 681 936 707 947 q 654 899 654 925 l 654 65 q 681 27 654 39 q 766 16 707 16 l 766 0 l 401 0 l 401 16 q 486 27 459 16 q 513 65 513 39 l 513 899 q 445 947 513 947 q 333 928 385 947 q 247 877 282 909 q 185 803 211 844 q 149 716 160 761 q 138 627 137 671 q 183 487 139 543 q 295 432 227 432 q 388 463 345 432 q 443 534 432 494 l 453 530 q 393 444 443 485 q 275 402 343 402 q 98 470 169 402 q 25 640 27 537 z "},"":{"ha":882,"x_min":26,"x_max":868,"o":"m 448 964 l 868 964 l 868 947 q 783 936 810 947 q 756 899 756 925 l 756 376 q 748 228 756 290 q 718 116 739 165 q 662 37 697 66 q 573 -7 626 8 q 446 -22 520 -22 q 255 27 325 -22 q 186 163 186 76 q 221 245 186 211 q 315 279 256 279 q 381 262 350 279 q 430 215 412 245 l 416 207 q 338 256 381 256 q 293 225 311 256 q 275 163 275 195 q 320 43 275 93 q 446 -6 366 -6 q 517 8 488 -6 q 565 51 546 23 q 595 126 585 78 q 611 233 606 174 q 615 376 615 292 l 615 899 q 581 937 615 926 q 448 947 546 947 q 336 928 388 947 q 249 877 285 909 q 188 803 214 844 q 151 716 163 761 q 140 627 140 671 q 186 487 142 543 q 298 432 230 432 q 391 463 347 432 q 446 534 435 494 l 456 530 q 396 444 446 485 q 278 402 346 402 q 101 470 172 402 q 28 640 30 537 q 41 732 26 687 q 89 820 56 778 q 170 894 122 862 q 290 945 218 926 q 448 964 362 964 z "},"":{"ha":1236,"x_min":24,"x_max":1215,"o":"m 766 947 q 681 936 707 947 q 654 899 654 925 l 654 279 l 949 812 q 946 911 983 874 q 817 947 909 947 l 817 964 l 1182 964 l 1182 947 q 1055 914 1107 947 q 965 812 1002 880 l 793 502 q 918 574 857 574 q 972 549 951 574 q 1002 484 993 524 q 1017 395 1012 444 q 1027 298 1023 347 q 1038 209 1031 250 q 1063 144 1046 169 q 1107 119 1080 119 q 1175 161 1149 119 q 1201 244 1201 203 l 1215 244 q 1212 188 1215 218 q 1197 118 1208 157 q 1169 50 1185 80 q 1125 -2 1153 19 q 1061 -22 1097 -22 q 984 6 1015 -22 q 938 80 953 35 q 915 180 924 125 q 902 290 907 235 q 892 390 898 345 q 872 463 886 435 q 833 492 858 492 q 802 478 819 492 q 766 439 785 465 q 733 390 747 413 q 700 333 719 367 l 654 249 l 654 65 q 681 27 654 39 q 766 16 707 16 l 766 0 l 401 0 l 401 16 q 486 27 459 16 q 513 65 513 39 l 513 899 q 445 947 513 947 q 333 928 385 947 q 247 877 282 909 q 185 803 211 844 q 149 716 160 761 q 138 627 137 671 q 183 487 139 543 q 295 432 227 432 q 388 463 345 432 q 443 534 432 494 l 453 530 q 393 444 443 485 q 275 402 343 402 q 98 470 169 402 q 25 640 27 537 q 38 732 24 687 q 86 820 53 778 q 167 894 119 862 q 287 945 215 926 q 445 964 359 964 l 513 964 l 766 964 l 766 947 z "},"":{"ha":1097,"x_min":24,"x_max":1078,"o":"m 766 947 q 681 936 707 947 q 654 899 654 925 l 654 16 l 833 16 q 932 29 890 16 q 999 61 974 41 q 1038 113 1023 81 q 1057 177 1053 145 q 1062 253 1062 210 l 1078 253 l 1078 0 l 401 0 l 401 16 q 486 27 459 16 q 513 65 513 39 l 513 899 q 445 947 513 947 q 333 928 385 947 q 247 877 282 909 q 185 803 211 844 q 149 716 160 761 q 138 627 137 671 q 183 487 139 543 q 295 432 227 432 q 388 463 345 432 q 443 534 432 494 l 453 530 q 393 444 443 485 q 275 402 343 402 q 98 470 169 402 q 25 640 27 537 q 38 732 24 687 q 86 820 53 778 q 167 894 119 862 q 287 945 215 926 q 445 964 359 964 l 513 964 l 766 964 l 766 947 z "},"":{"ha":1621,"x_min":24,"x_max":1598,"o":"m 513 964 l 589 964 l 999 142 l 1409 964 l 1598 964 l 1598 947 q 1513 936 1540 947 q 1487 899 1487 925 l 1487 65 q 1513 27 1487 39 q 1598 16 1540 16 l 1598 0 l 1234 0 l 1234 16 q 1319 27 1292 16 q 1345 65 1345 39 l 1345 803 l 945 0 l 928 0 l 529 800 l 529 178 q 559 53 529 89 q 660 16 589 16 l 660 0 l 382 0 l 382 16 q 483 53 452 16 q 513 178 513 89 l 513 899 q 445 947 513 947 q 333 928 385 947 q 247 877 282 909 q 185 803 211 844 q 149 716 160 761 q 138 627 137 671 q 183 487 139 543 q 295 432 227 432 q 388 463 345 432 q 443 534 432 494 l 453 530 q 393 444 443 485 q 275 402 343 402 q 98 470 169 402 q 25 640 27 537 q 38 732 24 687 q 86 820 53 778 q 167 894 119 862 q 287 945 215 926 q 445 964 359 964 l 513 964 z "},"":{"ha":1315,"x_min":24,"x_max":1305,"o":"m 1027 964 l 1305 964 l 1305 947 q 1204 911 1234 947 q 1174 786 1174 875 l 1174 0 l 1093 0 l 529 857 l 529 178 q 559 53 529 89 q 660 16 589 16 l 660 0 l 382 0 l 382 16 q 483 53 452 16 q 513 178 513 89 l 513 899 q 445 947 513 947 q 333 928 385 947 q 247 877 282 909 q 185 803 211 844 q 149 716 160 761 q 138 627 137 671 q 183 487 139 543 q 295 432 227 432 q 388 463 345 432 q 443 534 432 494 l 453 530 q 393 444 443 485 q 275 402 343 402 q 98 470 169 402 q 25 640 27 537 q 38 732 24 687 q 86 820 53 778 q 167 894 119 862 q 287 945 215 926 q 445 964 359 964 l 513 964 l 600 964 l 1158 117 l 1158 786 q 1127 911 1158 875 q 1027 947 1097 947 l 1027 964 z "},"":{"ha":1175,"x_min":18,"x_max":1133,"o":"m 209 547 q 66 639 115 579 q 18 772 18 699 q 43 868 18 823 q 108 939 68 913 q 192 977 148 966 q 279 974 236 988 q 349 923 322 960 l 334 915 q 280 959 311 947 q 220 961 250 970 q 166 930 191 952 q 125 872 140 909 q 109 793 109 835 q 136 685 109 740 q 216 591 162 629 q 377 874 250 762 q 669 986 504 986 l 673 986 q 855 944 786 985 q 1056 760 979 884 q 1133 482 1133 635 q 1096 286 1133 380 q 997 125 1059 193 q 849 18 935 58 q 669 -22 763 -22 q 488 18 574 -22 q 340 125 402 58 q 241 286 278 193 q 205 482 205 380 q 209 547 205 515 m 991 482 q 936 755 991 632 q 884 664 924 705 q 789 596 844 623 q 669 551 735 570 q 541 525 604 533 q 418 517 478 517 q 347 520 377 517 q 346 482 346 494 q 389 237 346 350 q 507 59 432 125 q 669 -6 581 -6 q 831 59 756 -6 q 948 237 905 125 q 991 482 991 350 m 669 970 q 517 913 587 970 q 402 758 447 856 q 348 539 357 659 q 418 534 382 534 q 716 610 599 534 q 833 801 833 687 q 810 899 833 856 q 737 959 786 941 q 677 970 707 969 l 676 970 l 671 970 l 669 970 z "},"":{"ha":1294,"x_min":24,"x_max":1270,"o":"m 837 986 q 1158 911 1047 986 q 1270 692 1270 836 q 1166 480 1270 563 q 885 397 1063 397 q 719 342 785 397 q 654 211 654 288 l 654 65 q 681 27 654 39 q 766 16 707 16 l 766 0 l 401 0 l 401 16 q 486 27 459 16 q 513 65 513 39 l 513 899 q 445 947 513 947 q 333 928 385 947 q 247 877 282 909 q 185 803 211 844 q 149 716 160 761 q 138 627 137 671 q 183 487 139 543 q 295 432 227 432 q 388 463 345 432 q 443 534 432 494 l 453 530 q 393 444 443 485 q 275 402 343 402 q 98 470 169 402 q 25 640 27 537 q 38 732 24 687 q 86 820 53 778 q 167 894 119 862 q 287 945 215 926 q 445 964 359 964 l 513 964 q 837 986 742 986 m 885 414 q 1059 489 990 414 q 1128 692 1128 564 q 1049 894 1128 819 q 837 970 970 970 q 654 960 786 970 l 654 290 q 744 380 681 347 q 885 414 807 414 z "},"":{"ha":1175,"x_min":18,"x_max":1133,"o":"m 669 -22 q 450 37 551 -22 q 443 3 443 20 q 479 -73 443 -47 q 568 -98 516 -98 q 766 -53 619 -98 q 954 -7 912 -7 q 1060 -34 1018 -7 q 1102 -122 1102 -62 q 1063 -220 1102 -176 q 968 -263 1023 -263 l 968 -246 q 1031 -224 1006 -243 q 1057 -173 1057 -206 q 1026 -118 1057 -139 q 954 -97 996 -97 q 861 -111 913 -97 q 766 -143 808 -125 q 668 -174 723 -160 q 568 -189 614 -189 q 444 -150 492 -189 q 397 -47 397 -112 q 431 50 397 7 q 266 232 328 117 q 205 482 205 347 q 209 547 205 515 q 66 639 115 579 q 18 772 18 699 q 43 868 18 823 q 108 939 68 913 q 192 977 148 966 q 279 974 236 988 q 349 923 322 960 l 334 915 q 280 959 311 947 q 220 961 250 970 q 166 930 191 952 q 125 872 140 909 q 109 793 109 835 q 136 685 109 740 q 216 591 162 629 q 377 874 250 762 q 669 986 504 986 l 673 986 q 855 944 786 985 q 1056 760 979 884 q 1133 482 1133 635 q 1096 286 1133 380 q 997 125 1059 193 q 849 18 935 58 q 669 -22 763 -22 m 669 -6 q 702 -1 688 -4 q 730 8 716 2 q 752 27 745 15 q 759 56 759 39 q 721 105 759 88 q 637 121 683 121 q 561 110 603 121 q 488 78 518 99 q 669 -6 570 -6 m 669 970 q 517 913 587 970 q 402 758 447 856 q 348 539 357 659 q 418 534 382 534 q 716 610 599 534 q 833 801 833 687 q 810 899 833 856 q 737 959 786 941 q 677 970 707 969 l 676 970 l 671 970 l 669 970 m 346 482 q 381 261 346 363 q 476 90 416 158 q 557 126 513 114 q 637 138 602 138 q 755 118 707 138 q 804 62 804 98 q 796 34 804 48 q 938 212 884 91 q 991 482 991 334 q 936 755 991 632 q 884 664 924 705 q 789 596 844 623 q 669 551 735 570 q 541 525 604 533 q 418 517 478 517 q 347 520 377 517 q 346 482 346 494 z "},"":{"ha":1365,"x_min":24,"x_max":1331,"o":"m 1223 119 q 1291 161 1265 119 q 1317 244 1317 203 l 1331 244 q 1328 188 1331 218 q 1313 118 1324 157 q 1285 50 1301 80 q 1241 -2 1269 19 q 1177 -22 1213 -22 q 1108 5 1138 -22 q 1060 83 1079 33 q 1027 185 1041 134 q 996 303 1013 237 q 962 411 979 370 q 819 397 895 397 q 719 423 758 397 q 680 482 680 449 q 716 538 680 519 q 819 557 753 557 q 997 456 923 557 q 1094 551 1059 490 q 1128 692 1128 611 q 1049 894 1128 819 q 837 970 970 970 q 654 960 786 970 l 654 65 q 681 27 654 39 q 766 16 707 16 l 766 0 l 401 0 l 401 16 q 486 27 459 16 q 513 65 513 39 l 513 899 q 445 947 513 947 q 333 928 385 947 q 247 877 282 909 q 185 803 211 844 q 149 716 160 761 q 138 627 137 671 q 183 487 139 543 q 295 432 227 432 q 388 463 345 432 q 443 534 432 494 l 453 530 q 393 444 443 485 q 275 402 343 402 q 98 470 169 402 q 25 640 27 537 q 38 732 24 687 q 86 820 53 778 q 167 894 119 862 q 287 945 215 926 q 445 964 359 964 l 513 964 q 837 986 742 986 q 1158 911 1047 986 q 1270 692 1270 836 q 1203 532 1270 604 q 1017 424 1136 459 q 1068 323 1040 386 q 1115 221 1097 261 q 1162 150 1133 181 q 1223 119 1190 119 m 819 414 q 952 435 892 414 q 819 541 903 541 q 751 525 777 541 q 726 475 726 509 q 752 428 726 443 q 819 414 779 414 z "},"":{"ha":1090,"x_min":18,"x_max":1062,"o":"m 705 562 q 845 499 787 530 q 956 430 904 469 q 1035 342 1008 391 q 1062 238 1062 294 q 951 44 1062 111 q 640 -22 840 -22 q 436 8 530 -22 q 282 98 342 38 q 222 235 222 157 q 253 335 222 292 q 331 395 283 378 q 432 412 379 412 q 536 384 486 411 q 618 311 587 357 l 605 300 q 524 363 572 347 q 434 368 475 380 q 362 320 392 356 q 332 235 332 284 q 377 111 332 167 q 492 24 422 55 q 640 -6 562 -6 q 847 45 773 -6 q 921 176 921 97 q 901 266 921 225 q 839 338 880 306 q 752 395 798 371 q 640 446 706 420 q 466 519 512 497 q 418 517 433 517 q 240 538 318 517 q 114 595 161 559 q 42 675 66 631 q 18 772 18 720 q 43 868 18 823 q 108 939 68 913 q 192 977 148 966 q 279 974 236 988 q 349 923 322 960 l 334 915 q 280 959 311 947 q 220 961 250 970 q 166 930 191 952 q 125 872 140 909 q 109 793 109 835 q 119 725 109 760 q 153 656 129 691 q 211 594 176 621 q 299 551 245 568 q 418 534 353 534 q 427 534 421 534 q 435 534 432 534 q 307 630 350 578 q 264 758 264 682 q 366 925 264 863 q 640 986 467 986 q 859 932 775 986 q 942 801 942 878 q 877 657 942 716 q 705 562 812 597 m 640 587 q 649 584 643 586 q 659 580 656 581 q 787 674 741 616 q 833 801 833 732 q 780 920 833 869 q 640 970 726 970 q 467 923 529 970 q 405 798 405 876 q 464 679 405 728 q 640 587 523 631 z "},"":{"ha":1078,"x_min":24,"x_max":1059,"o":"m 445 964 l 1059 964 l 1059 711 l 1043 711 q 1038 786 1043 753 q 1018 850 1033 819 q 979 902 1004 882 q 912 935 954 922 q 813 947 870 947 l 765 947 l 765 65 q 792 27 765 39 q 877 16 819 16 l 877 0 l 512 0 l 512 16 q 597 27 570 16 q 624 65 624 39 l 624 899 q 557 947 624 947 l 445 947 q 333 928 385 947 q 247 877 282 909 q 185 803 211 844 q 149 716 160 761 q 138 627 137 671 q 183 487 139 543 q 295 432 227 432 q 388 463 345 432 q 443 534 432 494 l 453 530 q 393 444 443 485 q 275 402 343 402 q 98 470 169 402 q 25 640 27 537 q 38 732 24 687 q 86 820 53 778 q 167 894 119 862 q 287 945 215 926 q 445 964 359 964 z "},"":{"ha":1327,"x_min":24,"x_max":1319,"o":"m 1041 964 l 1319 964 l 1319 947 q 1218 911 1249 947 q 1188 786 1188 875 l 1188 282 q 1116 51 1188 125 q 890 -22 1044 -22 q 513 238 513 -22 l 513 899 q 445 947 513 947 q 333 928 385 947 q 247 877 282 909 q 185 803 211 844 q 149 716 160 761 q 138 627 137 671 q 183 487 139 543 q 295 432 227 432 q 388 463 345 432 q 443 534 432 494 l 453 530 q 393 444 443 485 q 275 402 343 402 q 98 470 169 402 q 25 640 27 537 q 38 732 24 687 q 86 820 53 778 q 167 894 119 862 q 287 945 215 926 q 445 964 359 964 l 654 964 l 766 964 l 766 947 q 681 936 707 947 q 654 899 654 925 l 654 238 q 671 118 654 167 q 721 43 688 69 q 795 5 754 16 q 892 -6 836 -6 q 1011 8 961 -6 q 1098 55 1061 22 q 1154 144 1135 88 q 1172 282 1172 201 l 1172 786 q 1142 911 1172 875 q 1041 947 1112 947 l 1041 964 z "},"":{"ha":1408,"x_min":24,"x_max":1414,"o":"m 1050 964 l 1414 964 l 1414 947 q 1295 915 1339 947 q 1224 812 1251 882 l 918 0 l 902 0 l 564 899 q 528 938 553 928 q 445 947 503 947 q 333 928 385 947 q 247 877 282 909 q 185 803 211 844 q 149 716 160 761 q 138 627 137 671 q 183 487 139 543 q 295 432 227 432 q 388 463 345 432 q 443 534 432 494 l 453 530 q 393 444 443 485 q 275 402 343 402 q 98 470 169 402 q 25 640 27 537 q 38 732 24 687 q 86 820 53 778 q 167 894 119 862 q 287 945 215 926 q 445 964 359 964 l 810 964 l 810 947 q 721 937 748 947 q 705 899 694 926 l 972 188 l 1207 812 q 1188 912 1232 878 q 1050 947 1144 947 l 1050 964 z "},"":{"ha":1811,"x_min":24,"x_max":1817,"o":"m 1817 964 l 1817 947 q 1700 915 1742 947 q 1634 812 1657 882 l 1364 0 l 1348 0 l 1112 711 l 876 0 l 859 0 l 560 899 q 527 938 551 928 q 445 947 503 947 q 333 928 385 947 q 247 877 282 909 q 185 803 211 844 q 149 716 160 761 q 138 627 137 671 q 183 487 139 543 q 295 432 227 432 q 388 463 345 432 q 443 534 432 494 l 453 530 q 393 444 443 485 q 275 402 343 402 q 98 470 169 402 q 25 640 27 537 q 38 732 24 687 q 86 820 53 778 q 167 894 119 862 q 287 945 215 926 q 445 964 359 964 l 810 964 l 810 947 q 720 937 747 947 q 702 899 692 926 l 930 212 l 1103 736 l 1049 899 q 1016 938 1040 928 q 934 947 992 947 l 934 964 l 1299 964 l 1299 947 q 1209 937 1236 947 q 1191 899 1181 926 l 1190 899 l 1418 212 l 1617 812 q 1594 913 1640 878 q 1453 947 1548 947 l 1453 964 l 1817 964 z "},"":{"ha":1383,"x_min":24,"x_max":1382,"o":"m 1247 65 q 1295 26 1265 37 q 1382 16 1324 16 l 1382 0 l 1017 0 l 1017 16 q 1112 47 1112 16 q 1105 65 1112 55 l 838 481 l 623 147 q 621 52 587 88 q 743 16 654 16 l 743 0 l 378 0 l 378 16 q 610 152 522 16 l 609 152 l 829 494 l 568 899 l 568 899 q 445 947 537 947 q 333 928 385 947 q 247 877 282 909 q 185 803 211 844 q 149 716 160 761 q 138 627 137 671 q 183 487 139 543 q 295 432 227 432 q 388 463 345 432 q 443 534 432 494 l 453 530 q 393 444 443 485 q 275 402 343 402 q 98 470 169 402 q 25 640 27 537 q 38 732 24 687 q 86 820 53 778 q 167 894 119 862 q 287 945 215 926 q 445 964 359 964 l 798 964 l 798 947 q 703 917 703 947 q 709 899 703 909 l 923 567 l 1084 817 q 1087 912 1120 876 q 964 947 1054 947 l 964 964 l 1329 964 l 1329 947 q 1098 812 1186 947 l 932 554 l 1247 64 l 1247 65 z "},"":{"ha":1408,"x_min":24,"x_max":1414,"o":"m 1050 964 l 1414 964 l 1414 947 q 1291 914 1339 947 q 1209 812 1242 881 l 981 330 l 981 65 q 1007 27 981 39 q 1093 16 1034 16 l 1093 0 l 728 0 l 728 16 q 813 27 786 16 q 840 65 840 39 l 840 330 l 570 899 q 529 937 556 927 q 445 947 503 947 q 333 928 385 947 q 247 877 282 909 q 185 803 211 844 q 149 716 160 761 q 138 627 137 671 q 183 487 139 543 q 295 432 227 432 q 388 463 345 432 q 443 534 432 494 l 453 530 q 393 444 443 485 q 275 402 343 402 q 98 470 169 402 q 25 640 27 537 q 38 732 24 687 q 86 820 53 778 q 167 894 119 862 q 287 945 215 926 q 445 964 359 964 l 810 964 l 810 947 q 723 937 749 947 q 711 899 698 926 l 972 348 l 1192 812 q 1183 912 1223 877 q 1050 947 1143 947 l 1050 964 z "},"":{"ha":904,"x_min":24,"x_max":872,"o":"m 856 253 l 872 253 l 872 0 l 281 0 l 688 947 l 445 947 q 333 928 385 947 q 247 877 282 909 q 185 803 211 844 q 149 716 160 761 q 138 627 137 671 q 183 487 139 543 q 295 432 227 432 q 388 463 345 432 q 443 534 432 494 l 453 530 q 393 444 443 485 q 275 402 343 402 q 98 470 169 402 q 25 640 27 537 q 38 732 24 687 q 86 820 53 778 q 167 894 119 862 q 287 945 215 926 q 445 964 359 964 l 836 964 l 429 16 l 627 16 q 726 29 684 16 q 792 61 768 41 q 832 113 817 81 q 851 177 846 145 q 856 253 856 210 z "}}}
